<?xml version="1.0" standalone="no"?><!DOCTYPE svg PUBLIC "-//W3C//DTD SVG 1.1//EN" "http://www.w3.org/Graphics/SVG/1.1/DTD/svg11.dtd" ><svg xmlns="http://www.w3.org/2000/svg"><metadata></metadata><defs><font id="STXingkai TTF" horiz-adv-x="1010"><font-face font-family="STXingkai" font-weight="400" font-stretch="normal" units-per-em="1000" panose-1="2 1 8 0 4 1 1 1 1 1" ascent="802" descent="-289" x-height="1" bbox="-166 -289 1015 791" underline-thickness="20" underline-position="-133" unicode-range="U+0009-ffe5" /><missing-glyph horiz-adv-x="1000"  /><glyph glyph-name="" unicode="" d="" /><glyph glyph-name="" unicode=" " d="" /><glyph glyph-name="" unicode="!" d="M348 626 q8 3 17 3 q40 0 69 -39 l-134 -198 q-65 -96 -110 -170 q9 -1 9 -11 q0 -6 -12 -20 q-12 -14 -20 -14 q-11 0 -27.5 19 q-16.5 19 -16.5 34 q0 24 225 396 ZM161 102 q0 -28 -18.5 -63 q-18.5 -35 -35.5 -35 q-16 0 -29.5 13.5 q-13.5 13.5 -13.5 35.5 q0 34 16 71 q16 37 33 37 q17 0 32.5 -18 q15.5 -18 15.5 -41 Z" /><glyph glyph-name="" unicode="&quot;" d="M108 493 l0 116 l73 0 l0 -116 l-15 -132 l-43 0 l-15 132 ZM237 493 l0 116 l74 0 l0 -116 l-15 -132 l-43 0 l-16 132 Z" /><glyph glyph-name="" unicode="#" d="M54 375 l0 64 l143 0 l38 177 l63 0 l-38 -177 l178 0 l38 177 l64 0 l-38 -177 l84 0 l0 -64 l-97 0 l-32 -155 l129 0 l0 -64 l-141 0 l-38 -176 l-64 0 l38 176 l-179 0 l-37 -176 l-64 0 l37 176 l-84 0 l0 64 l98 0 l32 155 l-130 0 ZM426 375 l-179 0 l-32 -155 l179 0 l32 155 Z" /><glyph glyph-name="" unicode="$" d="M222 116 l107 185 q-80 22 -118 42.5 q-38 20.5 -38 47.5 q0 57 26 115 q26 58 118 93 q92 35 207 40 l65 114 l46 -26 l-50 -86 q44 0 72 -8 q28 -8 37 -14 q9 -6 9 -21 q0 -31 -9.5 -52 q-9.5 -21 -31.5 -30 l-28 -10 q-32 -11 -47 -18.5 q-15 -7.5 -46 -27.5 q-13 -8 -18 -8 q-2 0 -2 2 q0 4 16 17 q16 13 44 29 q38 20 38 29 q0 9 -43 9 q-35 0 -51 -1 l-113 -195 q76 -26 127.5 -64.5 q51.5 -38.5 51.5 -79.5 q0 -34 -32 -88.5 q-32 -54.5 -140.5 -78.5 q-108.5 -24 -199.5 -24 l-65 -113 l-45 25 l52 90 q-49 4 -88.5 17 q-39.5 13 -39.5 41 q0 33 28.5 63 q28.5 30 61.5 30 q8 0 15 -2 q-34 -14 -34 -28 q0 -14 118 -14 ZM361 358 l100 173 q-102 -14 -162 -45 q-60 -31 -60 -65 q0 -11 7 -22 q7 -11 15 -13 l100 -28 ZM382 290 l-100 -173 q163 0 255 82 q-42 53 -155 91 Z" /><glyph glyph-name="" unicode="%" d="M357 555 q29 -5 29 -48 q0 -71 -52 -137 q-52 -66 -111 -66 q-35 0 -54.5 25.5 q-19.5 25.5 -19.5 63.5 q0 68 56 128 q56 60 110 60 q29 0 42 -26 ZM202 404 q0 -20 10 -29.5 q10 -9.5 20 -9.5 q42 0 82.5 48.5 q40.5 48.5 40.5 90.5 q0 28 -16 28 l-33 -7 q-5 0 -9.5 3 q-4.5 3 -5.5 3 q-15 0 -52 -44.5 q-37 -44.5 -37 -82.5 ZM134 -47 q-10 0 -19.5 23.5 q-9.5 23.5 -9.5 43.5 q0 19 24 52 q44 57 148 165 q81 85 165.5 159 q84.5 74 180.5 149 q6 4 10 4 q10 0 10 -17 q0 -17 -23 -44.5 q-23 -27.5 -73 -74.5 q-240 -224 -367 -411 q-33 -49 -46 -49 ZM558 228 q20 -6 24.5 -21.5 q4.5 -15.5 4.5 -31.5 q0 -70 -56.5 -133 q-56.5 -63 -93.5 -63 q-24 0 -46.5 30 q-22.5 30 -22.5 70 q0 56 50.5 113.5 q50.5 57.5 104.5 57.5 q20 0 35 -22 ZM532 209 q-12 0 -43 -18 q-31 -18 -55 -50.5 q-24 -32.5 -24 -64.5 q0 -42 25 -42 q29 0 69.5 59 q40.5 59 40.5 93 q0 23 -13 23 Z" /><glyph glyph-name="" unicode="&amp;" d="M354 93 q-114 -89 -176 -89 q-59 0 -98.5 50 q-39.5 50 -39.5 116 q0 63 48 115 q48 52 140 100 q-5 22 -5 45 q0 87 67 157.5 q67 70.5 149 70.5 q40 0 63.5 -19.5 q23.5 -19.5 23.5 -52.5 q0 -43 -37 -87 q-37 -44 -168 -124 q14 -59 47 -126 q57 37 80 63 q50 54 54 54 q5 0 8 -14 q3 -14 3 -24 q0 -73 -91 -161 l32 -35 q20 24 28 24 q9 0 9 -13 q0 -24 -28 -69 q-28 -45 -46 -45 q-23 0 -63 64 ZM310 447 q74 42 111 85 q37 43 37 68 q0 22 -20 22 q-36 0 -82.5 -51.5 q-46.5 -51.5 -46.5 -107.5 q0 -8 1 -16 ZM244 321 q-57 -41 -91 -84 q-34 -43 -34 -71 q0 -36 33 -36 q25 0 65.5 16 q40.5 16 81.5 46 l-55 129 Z" /><glyph glyph-name="" unicode="&#39;" d="M132 493 l0 116 l72 0 l0 -116 l-12 -131 l-45 0 l-15 131 Z" /><glyph glyph-name="" unicode="(" d="M226 72 q6 17 10 17 q3 0 6.5 -10.5 q3.5 -10.5 3.5 -21.5 q0 -23 -11.5 -38.5 q-11.5 -15.5 -29.5 -15.5 q-36 0 -62 64.5 q-26 64.5 -26 150.5 q0 119 53 220 q53 101 115 165.5 q62 64.5 82 64.5 q12 0 12 -27 q0 -27 -41 -71 q-68 -73 -107 -171 q-39 -98 -39 -190 q0 -85 34 -137 Z" /><glyph glyph-name="" unicode=")" d="M200 583 q-4 -9 -8 -9 q-3 0 -3 11 q0 29 15 47.5 q15 18.5 32 18.5 q24 0 45 -41 q21 -41 21 -106 q0 -136 -88 -318 q-88 -182 -135 -182 q-11 0 -18.5 9 q-7.5 9 -7.5 22 q0 10 6 19 q77 119 119 238.5 q42 119.5 42 205.5 q0 60 -20 85 Z" /><glyph glyph-name="" unicode="*" d="M115 459 q-25 -17 -37 -27 q-27 -23 -40 -30.5 q-13 -7.5 -36 -7.5 q-9 0 -23 14.5 q-14 14.5 -14 27.5 q0 7 8 11 q8 4 37 13 q58 16 84 31 l-84 22 q-40 11 -43 14 q-3 3 -3 10 q0 9 16.5 32.5 q16.5 23.5 24.5 23.5 q17 0 111 -61 q0 36 -12 73 q-11 39 -11 45 q0 10 7 12.5 q7 2.5 23 2.5 q22 0 34.5 -9 q12.5 -9 12.5 -25 q0 -9 -7 -40 q-4 -21 -8 -60 q18 9 24 18 q29 37 45.5 56 q16.5 19 28.5 19 q11 0 26 -29.5 q15 -29.5 15 -41.5 q0 -16 -10 -19 q-80 -21 -106 -35 q100 -23 106.5 -26 q6.5 -3 6.5 -14 q0 -17 -16 -37 q-16 -20 -28 -20 q-3 0 -14 9 q-40 29 -74 48 q16 -93 16 -95 q0 -13 -7 -21 q-7 -8 -20 -8 q-55 0 -55 26 q0 3 3 8 q13 27 19 90 Z" /><glyph glyph-name="" unicode="+" d="M83 267 l0 77 l229 0 l0 230 l77 0 l0 -230 l230 0 l0 -77 l-230 0 l0 -227 l-77 0 l0 227 l-229 0 Z" /><glyph glyph-name="" unicode="," d="M90 -12 q-16 4 -20.5 7.5 q-4.5 3.5 -4.5 13.5 q0 20 31 54.5 q31 34.5 51 34.5 q18 0 18 -22 q0 -22 -23.5 -57 q-23.5 -35 -44.5 -53.5 q-21 -18.5 -28 -18.5 q-3 0 -3 3 q0 6 24 38 Z" /><glyph glyph-name="" unicode="-" d="M342 287 q17 4 20 4 l24 -4 q27 -3 27 -8 q0 -6 -25.5 -27 q-25.5 -21 -49.5 -28 q-24 -7 -70 -10.5 q-46 -3.5 -83 -3.5 q-35 0 -47.5 2 q-12.5 2 -12.5 9 q0 14 30.5 42.5 q30.5 28.5 114.5 28.5 q25 0 72 -5 Z" /><glyph glyph-name="" unicode="." d="M148 86 q0 -24 -25 -56 q-25 -32 -46 -32 q-8 0 -14 6.5 q-6 6.5 -6 17.5 q0 20 24 55 q24 35 46 35 q21 0 21 -26 Z" /><glyph glyph-name="" unicode="/" d="M73 -66 l-71 0 l207 740 l71 0 l-207 -740 Z" /><glyph glyph-name="" unicode="0" d="M433 567 q24 -11 34 -34.5 q10 -23.5 10 -67.5 q0 -106 -56.5 -217.5 q-56.5 -111.5 -137.5 -179 q-81 -67.5 -142 -67.5 q-56 0 -95.5 49 q-39.5 49 -39.5 127 q0 89 61 192.5 q61 103.5 151 171.5 q90 68 157 68 q54 0 58 -42 ZM321 471 l17 36 q-103 -46 -183.5 -164.5 q-80.5 -118.5 -80.5 -202.5 q0 -57 41 -57 q48 0 129 67 q81 67 133.5 156.5 q52.5 89.5 52.5 163.5 q0 47 -34 47 q-32 0 -75 -46 Z" /><glyph glyph-name="" unicode="1" d="M98 467 l0 40 q97 85 176 127 q26 -41 26 -76 q0 -20 -8 -45.5 q-8 -25.5 -55 -121.5 q-54 -112 -88 -212 q-34 -100 -30 -118 q7 -32 7 -44 q0 -13 -8 -15 q-18 0 -52 22 q-34 22 -34 62 q0 64 51.5 191 q51.5 127 130.5 251 q-55 -22 -116 -61 Z" /><glyph glyph-name="" unicode="2" d="M152 429 q48 -1 71.5 -6 q23.5 -5 23.5 -18 q0 -6 -10.5 -10 q-10.5 -4 -63 -14.5 q-52.5 -10.5 -61.5 -10.5 q-16 0 -16 24 q0 21 8.5 53 q8.5 32 23 61 q14.5 29 32 43.5 q17.5 14.5 65.5 30 q48 15.5 100 25 q52 9.5 87 9.5 q23 0 33 -4.5 q10 -4.5 26 -44.5 q16 -40 16 -81 q0 -51 -24.5 -87 q-24.5 -36 -65.5 -65 q-41 -29 -125 -81 q-205 -127 -218 -154 q47 4 128.5 19.5 q81.5 15.5 140.5 30 q59 14.5 60 14.5 q9 0 9 -12 q0 -31 -26 -70.5 q-26 -39.5 -92.5 -59.5 q-66.5 -20 -173.5 -20 q-31 0 -51 7 q-20 7 -32 44 q-12 37 -12 49 q0 23 23.5 59 q23.5 36 68.5 77 q45 41 104 75 l104 60 q46 27 58 34 q12 7 33.5 26.5 q21.5 19.5 32 35.5 q10.5 16 10.5 27 q0 15 -13.5 22 q-13.5 7 -28.5 7 q-49 0 -121 -26 q-72 -26 -124 -69 Z" /><glyph glyph-name="" unicode="3" d="M156 447 q-27 13 -27 46 q0 53 74 84 q74 31 185 31 q158 0 158 -114 q0 -26 -8 -45.5 q-8 -19.5 -24 -35 q-16 -15.5 -32.5 -25.5 q-16.5 -10 -79 -27 q-62.5 -17 -176.5 -41 q131 -12 171 -44.5 q40 -32.5 40 -77.5 q0 -44 -38.5 -95 q-38.5 -51 -121 -82.5 q-82.5 -31.5 -162.5 -31.5 q-65 0 -102 21 q-37 21 -37 52 q0 26 24.5 57 q24.5 31 42.5 31 q7 0 7 -7 q0 -5 -5 -11 q-5 -6 -5 -11 q0 -12 23 -20 q23 -8 62 -8 q90 0 171 39 q81 39 81 78 q0 30 -42 42.5 q-42 12.5 -117 12.5 q-60 0 -99 -10 q-7 0 -7 15 q0 22 11.5 50.5 q11.5 28.5 26 35.5 q14.5 7 65.5 15 q149 23 213.5 53.5 q64.5 30.5 64.5 62.5 q0 18 -24.5 28.5 q-24.5 10.5 -69.5 10.5 q-74 0 -128 -11.5 q-54 -11.5 -54 -23.5 q0 -6 5.5 -10.5 q5.5 -4.5 26.5 -11.5 q3 0 6 -3.5 q3 -3.5 3 -7.5 q0 -12 -102 -11 Z" /><glyph glyph-name="" unicode="4" d="M412 170 l-103 -22 q-15 -41 -19 -84 q13 -11 13 -25 q0 -10 -34.5 -34 q-34.5 -24 -46.5 -24 q-23 0 -23 35 q0 59 15 116 q-79 -8 -111 -8 q-26 0 -43.5 7 q-17.5 7 -29 40.5 q-11.5 33.5 -11.5 49.5 q0 34 41 95.5 q41 61.5 117 123 q76 61.5 175.5 115.5 q99.5 54 115.5 54 q24 0 24 -27 q0 -5 -10 -28 q16 -14 16 -28 q0 -20 -8 -37.5 q-8 -17.5 -46 -75.5 q-69 -104 -93 -158 q74 13 85 13 q22 0 22 -17 q0 -23 -46 -81 ZM256 239 q38 78 70.5 125.5 q32.5 47.5 94.5 119.5 q41 47 41 55 q0 9 -11 9 q-16 0 -162 -99 q-146 -99 -204 -225 q95 6 171 15 Z" /><glyph glyph-name="" unicode="5" d="M243 591 q75 -4 129 -4 q66 0 126 3 q-44 -93 -68 -109 q-20 -4 -95 -4 q-92 0 -109 1 q-54 -46 -88 -116 q94 31 137 31 q58 0 91.5 -33 q33.5 -33 33.5 -98 q0 -116 -108 -196.5 q-108 -80.5 -244 -80.5 q-52 0 -70.5 16 q-18.5 16 -18.5 54 q0 26 14.5 45.5 q14.5 19.5 52 36.5 q37.5 17 76.5 17 q6 0 6 -3 q0 -4 -8 -7 q-28 -10 -45 -20 q-17 -10 -17 -16 q0 -13 41 -13 q65 0 134.5 34.5 q69.5 34.5 107 73.5 q37.5 39 37.5 60 q0 19 -18.5 30.5 q-18.5 11.5 -52.5 11.5 q-46 0 -106 -17 q-44 -13 -58 -13 q-12 0 -26 23 q-14 23 -21 59 q30 106 167 234 Z" /><glyph glyph-name="" unicode="6" d="M366 585 l51 -3 q32 -2 42.5 -4 q10.5 -2 10.5 -8 q0 -7 -45 -31 q-83 -43 -153 -99 q-72 -57 -125 -125 q-28 -35 -28 -38 l1 0 q2 0 12 11 q47 48 84.5 69.5 q37.5 21.5 77.5 21.5 q47 0 74.5 -28 q27.5 -28 27.5 -79 q0 -53 -38.5 -122.5 q-38.5 -69.5 -97.5 -115.5 q-59 -46 -110 -46 q-56 0 -98 56.5 q-42 56.5 -42 123.5 q0 96 97.5 217.5 q97.5 121.5 258.5 199.5 ZM92 123 q0 -31 8 -43.5 q8 -12.5 27 -12.5 q28 0 78 39 q50 39 82 88 q32 49 32 93 q0 38 -31 38 q-20 0 -59 -24.5 q-39 -24.5 -77.5 -62 q-38.5 -37.5 -49 -63 q-10.5 -25.5 -10.5 -52.5 Z" /><glyph glyph-name="" unicode="7" d="M235 67 l7 -9 q-87 -68 -129 -68 q-40 0 -40 48 q0 66 91.5 201 q91.5 135 257.5 262 q-66 10 -120 10 q-111 0 -174 -42 q-13 -8 -14 -8 q-5 0 -11 5 q-6 5 -6 12 q0 7 19.5 37.5 q19.5 30.5 36 54 q16.5 23.5 31.5 29.5 q15 6 76.5 11.5 q61.5 5.5 125.5 5.5 q39 0 73.5 -2.5 q34.5 -2.5 39.5 -2.5 q20 -47 20 -82 q0 -11 -2.5 -18 q-2.5 -7 -17.5 -20 q-91 -79 -160 -164.5 q-69 -85.5 -101.5 -151.5 q-32.5 -66 -32.5 -101 q0 -13 9 -13 q6 0 21 6 Z" /><glyph glyph-name="" unicode="8" d="M304 324 q29 -54 39 -79.5 q10 -25.5 10 -55.5 q0 -72 -55 -130 q-55 -58 -135 -58 q-48 0 -80.5 21 q-32.5 21 -32.5 54 q0 35 41 92.5 q41 57.5 126 144.5 q-72 84 -72 153 q0 76 50 119 q50 43 132 55.5 q82 12.5 143 12.5 q48 0 68 -5 q20 -5 20 -20 q0 -12 -18 -44 q-18 -32 -28 -39.5 q-10 -7.5 -35 -7.5 q9 -15 9 -24 q0 -11 -12.5 -25 q-12.5 -14 -52.5 -50 q-72 -65 -117 -114 ZM275 366 q130 114 156 138 q26 24 26 28 q0 14 -64 14 q-79 0 -122.5 -22.5 q-43.5 -22.5 -43.5 -64.5 q0 -36 48 -93 ZM249 269 q-56 -58 -97 -112 q-41 -54 -41 -70 q0 -32 55 -32 q43 0 77.5 36 q34.5 36 34.5 87 q0 45 -29 91 Z" /><glyph glyph-name="" unicode="9" d="M388 357 q-82 -69 -129.5 -97 q-47.5 -28 -78.5 -28 q-28 0 -65.5 51 q-37.5 51 -37.5 102 q0 58 58 121.5 q58 63.5 142.5 110 q84.5 46.5 133.5 46.5 q32 0 62 -30 q30 -30 30 -54 q0 -20 -43 -57 q-43 -37 -56 -37 q-4 0 -4 2 q0 7 29 36 q16 16 16 26 q0 6 -7 6 q-11 0 -66 -23.5 q-55 -23.5 -109 -65.5 q-54 -42 -76 -81 q-22 -39 -22 -62 q0 -24 26 -24 q26 0 85.5 31 q59.5 31 93.5 65 q50 50 71.5 67 q21.5 17 39.5 17 q13 0 20.5 -7.5 q7.5 -7.5 7.5 -14.5 q0 -4 -115.5 -190.5 q-115.5 -186.5 -159 -230.5 q-43.5 -44 -71.5 -44 q-14 0 -14 19 q0 21 21.5 58 q21.5 37 47.5 34 q93 131 170 254 Z" /><glyph glyph-name="" unicode=":" d="M266 304 q0 -23 -30 -59.5 q-30 -36.5 -53 -36.5 q-24 0 -24 29 q0 22 30 56.5 q30 34.5 55 34.5 q11 0 16.5 -7.5 q5.5 -7.5 5.5 -16.5 ZM166 91 q0 -23 -29 -58 q-29 -35 -51 -35 q-24 0 -24 25 q0 27 32 56 q32 29 56 29 q16 0 16 -17 Z" /><glyph glyph-name="" unicode=";" d="M266 296 q0 -26 -28 -61.5 q-28 -35.5 -54 -35.5 q-11 0 -18.5 8.5 q-7.5 8.5 -7.5 21.5 q0 23 32.5 58 q32.5 35 55.5 35 q20 0 20 -26 ZM89 -9 q-30 1 -30 25 q0 22 31 54.5 q31 32.5 54 32.5 q19 0 19 -23 q0 -18 -21 -55.5 q-21 -37.5 -43 -57.5 q-22 -20 -32 -20 q-4 0 -4 3 q0 5 8 14 q12 14 18 27 Z" /><glyph glyph-name="" unicode="&lt;" d="M618 131 l0 -84 l-534 225 l0 69 l534 224 l0 -83 l-430 -175 l430 -176 Z" /><glyph glyph-name="" unicode="=" d="M84 384 l0 77 l534 0 l0 -77 l-534 0 ZM84 154 l0 77 l534 0 l0 -77 l-534 0 Z" /><glyph glyph-name="" unicode="&gt;" d="M84 482 l0 83 l534 -224 l0 -69 l-534 -225 l0 84 l430 175 l-430 176 Z" /><glyph glyph-name="" unicode="?" d="M283 568 q-29 0 -82.5 -12.5 q-53.5 -12.5 -53.5 -23.5 q0 -6 6 -8 q21 -9 27 -14 q6 -5 6 -12 q0 -6 -5 -6 q-3 0 -8 2 q-21 8 -48 8 q-23 0 -29.5 5 q-6.5 5 -6.5 20 q0 20 19.5 59.5 q19.5 39.5 82.5 58 q63 18.5 104 18.5 q41 0 66 -26 q25 -26 25 -71 q0 -125 -181 -317 q-9 -9 -14 -23 q-5 -14 -5 -21 l3 -29 q0 -8 -5 -12.5 q-5 -4.5 -10 -4.5 q-13 0 -27 21.5 q-14 21.5 -14 48.5 q0 36 39 86 q39 50 130 131 q33 29 42 42 q9 13 9 30 q0 50 -70 50 ZM103 3 q-11 0 -28.5 15.5 q-17.5 15.5 -17.5 37.5 q0 28 19.5 64 q19.5 36 32.5 36 q13 0 27 -19.5 q14 -19.5 14 -38.5 q0 -27 -17 -61 q-17 -34 -30 -34 Z" /><glyph glyph-name="" unicode="@" d="M603 25 q-65 -80 -150 -80 q-76 0 -126 62.5 q-50 62.5 -50 155.5 q0 78 36 153 q36 75 95 116.5 q59 41.5 125 41.5 q87 0 144 -89 l16 76 l88 0 l-70 -328 q-11 -52 -11 -74 q0 -20 8.5 -27 q8.5 -7 25.5 -7 q32 0 78 39 q46 39 77 100 q31 61 31 129 q0 85 -48 159.5 q-48 74.5 -129.5 113 q-81.5 38.5 -175.5 38.5 q-116 0 -213 -59 q-97 -59 -146 -160.5 q-49 -101.5 -49 -207.5 q0 -166 114 -268 q114 -102 320 -102 q108 0 196.5 38.5 q88.5 38.5 137.5 108.5 l88 0 q-59 -105 -170.5 -162 q-111.5 -57 -260.5 -57 q-232 0 -364.5 119.5 q-132.5 119.5 -132.5 311.5 q0 124 57.5 248 q57.5 124 166 192 q108.5 68 262.5 68 q119 0 215.5 -49.5 q96.5 -49.5 150.5 -136.5 q54 -87 54 -187 q0 -90 -44 -176.5 q-44 -86.5 -113.5 -135 q-69.5 -48.5 -135.5 -48.5 q-36 0 -64 15.5 q-28 15.5 -33 68.5 ZM368 158 q0 -64 28.5 -103 q28.5 -39 77.5 -39 q68 0 122 78.5 q54 78.5 54 166.5 q0 63 -31 102 q-31 39 -84 39 q-68 0 -117.5 -76.5 q-49.5 -76.5 -49.5 -167.5 Z" /><glyph glyph-name="" unicode="a" d="M435 201 q-71 -1 -105 -1 q-35 0 -97 1 q-121 -123 -181 -180.5 q-60 -57.5 -72 -64 q-12 -6.5 -23 -6.5 q-18 0 -18 16 q0 27 49.5 85 q49.5 58 80.5 58 q3 0 15 -5 l93 99 q-72 4 -83 8 q-11 4 -11 16 q0 16 27.5 48.5 q27.5 32.5 51.5 44.5 q24 12 94 12 q-67 -9 -67 -31 l34 0 q40 -1 52 1 q136 134 234 209.5 q98 75.5 204 131.5 q16 -20 16 -44 q0 -22 -9 -37 l-138 -246 q40 0 58.5 -1 q18.5 -1 21 -3 q2.5 -2 2.5 -8 q0 -7 -71 -94 l-72 -6 q-57 -106 -57 -121 q0 -20 21 -20 q11 0 85 43 l-4 -26 l-72 -55 q-35 -26 -53 -35 q-18 -9 -33 -9 q-19 0 -33 16 q-14 16 -14 41 q0 16 14 47.5 q14 31.5 60 115.5 ZM343 312 l158 3 q76 131 152 253 q-142 -89 -310 -256 Z" /><glyph glyph-name="" unicode="b" d="M275 330 l-25 -29 q138 -16 203.5 -47 q65.5 -31 65.5 -85 q0 -41 -49 -84 q-49 -43 -127.5 -72 q-78.5 -29 -144.5 -29 q-76 0 -116.5 28 q-40.5 28 -40.5 74 q0 36 26.5 82 q26.5 46 77.5 109 q-73 2 -73 38 q0 19 18 25.5 q18 6.5 125 18.5 q108 136 191 136 q7 0 7 -3 q0 -3 -29 -36 l-75 -85 q269 33 269 117 q0 60 -125 60 q-81 0 -173.5 -24 q-92.5 -24 -92.5 -34 q0 -4 9 -7 q15 -4 15 -12 q0 -7 -73 -29.5 q-73 -22.5 -99 -22.5 q-18 0 -18 18 q0 16 22.5 52 q22.5 36 46.5 62.5 q24 26.5 39 33 q15 6.5 86 26 q71 19.5 135 30 q64 10.5 115 10.5 q94 0 139 -33.5 q45 -33.5 45 -82.5 q0 -67 -85 -122.5 q-85 -55.5 -289 -82.5 ZM223 267 q-57 -67 -69.5 -84.5 q-12.5 -17.5 -12.5 -34.5 q0 -20 21.5 -41 q21.5 -21 69.5 -21 q69 0 137 33 q68 33 68 70 q0 27 -45.5 44 q-45.5 17 -168.5 34 Z" /><glyph glyph-name="" unicode="c" d="M630 156 l0 -32 q-133 -147 -230.5 -211 q-97.5 -64 -182.5 -64 q-73 0 -119 45 q-46 45 -46 130 q0 89 50.5 188.5 q50.5 99.5 157.5 217 q107 117.5 195 170.5 q88 53 147 53 q35 0 55.5 -26.5 q20.5 -26.5 20.5 -68.5 q0 -66 -50 -148.5 q-50 -82.5 -138.5 -166.5 q-88.5 -84 -124.5 -84 q-13 0 -26.5 10.5 q-13.5 10.5 -13.5 28.5 q0 42 61.5 107.5 q61.5 65.5 74.5 65.5 q4 0 4 -4 q0 -5 -6 -14 q-5 -11 -5 -14 q0 -3 3 -3 q8 0 49.5 46 q41.5 46 72.5 99 q31 53 31 85 q0 29 -24 29 q-44 0 -149.5 -95 q-105.5 -95 -186.5 -222.5 q-81 -127.5 -81 -216.5 q0 -60 27.5 -91.5 q27.5 -31.5 77.5 -31.5 q138 0 356 218 Z" /><glyph glyph-name="" unicode="d" d="M298 511 q-65 -7 -155.5 -39 q-90.5 -32 -90.5 -44 q0 -3 6 -2 q43 8 104 12 q-60 -18 -136 -52 q-11 -5 -20 -5 q-26 0 -26 33 q0 57 19.5 91.5 q19.5 34.5 103 70 q83.5 35.5 153.5 50 q70 14.5 124 14.5 q116 0 184 -62.5 q68 -62.5 68 -171.5 q0 -113 -88.5 -217 q-88.5 -104 -220 -156.5 q-131.5 -52.5 -230.5 -52.5 q-41 0 -50 11 q-9 11 -9 45 q0 45 26.5 102 q26.5 57 92 161 q65.5 104 145.5 212 ZM312 514 q4 -22 4 -30 q0 -11 -12 -30 q-93 -144 -148 -240.5 q-55 -96.5 -55 -115.5 q0 -23 55 -23 q97 0 199 45.5 q102 45.5 163 115.5 q61 70 61 144 q0 67 -51.5 102 q-51.5 35 -151.5 35 q-30 0 -64 -3 Z" /><glyph glyph-name="" unicode="e" d="M651 615 l0 -33 q0 -23 -8 -26 q-81 -36 -157 -84 q26 38 73 71 q-27 9 -61 9 q-62 0 -135 -25.5 q-73 -25.5 -118.5 -58 q-45.5 -32.5 -45.5 -54.5 q0 -19 45.5 -27.5 q45.5 -8.5 273.5 -10.5 q31 0 31 -22 q0 -20 -20.5 -42.5 q-20.5 -22.5 -44.5 -25.5 q-155 -20 -257.5 -86.5 q-102.5 -66.5 -102.5 -114.5 q0 -24 27 -37 q27 -13 77 -13 q173 0 353 156 q0 -69 -21.5 -109.5 q-21.5 -40.5 -74.5 -73.5 q-53 -33 -136 -56.5 q-83 -23.5 -162 -23.5 q-69 0 -111.5 35 q-42.5 35 -42.5 84 q0 87 97.5 159 q97.5 72 259.5 102 q13 3 13 9 q0 6 -15 6 q-175 0 -218 31 q-43 31 -43 83 q0 59 56 115.5 q56 56.5 157.5 89.5 q101.5 33 213.5 33 q35 0 56.5 -4 q21.5 -4 31 -11.5 q9.5 -7.5 9.5 -44.5 Z" /><glyph glyph-name="" unicode="f" d="M324 243 l74 0 q62 86 96.5 149 q34.5 63 34.5 85 q0 15 -10 20.5 q-10 5.5 -33 5.5 q-55 0 -211.5 -27.5 q-156.5 -27.5 -193.5 -59.5 q46 2 61 2 q39 0 39 -9 q0 -4 -27 -10 q-66 -15 -99 -29 q-21 -9 -27 -9 q-9 0 -17.5 8 q-8.5 8 -8.5 18 q0 23 35 90 q35 67 93 84.5 q58 17.5 178.5 39.5 q120.5 22 213.5 22 q55 0 77 -15 q22 -15 22 -51 q0 -34 -50 -128.5 q-50 -94.5 -112 -185.5 l75 0 l-65 -93 l-76 -3 q-100 -127 -202.5 -213 q-102.5 -86 -134.5 -86 q-11 0 -17 7.5 q-6 7.5 -6 14.5 q0 9 26.5 49 q26.5 40 64.5 64 q38 24 79 27 q50 53 116 132 l-147 -7 q-23 -1 -32.5 2 q-9.5 3 -9.5 16 q6 17 14 32.5 q8 15.5 12.5 18 q4.5 2.5 27.5 8.5 l90 22 q36 9 50 9 Z" /><glyph glyph-name="" unicode="g" d="M600 156 l0 -26 q-124 -107 -243 -185 q-43 -59 -93.5 -118.5 q-50.5 -59.5 -66.5 -68.5 q-16 -9 -32 -9 q-14 0 -23.5 10.5 q-9.5 10.5 -9.5 26.5 q0 79 161 174 q110 156 186 309 q-58 -49 -114.5 -90 q-56.5 -41 -77.5 -59 q-87 -74 -127 -74 q-40 0 -67.5 38 q-27.5 38 -27.5 95 q0 83 59 178.5 q59 95.5 165 165.5 q106 70 200.5 104 q94.5 34 138.5 34 q22 0 36 -17 q14 -17 14 -41 q0 -33 -24.5 -56 q-24.5 -23 -81.5 -54.5 q-57 -31.5 -67 -31.5 q-3 0 -3 2 q0 5 11 14 q36 28 47 41 q11 13 14 28 q-120 -35 -226 -112.5 q-106 -77.5 -160.5 -159.5 q-54.5 -82 -54.5 -121 q0 -17 10.5 -28.5 q10.5 -11.5 26.5 -11.5 q19 0 55.5 20 q36.5 20 155.5 118 q119 98 142 128 q26 34 48 34 q18 0 30 -11.5 q12 -11.5 12 -28.5 q0 -8 -50 -98.5 q-50 -90.5 -144 -240.5 q52 27 181 122 Z" /><glyph glyph-name="" unicode="h" d="M112 429 l-105 -56 q-27 -12 -33 -12 q-29 0 -29 39 q0 19 8 47.5 q8 28.5 20.5 45.5 q12.5 17 78.5 50 q66 33 140 58 q74 25 134 36.5 q60 11.5 108 11.5 q53 0 68.5 -17 q15.5 -17 15.5 -69 q0 -45 -49.5 -113 q-49.5 -68 -137.5 -163 q53 10 141 18 q89 129 142.5 202 q53.5 73 63 82 q9.5 9 15.5 9 q8 0 8 -20 q0 -19 -3.5 -31 q-3.5 -12 -12.5 -25 l-146 -216 q54 -1 108 -15 l-88 -119 q-40 5 -96 5 q-42 -79 -42 -105 q0 -9 4 -21 q4 -11 4 -16 q0 -14 -30 -30.5 q-30 -16.5 -49 -16.5 q-16 0 -16 28 q0 56 58 157 q-72 -4 -177 -23 q-93 -125 -103 -147 q-10 -22 -26 -22 q-12 0 -21 12 q-9 12 -9 27 q0 13 5 20 l67 97 q-14 -3 -28 -3 q-27 0 -44.5 9.5 q-17.5 9.5 -17.5 25.5 q0 24 19.5 49 q19.5 25 38.5 25 q7 0 19 -6 l126 32 q209 224 209 266 q0 14 -13 23 q-13 9 -33 9 q-48 0 -177 -50.5 q-129 -50.5 -132 -59.5 q0 -6 8 -8 q26 -3 26 -7 q0 -4 -17 -13 Z" /><glyph glyph-name="" unicode="i" d="M178 -14 l-30 22 q-5 4 -7 12 q0 6 23 44 q112 180 168 306.5 q56 126.5 56 157.5 q0 35 -27 35 q-31 0 -93.5 -42 q-62.5 -42 -100 -89.5 q-37.5 -47.5 -37.5 -78.5 q0 -9 11 -9 q13 0 38 14 q5 2 8 2 q4 0 4 -4 q0 -8 -36.5 -40.5 q-36.5 -32.5 -55.5 -32.5 q-16 0 -42.5 26.5 q-26.5 26.5 -26.5 47.5 q0 14 34.5 75.5 q34.5 61.5 89 113 q54.5 51.5 118.5 78.5 q64 27 94 27 q38 0 56.5 -29 q18.5 -29 18.5 -72 q0 -67 -52 -189 q-52 -122 -151 -276 q5 -12 5 -17 q0 -6 -7 -17 l-36 -59 q-6 -10 -12 -10 q-5 0 -10 4 Z" /><glyph glyph-name="" unicode="j" d="M382 119 l-130 -73 q-85 -144 -158 -237.5 q-73 -93.5 -99 -93.5 q-17 0 -26 11.5 q-9 11.5 -9 23.5 q0 54 60 133 q60 79 187 168 q100 192 140 322 q40 130 40 172 q0 18 -15 18 q-34 0 -95.5 -63 q-61.5 -63 -104 -161 q-42.5 -98 -42.5 -154 q0 -14 3 -23 q24 39 44 51.5 q20 12.5 25 13.5 q1 0 1 -2 q0 -6 -27 -39 q-27 -33 -42.5 -54.5 q-15.5 -21.5 -36 -35.5 q-20.5 -14 -32.5 -14 q-15 0 -19.5 13 q-4.5 13 -4.5 44 q0 113 50 234 q50 121 145.5 193.5 q95.5 72.5 145.5 72.5 q32 0 49.5 -20 q17.5 -20 17.5 -56 q0 -30 -9 -63 l-36 -119 q-25 -85 -49 -138 q-24 -53 -73 -146 l100 54 l0 -32 Z" /><glyph glyph-name="" unicode="k" d="M282 259 l248 -168 q51 -34 66 -55 q15 -21 15 -53 q0 -17 -5 -28 q-5 -11 -13 -11 q-5 0 -32 17.5 q-27 17.5 -68 44.5 l-264 177 l-78 -103 q0 -14 -5.5 -23 q-5.5 -9 -29.5 -32 q-24 -23 -38 -31.5 q-14 -8.5 -25 -8.5 q-17 0 -17 21 q0 14 13 31 l143 178 q-13 22 -13 41 q0 20 13 37 q13 17 41 32 l72 39 q101 134 101 149 q0 11 -13 11 q-31 0 -156 -55 q-125 -55 -195 -92 q-8 -4 -17 -4 q-12 0 -19.5 7.5 q-7.5 7.5 -7.5 21.5 q0 5 4 16 q6 14 11 34 q8 34 14 46.5 q6 12.5 26.5 32 q20.5 19.5 47.5 33.5 q27 14 36 14 q4 0 4 -2 q0 -2 -3 -4 q-25 -17 -44 -43 q138 49 207.5 69.5 q69.5 20.5 111.5 20.5 q23 0 38 -30 q15 -30 15 -43 q0 -11 -11 -28 l-78 -117 q158 78 251.5 129 q93.5 51 105.5 51 q8 0 8 -10 q0 -10 -33 -54.5 q-33 -44.5 -55 -44.5 q-7 0 -18 4 q-166 -86 -312 -154 l-42 -63 Z" /><glyph glyph-name="" unicode="l" d="M532 370 l15 -15 q-37 -47 -68 -71.5 q-31 -24.5 -46 -24.5 q-12 0 -12 21 q0 48 69 161 q39 63 48.5 80.5 q9.5 17.5 9.5 24.5 q0 9 -8 9 q-19 0 -112.5 -113.5 q-93.5 -113.5 -218.5 -300.5 q60 -6 92 -13 q32 -7 136 -36 q78 -22 117 -26 q-38 -44 -60 -66.5 q-22 -22.5 -27.5 -26.5 q-5.5 -4 -18.5 -4 q-22 0 -124 25 q-148 37 -213 37 q-27 0 -42 -6 q-78 -33 -96 -33 q-20 0 -20 16 q0 9 8 21 l23 38 q16 26 31.5 40.5 q15.5 14.5 36 21 q20.5 6.5 47.5 10 q27 3.5 59 3.5 q151 235 269.5 371.5 q118.5 136.5 172.5 136.5 q15 0 25 -10 q10 -10 10 -27 q0 -59 -103 -243 Z" /><glyph glyph-name="" unicode="m" d="M844 156 l0 -34 q-168 -157 -233 -157 q-36 0 -59 26.5 q-23 26.5 -23 69.5 q0 67 41 141.5 q41 74.5 127 168.5 q41 45 41 56 q0 5 -8 5 q-12 0 -74.5 -56 q-62.5 -56 -129 -130.5 q-66.5 -74.5 -206.5 -248.5 q-9 -10 -18 -10 q-12 0 -22.5 24.5 q-10.5 24.5 -10.5 54.5 q0 25 10 46.5 q10 21.5 55 80.5 q89 119 131.5 194 q42.5 75 42.5 101 q0 13 -9 13 q-17 0 -70 -51.5 q-53 -51.5 -129 -150.5 q-76 -99 -154 -221 q-27 -46 -38.5 -60 q-11.5 -14 -24.5 -14 q-15 0 -31 35 q-16 35 -16 60 q0 7 6 16 q241 320 241 404 q0 21 -20 21 q-26 0 -147 -75 q-114 -71 -144 -71 q-16 0 -16 18 q0 12 6.5 47.5 q6.5 35.5 14 50.5 q7.5 15 31 36 q23.5 21 46 35.5 q22.5 14.5 26.5 14.5 q2 0 2 -2 q0 -4 -6 -8 q-38 -29 -42 -49 q94 56 164 83 q70 27 94 27 q18 0 36.5 -34.5 q18.5 -34.5 18.5 -57.5 q0 -49 -101 -250 q147 190 228 252 q81 62 104 62 q16 0 30 -19 q14 -19 14 -41 q0 -41 -167 -317 q84 93 153 162 q69 69 147 134.5 q78 65.5 86.5 68 q8.5 2.5 14.5 2.5 q11 0 31 -28.5 q20 -28.5 20 -38.5 q0 -11 -10.5 -24.5 q-10.5 -13.5 -48.5 -52.5 q-96 -103 -155 -209 q-59 -106 -59 -162 q0 -23 8.5 -32 q8.5 -9 26.5 -9 q20 0 54.5 20 q34.5 20 120.5 83 Z" /><glyph glyph-name="" unicode="n" d="M585 119 q-57 -59 -103 -98.5 q-46 -39.5 -76 -56.5 q-30 -17 -53 -17 q-26 0 -41 17 q-15 17 -15 45 q0 58 45 148.5 q45 90.5 139 226.5 q43 61 43 79 q0 10 -11 10 q-35 0 -143.5 -113 q-108.5 -113 -257.5 -318 q-14 -20 -26 -20 q-12 0 -31 19 q-19 19 -19 28 q0 11 27 51 q83 124 150.5 249.5 q67.5 125.5 67.5 149.5 q0 9 -7 14 q-7 5 -13 5 q-20 0 -95 -32.5 q-75 -32.5 -149 -76.5 q-43 -27 -57 -27 q-11 0 -11 19 q0 32 33 78.5 q33 46.5 85.5 87 q52.5 40.5 63.5 40.5 q4 0 4 -1 q0 -1 -1 -2 q-35 -28 -53 -56 q101 51 150 72 q49 21 83 21 q64 0 64 -51 q0 -15 -7.5 -35.5 q-7.5 -20.5 -31 -65 q-23.5 -44.5 -81.5 -144.5 l-125 -215 q205 255 320 359.5 q115 104.5 152 104.5 q9 0 24.5 -28 q15.5 -28 15.5 -47 q0 -34 -14 -61.5 q-14 -27.5 -51 -78.5 q-103 -141 -139.5 -205.5 q-36.5 -64.5 -36.5 -104.5 q0 -33 34 -33 q46 0 146 101 l1 -38 Z" /><glyph glyph-name="" unicode="o" d="M377 501 q51 15 82 15 q40 0 64 -26 q24 -26 24 -71 q0 -67 -49 -175.5 q-49 -108.5 -136.5 -182.5 q-87.5 -74 -178.5 -74 q-64 0 -104 52.5 q-40 52.5 -40 141.5 q0 97 68.5 201.5 q68.5 104.5 169 176.5 q100.5 72 161.5 72 q34 0 53 -21 q19 -21 35 -69 q-83 -2 -149 -40 ZM254 402 q-60 -67 -103.5 -157.5 q-43.5 -90.5 -43.5 -135.5 q0 -73 68 -73 q51 0 126.5 66 q75.5 66 128.5 157 q53 91 53 159 q0 54 -43 54 q-52 0 -117.5 -49.5 q-65.5 -49.5 -117.5 -137.5 q9 46 49 117 Z" /><glyph glyph-name="" unicode="p" d="M210 290 l149 222 q-124 -3 -320 -87 q-9 2 -9 7 q0 9 24 54 q24 45 51 89 q170 61 302 61 q134 0 194 -49 q60 -49 60 -141 q0 -83 -48 -157 q-48 -74 -142 -118.5 q-94 -44.5 -217 -44.5 q-38 0 -78 4 l-44 -80 q7 -13 7 -22 q0 -10 -12.5 -29 q-12.5 -19 -29.5 -43 q-17 -24 -25 -31 q-8 -7 -14 -7 q-12 0 -17 7 q-5 7 -5 25 q0 40 85 192 q-48 20 -48 53 q0 27 34 53 q34 26 103 42 ZM261 277 l-28 -47 q40 -2 69 -2 q65 0 118 15.5 q53 15.5 97.5 47.5 q44.5 32 67.5 71 q23 39 23 70 q0 45 -49.5 63 q-49.5 18 -171.5 18 q1 -7 1 -13 q0 -25 -27 -67 l-85 -133 l64 7 q8 1 8 -6 q0 -7 -13 -10 l-74 -14 Z" /><glyph glyph-name="" unicode="q" d="M135 341 l0 43 q0 55 29.5 85 q29.5 30 157.5 88 q128 58 218 58 q65 0 98 -31 q33 -31 33 -80 q0 -159 -415 -385 q31 -4 100 -18 q108 -23 161 -23 q41 0 93 13 q-34 -76 -53 -104 q-19 -28 -59 -28 q-43 0 -82 4.5 q-39 4.5 -128 22.5 q-81 16 -117 21.5 q-36 5.5 -68 3.5 q-39 -26 -54 -26 q-20 0 -20 22 q0 20 15 49 q15 29 29 41.5 q14 12.5 41.5 19 q27.5 6.5 75.5 7.5 q152 84 244.5 162.5 q92.5 78.5 130 134.5 q37.5 56 37.5 79 q0 20 -32 20 q-133 0 -348 -141 q33 3 65 3 q37 0 37 -14 q0 -8 -11 -9 q-58 -10 -101 -32 q-38 -19 -52 -19 q-25 0 -25 33 Z" /><glyph glyph-name="" unicode="r" d="M379 45 l-184 90 q-70 -95 -79 -127 q-6 -23 -26.5 -37.5 q-20.5 -14.5 -34.5 -14.5 q-19 0 -19 19 q0 11 30 62.5 q30 51.5 81 119.5 q-25 9 -33 14 q-8 5 -8 12 q0 17 19 45 q19 28 35.5 33.5 q16.5 5.5 76.5 12.5 q51 72 154 207 q-120 -19 -159.5 -28 q-39.5 -9 -39.5 -17 q0 -7 20 -7 q52 0 52 -9 q0 -3 -7 -4 q-7 -1 -81 -4 q-74 -3 -75 -3 q-10 0 -17 7 q-7 7 -7 16 q0 25 34.5 75 q34.5 50 143.5 76.5 q109 26.5 219 26.5 q120 0 199.5 -33 q79.5 -33 79.5 -110 q0 -41 -22 -82.5 q-22 -41.5 -65 -72.5 q-43 -31 -164.5 -55.5 q-121.5 -24.5 -263.5 -31.5 q145 -54 230.5 -91.5 q85.5 -37.5 116 -56.5 q30.5 -19 34 -33 q3.5 -14 3.5 -46 q0 -27 -3.5 -46 q-3.5 -19 -16.5 -19 q-12 0 -50 23 q-38 23 -173 89 ZM422 486 q2 -7 2 -13 q0 -26 -34 -74.5 q-34 -48.5 -87 -113.5 q233 44 311.5 80.5 q78.5 36.5 78.5 71.5 q0 27 -50 41 q-50 14 -125 14 q-48 0 -96 -6 Z" /><glyph glyph-name="" unicode="s" d="M513 141 q-36 66 -155 86 q-68 12 -125 35.5 q-57 23.5 -70 38.5 q-13 15 -13 31 q0 73 35 131.5 q35 58.5 141 91 q106 32.5 230 32.5 q52 0 82.5 -7.5 q30.5 -7.5 41 -16 q10.5 -8.5 10.5 -24.5 q0 -30 -8.5 -50.5 q-8.5 -20.5 -20 -27.5 q-11.5 -7 -43.5 -19 q-30 -10 -44.5 -17 q-14.5 -7 -47.5 -28 q-14 -9 -20 -11 q-5 0 -5 4 q0 9 16 24.5 q16 15.5 44 30.5 q27 14 27 19 q0 5 -37 5 q-133 0 -229 -35 q-96 -35 -96 -77 q0 -8 5.5 -15.5 q5.5 -7.5 12.5 -9.5 l112 -33 q56 -16 101 -37 q45 -21 71 -42 q26 -21 37 -41.5 q11 -20.5 11 -43.5 q0 -43 -34.5 -91 q-34.5 -48 -136 -74.5 q-101.5 -26.5 -208.5 -26.5 q-88 0 -137.5 17 q-49.5 17 -49.5 48 q0 30 28.5 63 q28.5 33 66.5 33 q25 0 25 -5 q0 -2 -12 -6 q-17 -7 -22 -9.5 q-5 -2.5 -5 -7.5 q0 -10 87 -10 q113 0 167 7 q54 7 94.5 24 q40.5 17 73.5 44 Z" /><glyph glyph-name="" unicode="t" d="M399 97 l16 -12 q-36 -73 -61 -104 q-25 -31 -47 -31 q-14 0 -23.5 11 q-9.5 11 -9.5 29 q0 55 79.5 190.5 q79.5 135.5 230.5 326.5 q-38 7 -88 7 q-71 0 -153 -13.5 q-82 -13.5 -150.5 -35.5 q-68.5 -22 -68.5 -32 q0 -4 15 -6 q67 -8 67 -19 q0 -5 -42 -5 q-79 0 -91.5 4.5 q-12.5 4.5 -12.5 27.5 q0 26 16.5 80.5 q16.5 54.5 62.5 81 q46 26.5 147 42.5 q101 16 179 16 q47 0 77 -4.5 q30 -4.5 46 -11.5 q16 -7 21.5 -15 q5.5 -8 14.5 -34 l15 -45 q5 -15 5 -24 q0 -22 -38 -71 q-36 -45 -109.5 -172 q-73.5 -127 -97.5 -181 Z" /><glyph glyph-name="" unicode="u" d="M557 420 q-176 -193 -279.5 -293.5 q-103.5 -100.5 -122.5 -112.5 q-19 -12 -40 -12 q-30 0 -48.5 23 q-18.5 23 -18.5 63 q0 29 22.5 74 q22.5 45 59 94.5 q36.5 49.5 134.5 166.5 q58 69 58 84 q0 7 -8 7 q-36 0 -180 -91 q-39 -25 -81 -42 q-42 -17 -59 -17 q-23 0 -23 19 q0 26 39 98.5 q39 72.5 155 120.5 q116 48 196 48 q41 0 53 -14.5 q12 -14.5 12 -41.5 q0 -23 -8.5 -54 q-8.5 -31 -45.5 -85 q-37 -54 -106 -143 q-29 -38 -65 -92 q-36 -54 -40 -63.5 q-4 -9.5 -4 -17.5 q0 -17 18 -17 q8 0 18 4.5 q10 4.5 76 62.5 q66 58 128 123 q62 65 154 171 q81 93 95 106.5 q14 13.5 24 13.5 q11 0 19 -16 q8 -16 8 -39 q0 -26 -11.5 -46.5 q-11.5 -20.5 -76.5 -116.5 q-67 -98 -106.5 -175 q-39.5 -77 -39.5 -110 q0 -36 32 -36 q35 0 152 92 l-1 -34 q-137 -140 -201 -140 q-76 0 -76 73 q0 56 48 144.5 q48 88.5 140 220.5 Z" /><glyph glyph-name="" unicode="v" d="M404 392 q-4 12 -4 24 q0 18 10 38.5 q10 20.5 35 54.5 q25 34 32 39 q7 5 14 5 q18 0 18 -22 q0 -35 -40 -121.5 q-40 -86.5 -120.5 -207.5 q-80.5 -121 -136.5 -188.5 q-56 -67.5 -81 -67.5 q-30 0 -59.5 43.5 q-29.5 43.5 -29.5 92.5 q0 52 46 155.5 q46 103.5 123 223.5 q25 38 25 45 q0 5 -10 5 q-22 0 -57 -18 q-35 -18 -99.5 -66 q-64.5 -48 -75 -58.5 q-10.5 -10.5 -10.5 -13.5 q0 -6 9 -6 q2 0 16 2 q34 4 46 4 q22 0 22 -9 q0 -4 -5.5 -7.5 q-5.5 -3.5 -30.5 -9.5 q-47 -12 -64.5 -18 q-17.5 -6 -38.5 -16 q-34 -14 -38 -14 q-9 0 -11.5 9.5 q-2.5 9.5 -2.5 26.5 q0 62 24 101.5 q24 39.5 100 91 q76 51.5 160.5 88 q84.5 36.5 121.5 36.5 q20 0 40.5 -27.5 q20.5 -27.5 20.5 -54.5 q0 -8 -44 -75 q-63 -93 -126.5 -225 q-63.5 -132 -63.5 -174 q0 -22 26 -41 q96 67 259 355 Z" /><glyph glyph-name="" unicode="w" d="M434 312 q-122 -148 -208.5 -239 q-86.5 -91 -125.5 -91 q-24 0 -40.5 28 q-16.5 28 -16.5 69 q0 71 115 193 q92 99 124 140.5 q32 41.5 32 56.5 q0 25 -39 25 q-30 0 -79.5 -20.5 q-49.5 -20.5 -139.5 -71.5 q-73 -41 -81 -41 q-13 0 -13 14 q0 13 11.5 58.5 q11.5 45.5 20.5 63 q9 17.5 36.5 36 q27.5 18.5 90.5 51.5 l5 -18 q92 38 162 38 q47 0 72.5 -18.5 q25.5 -18.5 25.5 -84.5 q0 -35 -10 -59 q-10 -24 -59 -93 q-49 -69 -83 -109 q-100 -116 -100 -133 q0 -3 4.5 -6.5 q4.5 -3.5 9.5 -3.5 q15 0 48.5 29 q33.5 29 127.5 131.5 q94 102.5 155 182.5 q54 70 82 90 q28 20 36 20 q8 0 20 -23 q12 -23 12 -36 q0 -8 -81 -137 q-64 -101 -100.5 -171.5 q-36.5 -70.5 -36.5 -93.5 q0 -20 15 -20 q38 0 117.5 90 q79.5 90 159.5 254 q-10 35 -10 40 q0 8 29.5 48 q29.5 40 37.5 40 q9 0 16.5 -13.5 q7.5 -13.5 7.5 -28.5 q0 -39 -41 -142 q-41 -103 -102.5 -196 q-61.5 -93 -125.5 -142.5 q-64 -49.5 -89 -49.5 q-22 0 -53 25 q-31 25 -31 77 q0 45 26.5 107.5 q26.5 62.5 65.5 133.5 Z" /><glyph glyph-name="" unicode="x" d="M354 298 l5 219 q-94 -14 -171 -63 q-77 -49 -77 -59 q0 -5 14 -5 l41 3 q6 0 6 -3 q0 -2 -6 -6 q-6 -4 -58 -22 q-52 -18 -67 -18 q-8 0 -8 8 q0 28 19.5 76.5 q19.5 48.5 71.5 88.5 q52 40 137 73.5 q85 33.5 151 33.5 q47 0 47 -41 l-4 -66 q-2 -40 -4 -113 l91 99 q35 40 57.5 63 q22.5 23 33.5 23 q17 0 17 -15 q0 -20 -40 -91 q-15 -7 -36 -12 l-130 -148 l-16 -265 q0 -26 20 -26 q14 0 33.5 10.5 q19.5 10.5 72.5 45.5 q3 2 6 2 q9 0 9 -9 q0 -13 -38.5 -56.5 q-38.5 -43.5 -76 -65.5 q-37.5 -22 -64.5 -22 q-26 0 -34 19 q-8 19 -8 91 q0 7 4 169 q-90 -95 -153 -175 q-50 -65 -83 -85 q-33 -20 -46 -20 q-16 0 -16 23 q0 34 36.5 82.5 q36.5 48.5 102.5 77.5 l161 179 Z" /><glyph glyph-name="" unicode="y" d="M-62 340 l9 57 q6 41 28 64.5 q22 23.5 101.5 79 q79.5 55.5 137 81.5 q57.5 26 96.5 26 q46 0 46 -40 q0 -22 -15 -51 l-48 -94 q-52 -101 -72.5 -140.5 q-20.5 -39.5 -49 -88.5 q-28.5 -49 -31 -55.5 q-2.5 -6.5 -2.5 -12.5 q0 -7 6.5 -15 q6.5 -8 14.5 -8 q8 0 17.5 5.5 q9.5 5.5 53 47 q43.5 41.5 98.5 108 q55 66.5 105 134.5 q47 61 61 75 q14 14 21 14 q7 0 19 -15 l12 -15 q13 -17 13 -27 q0 -9 -36 -72 q-129 -210 -205 -426 q122 92 150 108.5 q28 16.5 40 16.5 q10 0 10 -9 q0 -13 -19 -37 q-19 -24 -75 -83 q-69 -72 -91.5 -94 q-22.5 -22 -77.5 -104 q-15 -25 -35 -25 q-16 0 -25 15 q-9 15 -9 33 q0 19 19 76.5 q19 57.5 51 131.5 q32 74 66 139 q34 65 100 179 l49 85 q-74 -100 -154 -194 q-80 -94 -134 -147 q-54 -53 -71.5 -66 q-17.5 -13 -29.5 -13 q-16 0 -33.5 14.5 q-17.5 14.5 -17.5 44.5 q0 12 4.5 28.5 q4.5 16.5 50 106 q45.5 89.5 69.5 128.5 q108 174 108 195 q0 15 -17 15 q-16 0 -38 -15.5 q-22 -15.5 -113 -88.5 q-50 -39 -99 -71.5 q-49 -32.5 -55 -32.5 q-5 0 -5 9 q0 7 2 23 Z" /><glyph glyph-name="" unicode="z" d="M79 -280 l-17 16 q-15 15 -15 31 q0 43 98.5 140.5 q98.5 97.5 279.5 189.5 q-4 33 -17.5 46.5 q-13.5 13.5 -49.5 13.5 q-31 0 -102 -31 q-71 -31 -120 -72 q-22 -17 -29 -17 q-11 0 -11 18 q0 24 18 63 q18 39 50.5 63 q32.5 24 85.5 48 q116 56 185.5 115.5 q69.5 59.5 69.5 85.5 q0 19 -41 19 q-67 0 -172.5 -46.5 q-105.5 -46.5 -242.5 -151.5 q4 87 17.5 129.5 q13.5 42.5 39 67.5 q25.5 25 99.5 66 q74 41 137.5 63 q63.5 22 114.5 22 q60 0 95 -30.5 q35 -30.5 35 -85.5 q0 -61 -46.5 -113.5 q-46.5 -52.5 -186.5 -122.5 q65 -1 94.5 -28.5 q29.5 -27.5 37.5 -92.5 l64 27 l0 -37 l-67 -31 q-24 -104 -98 -189.5 q-74 -85.5 -158 -135 q-84 -49.5 -126 -49.5 q-12 0 -22 9 ZM412 47 q-108 -47 -200.5 -140.5 q-92.5 -93.5 -92.5 -119.5 q0 -9 14 -9 q50 0 156 95 q106 95 123 174 Z" /><glyph glyph-name="" unicode="[" d="M395 664 q33 -4 75 -4 q43 0 101 4 q-32 -77 -49.5 -96 q-17.5 -19 -42.5 -19 q-22 0 -73 13 q-95 -171 -147.5 -253 q-52.5 -82 -119 -201 q-66.5 -119 -88.5 -202 q50 18 88 18 q39 0 77 -21 q-59 -84 -77 -154 q-30 21 -72 21 q-33 0 -76 -12 q-21 -6 -26 -6 q-12 0 -19.5 15.5 q-7.5 15.5 -7.5 40.5 q0 56 40.5 140 q40.5 84 224.5 380 q124 205 192 336 Z" /><glyph glyph-name="" unicode="\" d="M280 -66 l-71 0 l-207 740 l71 0 l207 -740 Z" /><glyph glyph-name="" unicode="]" d="M266 670 q28 -21 76 -21 q34 0 63 11 q20 7 32 7 q31 0 31 -52 q0 -43 -24.5 -106.5 q-24.5 -63.5 -72.5 -143.5 l-171 -283 q-124 -203 -189 -325 q-57 3 -95 3 q-49 0 -82 -5 q24 60 43.5 87.5 q19.5 27.5 52.5 27.5 q22 0 70 -12 q61 107 134 231 l129 220 q55 95 70.5 132.5 q15.5 37.5 22.5 72.5 q-54 -19 -86 -19 q-34 0 -80 22 q54 82 76 153 Z" /><glyph glyph-name="" unicode="^" d="M233 551 l-117 -292 l-90 0 l173 391 l70 0 l174 -391 l-89 0 l-121 292 Z" /><glyph glyph-name="" unicode="_" d="M-6 -125 l0 50 l512 0 l0 -50 l-512 0 Z" /><glyph glyph-name="" unicode="`" d="M279 466 q0 -21 -20 -21 q-21 0 -62 58.5 q-41 58.5 -41 79.5 q0 21 31 21 q30 0 45.5 -20 q15.5 -20 31 -59.5 q15.5 -39.5 15.5 -58.5 Z" /><glyph glyph-name="" unicode="a" d="M276 147 q-77 -86 -109.5 -116 q-32.5 -30 -50.5 -30 q-23 0 -47.5 44.5 q-24.5 44.5 -24.5 80.5 q0 37 23 72 q23 35 92.5 85.5 q69.5 50.5 118 70.5 q48.5 20 82.5 20 q12 0 24 -16.5 q12 -16.5 12 -29.5 q0 -13 -30 -22 q20 -39 20 -53 q0 -12 -24 -44 q-28 -37 -35 -50.5 q-7 -13.5 -7 -33.5 q0 -37 29 -37 q38 0 111 65 l0 -30 q-123 -137 -177 -137 q-21 0 -28 13.5 q-7 13.5 -7 39.5 q0 36 28 108 ZM341 295 q-113 -51 -174 -93.5 q-61 -42.5 -61 -88.5 q0 -35 20 -35 q17 0 68 40.5 q51 40.5 147 176.5 Z" /><glyph glyph-name="" unicode="b" d="M349 153 l0 -32 q-51 -32 -84 -32 q-14 0 -30 5 q-43 -53 -74.5 -80 q-31.5 -27 -62.5 -27 q-37 0 -57 34.5 q-20 34.5 -20 93.5 q0 107 77 231 q77 124 170.5 212.5 q93.5 88.5 125.5 88.5 q19 0 19 -30 q0 -127 -328 -446 q-1 -16 -1 -30 q0 -72 36 -72 q14 0 29.5 13 q15.5 13 43.5 42 q-11 18 -11 38 q0 41 45.5 88.5 q45.5 47.5 67.5 47.5 q19 0 19 -28 q0 -45 -45 -124 q14 -14 30 -14 q20 0 50 21 ZM101 226 q51 46 121 136 q70 90 102 142.5 q32 52.5 32 67.5 q0 5 -4 5 q-13 0 -56.5 -46.5 q-43.5 -46.5 -110 -145.5 q-66.5 -99 -84.5 -159 Z" /><glyph glyph-name="" unicode="c" d="M317 153 l0 -33 q-39 -40 -98 -89.5 q-59 -49.5 -103 -49.5 q-44 0 -71.5 48 q-27.5 48 -27.5 102 q0 30 10 51 q10 21 57.5 70 q47.5 49 94.5 78 q47 29 69 29 q18 0 29.5 -11 q11.5 -11 11.5 -29 q0 -31 -32.5 -75 q-32.5 -44 -50.5 -44 q-13 0 -13 14 l1 11 q0 10 -5 10 q-5 0 -46 -29.5 q-41 -29.5 -55 -46.5 q-14 -17 -14 -34 q0 -29 17.5 -46.5 q17.5 -17.5 47.5 -17.5 q33 0 76 23 q43 23 102 69 Z" /><glyph glyph-name="" unicode="d" d="M231 153 q-56 -65 -102 -108 q-46 -43 -59 -43 q-19 0 -43 44 q-24 44 -24 93 q0 43 43 91 q43 48 103 82 q60 34 92 34 q23 0 47 -30 q56 118 100.5 189 q44.5 71 60.5 71 q11 0 20 -10 q9 -10 9 -24 q0 -18 -19.5 -54.5 q-19.5 -36.5 -90.5 -153.5 q-46 -76 -67 -127.5 q-21 -51.5 -21 -92.5 q0 -44 28 -44 q18 0 46 21 q28 21 71 63 l0 -36 q-106 -136 -163 -136 q-43 0 -43 70 q0 47 12 101 ZM267 272 q-49 -17 -107.5 -50 q-58.5 -33 -68 -44.5 q-9.5 -11.5 -17 -35.5 q-7.5 -24 -7.5 -39 q0 -19 17 -19 q5 0 10.5 3 q5.5 3 43.5 35 l70 60 q31 28 42 45.5 q11 17.5 17 44.5 Z" /><glyph glyph-name="" unicode="e" d="M86 136 l0 -12 q0 -29 13.5 -45 q13.5 -16 37.5 -16 q37 0 74.5 23.5 q37.5 23.5 88.5 67.5 l0 -30 q-114 -137 -202 -137 q-44 0 -69 35.5 q-25 35.5 -25 95.5 q0 51 37.5 107 q37.5 56 97.5 94.5 q60 38.5 104 38.5 q24 0 38 -11 q14 -11 14 -31 q0 -94 -209 -180 ZM91 168 q66 27 101 66.5 q35 39.5 35 58.5 q0 11 -11 11 q-22 0 -68.5 -41.5 q-46.5 -41.5 -56.5 -94.5 Z" /><glyph glyph-name="" unicode="f" d="M280 154 l0 -34 q-54 -55 -86 -69 q0 -64 -11.5 -106 q-11.5 -42 -44 -89.5 q-32.5 -47.5 -67.5 -76.5 q-35 -29 -57 -29 q-19 0 -35 32 q-16 32 -16 77 q0 41 14.5 91 q14.5 50 47.5 130 q-24 32 -24 62 q0 23 11 36.5 q11 13.5 38 25.5 q22 37 74 96 q43 106 86 185 q43 79 56.5 97 q13.5 18 21.5 18 q9 0 15 -13 q6 -13 6 -34 q0 -37 -19 -79 q-19 -42 -103 -181 q-63 -105 -74 -128 q49 -40 68 -79 q29 9 99 68 ZM133 33 q-38 -3 -72 16 q-37 -84 -37 -153 q0 -33 9 -51.5 q9 -18.5 22 -18.5 q13 0 38 33.5 q25 33.5 34 88 q9 54.5 6 85.5 Z" /><glyph glyph-name="" unicode="g" d="M404 121 l-162 -133 q-67 -115 -124 -175.5 q-57 -60.5 -84 -60.5 q-15 0 -15 19 q0 37 40.5 97 q40.5 60 142.5 138 q53 109 70 152 q-134 -145 -194 -145 q-25 0 -46 40 q-21 40 -21 76 q0 80 108 160 q108 80 166 80 q31 0 31 -23 q0 -15 -18 -32 q-18 -17 -50 -30 q-63 -25 -118 -78 q-55 -53 -55 -94 q0 -28 24 -28 q25 0 73 43.5 q48 43.5 82 85.5 q35 45 55.5 63.5 q20.5 18.5 36.5 18.5 q21 0 21 -26 q0 -17 -13 -52 q-13 -35 -68 -150 l118 86 l0 -32 Z" /><glyph glyph-name="" unicode="h" d="M373 154 l0 -31 q-124 -127 -167 -127 q-38 0 -38 45 q0 35 22 81.5 q22 46.5 70 114.5 q-30 -16 -61.5 -46 q-31.5 -30 -101.5 -118 q-22 -27 -35 -43.5 q-13 -16.5 -24 -16.5 q-38 0 -38 94 q0 75 45 144.5 q45 69.5 112.5 165.5 q67.5 96 125.5 162.5 q58 66.5 77 66.5 q4 0 21 -4 q17 -4 17 -16 q0 -28 -115 -185 q-115 -157 -215 -267 l0 -59 q83 95 150.5 154 q67.5 59 92.5 59 q13 0 26.5 -15.5 q13.5 -15.5 13.5 -29.5 q0 -7 -4 -12 q-67 -83 -83.5 -110 q-16.5 -27 -16.5 -47 q0 -23 22 -23 q23 0 104 63 Z" /><glyph glyph-name="" unicode="i" d="M226 373 q-15 0 -24 9.5 q-9 9.5 -9 23.5 q0 22 21 47.5 q21 25.5 42 25.5 q15 0 24.5 -9.5 q9.5 -9.5 9.5 -24.5 q0 -22 -19.5 -47 q-19.5 -25 -44.5 -25 ZM260 154 l0 -36 q-95 -123 -161 -123 q-37 0 -56.5 42 q-19.5 42 -19.5 84 q0 68 56.5 142 q56.5 74 103.5 74 q30 0 30 -23 q0 -8 -15 -40 q-15 -32 -60 -77 q-33 -33 -40 -44 q-7 -11 -7 -27 q0 -18 13 -30.5 q13 -12.5 34 -12.5 q23 0 51.5 17.5 q28.5 17.5 70.5 53.5 Z" /><glyph glyph-name="" unicode="j" d="M321 517 q29 0 29 -23 q0 -16 -14 -51.5 q-14 -35.5 -25 -42.5 q-11 -7 -25 -7 q-16 0 -28 8.5 q-12 8.5 -12 20.5 q0 19 19 51.5 q19 32.5 26 38 q7 5.5 30 5.5 ZM37 241 l14 39 l90 41 q82 38 117 38 q28 0 28 -26 q0 -12 -15 -49 q-15 -37 -108 -229 q69 46 129 100 l1 -35 q-91 -78 -174 -161 q-46 -91 -84 -140.5 q-38 -49.5 -57 -49.5 q-13 0 -13 26 q0 51 34 100.5 q34 49.5 93 102.5 q56 110 84.5 170.5 q28.5 60.5 28.5 79.5 q0 11 -10 11 q-3 0 -73 -32 q-70 -31 -84 -31 q-10 0 -10 11 q0 9 9 34 Z" /><glyph glyph-name="" unicode="k" d="M376 154 l0 -33 q-55 -66 -93 -98 q-38 -32 -63 -32 q-36 0 -60 31.5 q-24 31.5 -52 91.5 q-35 -43 -56 -72.5 q-21 -29.5 -31 -29.5 q-25 0 -25 66 q0 76 33.5 149 q33.5 73 119.5 182 q86 109 136.5 157.5 q50.5 48.5 78.5 48.5 q23 0 23 -21 q0 -37 -338 -436 l0 -42 q114 122 180 178 q66 56 103 56 q14 0 23 -16.5 q9 -16.5 9 -42.5 q0 -50 -44 -91.5 q-44 -41.5 -123 -90.5 q27 -42 54 -42 q20 0 42.5 15.5 q22.5 15.5 82.5 71.5 ZM183 129 q53 36 83 76.5 q30 40.5 30 60.5 q0 8 -7 8 q-19 0 -63 -34.5 q-44 -34.5 -89 -92.5 q18 0 46 -18 Z" /><glyph glyph-name="" unicode="l" d="M261 159 l0 -36 q-102 -135 -166 -135 q-36 0 -55 39 q-19 39 -19 91 q0 94 63.5 220.5 q63.5 126.5 123 188 q59.5 61.5 83.5 61.5 q16 0 16 -40 q0 -69 -55 -167.5 q-55 -98.5 -154 -201.5 q-5 -21 -5 -40 q0 -32 13.5 -50.5 q13.5 -18.5 37.5 -18.5 q14 0 32.5 14 q18.5 14 84.5 75 ZM115 247 q58 60 98.5 133.5 q40.5 73.5 40.5 101.5 q0 9 -8 9 q-19 0 -64.5 -76.5 q-45.5 -76.5 -66.5 -167.5 Z" /><glyph glyph-name="" unicode="m" d="M231 87 q118 104 187.5 169 q69.5 65 79.5 65 q9 0 20.5 -22 q11.5 -22 11.5 -39 q0 -11 -32 -44 q-43 -49 -52 -64 q-9 -15 -9 -32 q0 -14 8 -22.5 q8 -8.5 22 -8.5 q14 0 39 19 q25 19 57 48 l0 -35 q-86 -80 -123 -103.5 q-37 -23.5 -57 -23.5 q-16 0 -25.5 11.5 q-9.5 11.5 -9.5 30.5 q0 13 4 28.5 q4 15.5 31 64.5 q27 49 57 96 q-106 -87 -190 -188 q-24 -30 -51 -30 q-25 0 -25 36 q0 14 15 45 q15 31 58 104 q3 6 3 11 q0 11 -11 11 q-6 0 -19.5 -11 q-13.5 -11 -58 -60 q-44.5 -49 -67.5 -81 q-20 -29 -28.5 -39 q-8.5 -10 -18.5 -10 q-17 0 -32 31 q-15 31 -15 73 q0 30 10 53.5 q10 23.5 38 64.5 q28 41 49 59 q21 18 38 18 q12 0 24.5 -4.5 q12.5 -4.5 12.5 -15.5 q0 -24 -63 -83 q-13 -12 -27 -33.5 q-14 -21.5 -14 -33.5 q0 -11 10 -11 q8 0 42 34 q98 100 140 134 q42 34 68 34 q14 0 23 -9.5 q9 -9.5 9 -25.5 q0 -43 -129 -211 Z" /><glyph glyph-name="" unicode="n" d="M260 224 q-64 -34 -157 -159 q-28 -35 -35.5 -42 q-7.5 -7 -16.5 -7 q-18 0 -30 33 q-12 33 -12 74 q0 27 6.5 44.5 q6.5 17.5 36.5 61.5 q30 44 50.5 62.5 q20.5 18.5 45.5 18.5 q14 0 22.5 -6.5 q8.5 -6.5 8.5 -15.5 q0 -9 -8 -18 l-17 -19 q-77 -86 -77 -111 q0 -14 9 -14 q7 0 23 19 q96 113 154.5 154 q58.5 41 77.5 41 q8 0 15.5 -24 q7.5 -24 7.5 -41 q0 -10 -21 -33 q-40 -43 -63 -79 q-23 -36 -23 -54 q0 -21 17 -21 q24 0 108 68 l0 -34 q-56 -58 -99 -93.5 q-43 -35.5 -70 -35.5 q-19 0 -28.5 15 q-9.5 15 -9.5 38 q0 23 18.5 61.5 q18.5 38.5 66.5 116.5 Z" /><glyph glyph-name="" unicode="o" d="M322 155 l0 -33 q-27 -26 -49.5 -37.5 q-22.5 -11.5 -58.5 -9.5 q-63 -75 -112 -75 q-41 0 -70 39.5 q-29 39.5 -29 97.5 q0 43 35 94.5 q35 51.5 88.5 86 q53.5 34.5 94.5 34.5 q19 0 32.5 -7.5 q13.5 -7.5 13.5 -19.5 q0 -11 -11 -23 q20 -5 26 -14.5 q6 -9.5 6 -29.5 q0 -58 -41 -128 q3 -2 5.5 -4.5 q2.5 -2.5 3.5 -3.5 q1 -1 0 -1 q18 -5 66 34 ZM221 283 q-47 -27 -93 -61 q-46 -34 -55 -73.5 q-9 -39.5 -9 -49.5 q0 -13 10.5 -22.5 q10.5 -9.5 27.5 -9.5 q34 0 77 36 q-9 20 -9 42 q0 50 51 138 Z" /><glyph glyph-name="" unicode="p" d="M2 113 l0 34 q83 90 196 244 q36 47 58 58.5 q22 11.5 43 11.5 q22 0 22 -13 q0 -9 -13.5 -29.5 q-13.5 -20.5 -34.5 -41.5 q-46 -43 -115 -174 q112 91 143 109 q31 18 57 18 q15 0 20 -4.5 q5 -4.5 5 -18.5 q0 -49 -33.5 -100.5 q-33.5 -51.5 -119.5 -129.5 q17 -6 33 -6 q57 0 154 86 l0 -35 q-42 -39 -99.5 -83 q-57.5 -44 -97.5 -44 q-31 0 -87 25 q-10 -4 -19 -4 q-13 0 -39 14 q-17 -32 -36 -81 q-56 -147 -84 -147 q-21 0 -21 40 q0 72 86 193 q29 39 82 137.5 q53 98.5 70 136.5 q-116 -140 -170 -196 ZM200 89 q96 100 96 141 q0 18 -18 18 q-24 0 -68 -39.5 q-44 -39.5 -92 -109.5 q29 4 40 4 q19 0 42 -14 Z" /><glyph glyph-name="" unicode="q" d="M287 180 l-93 -90 q-41 -41 -61 -56 q-20 -15 -31.5 -20.5 q-11.5 -5.5 -21.5 -5.5 q-28 0 -50 40.5 q-22 40.5 -22 84.5 q0 27 11.5 49.5 q11.5 22.5 48 59 q36.5 36.5 85 65.5 q48.5 29 100 44 q51.5 15 89.5 15 q28 0 28 -35 q0 -13 -7 -23 q17 -29 17 -38 q0 -10 -114 -179 l23 -15 q62 40 102 81 l0 -35 q-35 -41 -79 -84 q4 -19 4 -26 q0 -44 -43.5 -107 q-43.5 -63 -103.5 -112.5 q-60 -49.5 -88 -49.5 q-34 0 -34 64 q0 30 61 121.5 q61 91.5 179 251.5 ZM65 104 q0 -14 15 -14 q40 0 103 53.5 q63 53.5 107.5 102 q44.5 48.5 44.5 55.5 q0 4 -4 4 q-17 0 -77 -26.5 q-60 -26.5 -113.5 -64 q-53.5 -37.5 -64.5 -69.5 q-11 -32 -11 -41 ZM223 26 q-34 -46 -69 -113.5 q-35 -67.5 -35 -78.5 q0 -6 7 -6 q30 0 85 62.5 q55 62.5 58 126.5 q-7 -1 -14 -1 q-19 0 -32 10 Z" /><glyph glyph-name="" unicode="r" d="M3 116 l0 32 q27 32 40 53 q-30 8 -30 37 q0 33 39.5 80.5 q39.5 47.5 61.5 47.5 q10 0 12 -9 q0 -8 -15 -34 q97 16 127 16 q12 0 17 -4 q5 -4 10.5 -17 q5.5 -13 5.5 -27 q0 -15 -6 -24.5 q-6 -9.5 -34 -39.5 q-25 -27 -43 -59.5 q-18 -32.5 -18 -50.5 q0 -23 28 -23 q30 0 104 61 l0 -33 q-39 -43 -83 -81.5 q-44 -38.5 -73 -38.5 q-23 0 -35.5 22 q-12.5 22 -12.5 51 q0 30 23 74.5 q23 44.5 66 94.5 q-47 -11 -96 -18 q-30 -59 -88 -110 Z" /><glyph glyph-name="" unicode="s" d="M6 152 q133 141 173 186 q10 60 52 60 q10 0 22 -6 l3 -9 q-2 -6 -2 -14 q0 -16 7 -37 q15 -48 15 -81 q0 -93 -129 -174 q13 -4 26 -4 q54 0 149 82 l0 -33 q-77 -73 -121.5 -98.5 q-44.5 -25.5 -79.5 -25.5 q-39 0 -73.5 32 q-34.5 32 -38 59.5 q-3.5 27.5 -3.5 62.5 ZM179 286 q-35 -39 -129 -131 q26 -5 37.5 -15 q11.5 -10 32.5 -44 q31 13 50 36 q19 23 19 67 q0 32 -10 87 Z" /><glyph glyph-name="" unicode="t" d="M200 407 q24 44 46 64.5 q22 20.5 49 20.5 q27 0 27 -12 q0 -5 -21 -32 q-18 -21 -32 -43 q37 -3 50 -6 q-29 -52 -70 -106 l-65 5 q-47 -75 -64 -116 q-17 -41 -17 -77 q0 -31 27 -31 q31 0 129 81 l0 -33 q-132 -143 -195 -143 q-24 0 -36.5 17.5 q-12.5 17.5 -12.5 41.5 q0 41 35 120 q-26 -21 -47 -42 l0 34 q48 40 124 151 q-56 3 -74 -4 q-12 -4 -15 -4 q-3 0 -3 6 q0 15 26 54 q26 39 51 46.5 q25 7.5 88 7.5 Z" /><glyph glyph-name="" unicode="u" d="M241 187 q-73 -98 -110.5 -135.5 q-37.5 -37.5 -57.5 -37.5 q-27 0 -47 32 q-20 32 -20 82 q0 33 14 62 q14 29 58 82 q44 53 56 58.5 q12 5.5 34 5.5 q18 0 30.5 -4 q12.5 -4 12.5 -10 q0 -11 -30.5 -52.5 q-30.5 -41.5 -104.5 -98.5 q-9 -25 -9 -42 q0 -23 15 -23 q5 0 12 3.5 q7 3.5 52 42.5 l62 54 q17 14 43 48 q28 36 57 67 q29 31 39.5 37.5 q10.5 6.5 20.5 6.5 q19 0 19 -31 q0 -20 -11 -39 q-1 -1 -5 -8 q-11 -18 -19 -29 q-40 -55 -59 -87.5 q-19 -32.5 -19 -53.5 q0 -25 20 -25 q16 0 38 12.5 q22 12.5 68 50.5 l0 -33 q-72 -69 -108.5 -97 q-36.5 -28 -63.5 -28 q-39 0 -39 49 q0 32 52 141 Z" /><glyph glyph-name="" unicode="v" d="M72 153 l-9 -41 q-2 -10 -2 -17 q0 -27 22 -27 q20 0 102 82 q0 44 47.5 110.5 q47.5 66.5 69.5 66.5 q22 0 22 -28 q0 -23 -16 -62.5 q-16 -39.5 -57 -91.5 q12 -22 25 -22 q19 0 56 31 l0 -33 q-27 -22 -43.5 -29.5 q-16.5 -7.5 -40.5 -7.5 q-10 0 -35 13 q-58 -61 -86.5 -83 q-28.5 -22 -45.5 -22 q-34 0 -57.5 39 q-23.5 39 -23.5 90 q0 35 20.5 76 q20.5 41 50.5 77 q30 36 41.5 43 q11.5 7 28.5 7 q16 0 27.5 -5.5 q11.5 -5.5 11.5 -12.5 q0 -23 -31 -69.5 q-31 -46.5 -77 -83.5 Z" /><glyph glyph-name="" unicode="w" d="M84 150 q-11 -36 -11 -55 q0 -7 4 -13 q4 -6 10 -6 q20 0 79 65 q59 65 148 187 q4 5 15 5 q12 0 22 -6 q10 -6 10 -14 q0 -5 -26 -57 q-63 -130 -63 -163 q0 -19 17 -19 q21 0 75 73 q-2 7 -2 15 q0 27 19.5 65 q19.5 38 48 67.5 q28.5 29.5 43.5 29.5 q17 0 17 -41 q0 -62 -56 -133 q19 -20 33 -20 q16 0 42 26 l0 -35 q-38 -40 -67 -40 q-16 0 -25.5 4 q-9.5 4 -24.5 15 q-90 -108 -137 -108 q-39 0 -39 51 q0 27 10 88 q-77 -91 -101 -111 q-24 -20 -39 -20 q-24 0 -50.5 36 q-26.5 36 -26.5 87 q0 33 16 65 q16 32 56 83 q40 51 63 67.5 q23 16.5 35 16.5 q12 0 28 -8.5 q16 -8.5 16 -14.5 q0 -28 -36.5 -76 q-36.5 -48 -102.5 -106 Z" /><glyph glyph-name="" unicode="x" d="M104 154 l0 115 q-30 -7 -69 -43 q-18 -17 -23 -17 q-5 0 -5 14 q0 23 60.5 85 q60.5 62 81.5 62 q12 0 18.5 -12 q6.5 -12 6.5 -51 q0 -29 -3 -76 q108 115 128 115 q13 0 13 -16 q0 -17 -26 -50 q-26 -33 -35 -33 q-13 0 -19 4 l-62 -79 q0 -30 5.5 -57.5 q5.5 -27.5 26.5 -27.5 q14 0 37.5 18 q23.5 18 59.5 51 l0 -34 q-100 -138 -142 -138 q-24 0 -35.5 25 q-11.5 25 -15.5 86 q-93 -102 -107 -102 q-8 0 -8 14 q0 15 20 50.5 q20 35.5 32 35.5 q4 0 7 -2 l54 63 Z" /><glyph glyph-name="" unicode="y" d="M233 135 l-87 -74 q-61 -54 -83 -54 q-18 0 -39.5 43 q-21.5 43 -21.5 77 q0 32 13.5 59 q13.5 27 50 72 q36.5 45 66.5 71 q30 26 43 26 q13 0 25.5 -14 q12.5 -14 12.5 -28 q0 -15 -34 -56.5 q-34 -41.5 -103 -100.5 l-9 -27 q-3 -11 -3 -17 q0 -10 12 -10 q18 0 91 54.5 q73 54.5 148 146.5 q26 31 40 31 q10 0 15.5 -13.5 q5.5 -13.5 5.5 -26.5 q0 -20 -12 -37 q-118 -173 -173 -281 q90 91 194 179 l0 -33 q-105 -108 -236 -280 q-32 -43 -40.5 -53 q-8.5 -10 -12.5 -10 q-9 0 -17.5 18.5 q-8.5 18.5 -8.5 39.5 q0 12 10 34.5 q10 22.5 49.5 92 q39.5 69.5 103.5 171.5 Z" /><glyph glyph-name="" unicode="z" d="M9 111 l0 36 q26 28 55 79 q-27 4 -27 22 q0 24 39 62.5 q39 38.5 61 38.5 q16 0 16 -13 q0 -5 -3 -7 q-2 -1 -4 -8 q0 -5 8 -5 q25 0 61 10 q40 10 51 10 q5 0 9.5 -6.5 q4.5 -6.5 10 -39.5 q5.5 -33 5.5 -38 q0 -7 -7 -13.5 q-7 -6.5 -33 -23.5 q-58 -37 -114 -82 q45 -18 59 -74 l122 96 l0 -33 l-123 -99 q-6 -56 -44.5 -115.5 q-38.5 -59.5 -95.5 -107 q-57 -47.5 -85 -47.5 q-27 0 -27 41 q0 51 47 103 q47 52 149 120 q-3 28 -12.5 38 q-9.5 10 -44.5 22 q-26 9 -26 26 q0 18 183 146 q-59 -12 -144 -23 q-46 -75 -86 -115 ZM134 -29 q-55 -39 -101.5 -87.5 q-46.5 -48.5 -46.5 -58.5 q0 -11 10 -11 q28 0 73.5 44.5 q45.5 44.5 64.5 112.5 Z" /><glyph glyph-name="" unicode="{" d="M389 -280 l-27 0 q-42 0 -71.5 10 q-29.5 10 -48 31.5 q-18.5 21.5 -26.5 54 q-8 32.5 -8 66.5 l0 59 q0 133 -22 167.5 q-22 34.5 -80 40.5 l0 80 q43 1 66.5 23.5 q23.5 22.5 29.5 62 q6 39.5 6 166.5 q0 89 32 133.5 q32 44.5 122 44.5 l27 0 l0 -77 l-15 0 q-53 0 -68.5 -19 q-15.5 -19 -15.5 -82 l0 -71 q0 -94 -21 -144.5 q-21 -50.5 -82 -76.5 q52 -23 77.5 -68.5 q25.5 -45.5 25.5 -151.5 l0 -72 q0 -60 15 -80 q15 -20 69 -20 l15 0 l0 -77 Z" /><glyph glyph-name="" unicode="|" d="M259 -251 l0 925 l78 0 l0 -925 l-78 0 Z" /><glyph glyph-name="" unicode="}" d="M82 659 l27 0 q94 0 124 -47 q30 -47 30 -131 q0 -117 5.5 -160 q5.5 -43 28 -67 q22.5 -24 68.5 -25 l0 -80 q-48 -1 -72.5 -31 q-24.5 -30 -26.5 -98 l-3 -122 q-1 -98 -36 -138.5 q-35 -40.5 -117 -40.5 q-13 0 -28 1 l0 77 q46 -1 66 7 q20 8 26.5 28.5 q6.5 20.5 6.5 64.5 l0 72 q0 107 25 153 q25 46 77 67 q-59 27 -80.5 74.5 q-21.5 47.5 -21.5 146.5 l0 71 q0 45 -6.5 65 q-6.5 20 -27 28 q-20.5 8 -65.5 8 l0 77 Z" /><glyph glyph-name="" unicode="~&#x203e;" d="M113 228 l-28 0 q4 77 38 117.5 q34 40.5 88 40.5 q36 0 87.5 -18 q51.5 -18 150.5 -61 q25 -11 50 -11 q37 0 61 22 q24 22 29 68 l28 0 q-3 -78 -41 -118 q-38 -40 -92 -40 q-28 0 -62 11.5 q-34 11.5 -84 32.5 q-64 27 -89.5 35.5 q-25.5 8.5 -52.5 8.5 q-68 0 -83 -88 Z" /><glyph glyph-name="" unicode="&#x3001;" d="M298 53 q0 -18 -10 -53.5 q-10 -35.5 -23 -35.5 q-6 0 -16.5 7.5 q-10.5 7.5 -28 26 q-17.5 18.5 -51.5 62 q-34 43.5 -39.5 53 q-5.5 9.5 -5.5 16.5 q0 16 19.5 16 q19.5 0 60 -9.5 q40.5 -9.5 67.5 -30 q27 -20.5 27 -52.5 Z" /><glyph glyph-name="" unicode="&#x3002;" d="M252 229 q57 0 97.5 -40.5 q40.5 -40.5 40.5 -97.5 q0 -57 -40.5 -97.5 q-40.5 -40.5 -97.5 -40.5 q-57 0 -97.5 40.5 q-40.5 40.5 -40.5 97.5 q0 57 40.5 97.5 q40.5 40.5 97.5 40.5 ZM252 9 q34 0 58 24 q24 24 24 58 q0 34 -24 58 q-24 24 -58 24 q-34 0 -58 -24 q-24 -24 -24 -58 q0 -34 24 -58 q24 -24 58 -24 Z" /><glyph glyph-name="" unicode="·" d="M500 373 q30 0 52 -22 q22 -22 22 -52 q0 -30 -22 -52 q-22 -22 -52 -22 q-30 0 -52 22 q-22 22 -22 52 q0 30 22 52 q22 22 52 22 Z" /><glyph glyph-name="" unicode="&#x2014;" d="M1000 268 l-1000 0 l0 58 l1000 0 l0 -58 Z" /><glyph glyph-name="" unicode="&#x2026;" d="M834 365 q27 0 47 -20 q20 -20 20 -47 q0 -27 -20 -47 q-20 -20 -47 -20 q-27 0 -47 20 q-20 20 -20 47 q0 27 20 47 q20 20 47 20 ZM500 365 q27 0 47 -20 q20 -20 20 -47 q0 -27 -20 -47 q-20 -20 -47 -20 q-27 0 -47 20 q-20 20 -20 47 q0 27 20 47 q20 20 47 20 ZM166 365 q27 0 47 -20 q20 -20 20 -47 q0 -27 -20 -47 q-20 -20 -47 -20 q-27 0 -47 20 q-20 20 -20 47 q0 27 20 47 q20 20 47 20 Z" /><glyph glyph-name="" unicode="&#x2018;" d="M892 727 q-27 -41 -34 -68 q32 0 32 -29 q0 -19 -24 -61 q-24 -42 -55 -42 q-17 0 -21 14 q-4 14 -4 30 q0 53 45 119 q45 66 63 66 q6 0 6 -8.5 q0 -8.5 -8 -20.5 Z" /><glyph glyph-name="" unicode="&#x2019;" d="M152 629 q-32 0 -32 29 q0 21 24.5 62 q24.5 41 51.5 41 q15 0 21.5 -10.5 q6.5 -10.5 6.5 -33.5 q0 -53 -45 -119 q-45 -66 -63 -66 q-6 0 -6 8 q0 8 8 21 q27 40 34 68 Z" /><glyph glyph-name="" unicode="&#x201c;" d="M892 727 q-27 -41 -34 -68 q32 0 32 -29 q0 -20 -24.5 -61.5 q-24.5 -41.5 -51.5 -41.5 q-15 0 -21.5 10.5 q-6.5 10.5 -6.5 33.5 q0 53 45 119 q45 66 63 66 q6 0 6 -8.5 q0 -8.5 -8 -20.5 ZM732 727 q-27 -41 -34 -68 q32 0 32 -29 q0 -20 -24.5 -61.5 q-24.5 -41.5 -51.5 -41.5 q-15 0 -21.5 10.5 q-6.5 10.5 -6.5 33.5 q0 53 45 119 q45 66 63 66 q6 0 6 -8.5 q0 -8.5 -8 -20.5 Z" /><glyph glyph-name="" unicode="&#x201d;" d="M152 629 q-32 0 -32 29 q0 20 24 61.5 q24 41.5 54 41.5 q15 0 20.5 -11.5 q5.5 -11.5 5.5 -32.5 q0 -53 -45 -119 q-45 -66 -63 -66 q-6 0 -6 8 q0 8 8 21 q27 40 34 68 ZM312 629 q-32 0 -32 29 q0 20 24 61.5 q24 41.5 54 41.5 q15 0 20.5 -11.5 q5.5 -11.5 5.5 -32.5 q0 -53 -45 -119 q-45 -66 -63 -66 q-6 0 -6 8 q0 8 8 21 q27 40 34 68 Z" /><glyph glyph-name="" unicode="&#x300a;" d="M933 32 l-51 -34 l-221 302 l221 302 l51 -34 l-197 -268 l197 -268 ZM753 32 l-51 -34 l-221 302 l221 302 l51 -34 l-197 -268 l197 -268 Z" /><glyph glyph-name="" unicode="&#x300b;" d="M519 300 l-221 -302 l-51 34 l197 268 l-197 268 l51 34 l221 -302 ZM339 300 l-221 -302 l-51 34 l197 268 l-197 268 l51 34 l221 -302 Z" /><glyph glyph-name="" unicode="&#x3010;" d="M908 -134 l-303 0 l0 868 l303 0 q-134 -186 -134 -434 q0 -248 134 -434 Z" /><glyph glyph-name="" unicode="&#x3011;" d="M395 -134 l-303 0 q69 96 101.5 198 q32.5 102 32.5 236 q0 248 -134 434 l303 0 l0 -868 Z" /><glyph glyph-name="" unicode="&#xffe5;" d="M539 420 l1 0 q132 96 221.5 168 q89.5 72 101.5 72 q8 0 8 -11 q0 -11 -24.5 -61 q-24.5 -50 -51.5 -50 q-5 0 -12 1 q-92 -69 -220 -160 l106 0 l-60 -65 q-26 -2 -95 -6 q-5 -10 -21 -54 l162 0 l-60 -71 l-119 -7 q-2 -14 -2 -32 q0 -18 4.5 -38.5 q4.5 -20.5 7 -24 q2.5 -3.5 9.5 -3.5 q7 0 25 15 l10 -4 q-41 -56 -67 -77.5 q-26 -21.5 -46.5 -21.5 q-20.5 0 -33.5 20 q-13 20 -13 64 q0 44 16 98 l-116 -4 q-31 0 -31 13 q0 7 7.5 22 q7.5 15 16 20 q8.5 5 26.5 8 l90 13 q29 6 37 7 q11 25 25 54 l-127 -6 q-30 0 -30 15 q0 10 11 20 q11 10 38 18 l60 17 q48 12 82 10 q17 34 40 91.5 q23 57.5 23 64 q0 6.5 -13 6.5 q-25 0 -110 -38 q-85 -38 -161 -81 q-8 -4 -17 -4 q-9 0 -16 7 q-7 7 -7 16 q0 9 4 18 q4 9 10 33 q6 24 22.5 46 q16.5 22 47 39.5 q30.5 17.5 41.5 17.5 q3 0 3 -2 q0 -2 -2 -4 q-20 -13 -40 -38 q127 44 170 55.5 q43 11.5 81 11.5 q24 0 38.5 -26.5 q14.5 -26.5 14.5 -35.5 q0 -9 -10 -29 l-55 -107 Z" /><glyph glyph-name="" unicode="&#xff08;" d="M744 -10 q5 22 9.5 22 q4.5 0 8.5 -12.5 q4 -12.5 4 -32 q0 -19.5 -12.5 -38.5 q-12.5 -19 -30.5 -19 q-36 0 -62 73.5 q-26 73.5 -26 174.5 q0 101 29 187.5 q29 86.5 83 174 q54 87.5 90.5 122 q36.5 34.5 48 34.5 q11.5 0 11.5 -29.5 q0 -29.5 -42 -80.5 q-69 -82 -108 -191 q-39 -109 -39 -211.5 q0 -102.5 36 -173.5 Z" /><glyph glyph-name="" unicode="&#xff09;" d="M269 592 q-5 -22 -9.5 -22 q-4.5 0 -8.5 12.5 q-4 12.5 -4 32 q0 19.5 12.5 38.5 q12.5 19 30.5 19 q36 0 62 -73.5 q26 -73.5 26 -171.5 q0 -151 -63.5 -276.5 q-63.5 -125.5 -116.5 -185 q-53 -59.5 -70 -59.5 q-12 0 -12 30.5 q0 30.5 42 79.5 q67 80 106 191.5 q39 111.5 39 214.5 q0 103 -34 170 Z" /><glyph glyph-name="" unicode="&#xff0c;" d="M221 -4 q-30 0 -30 25 q0 18 22 57.5 q22 39.5 50 39.5 q16 0 19 -14.5 q3 -14.5 3 -28.5 q0 -53 -40 -111 q-40 -58 -57 -58 q-5 0 -5 7 q0 7 14 30 q14 23 24 53 Z" /><glyph glyph-name="" unicode="&#xff1a;" d="M366 302 q0 -25 -30 -59.5 q-30 -34.5 -53.5 -34.5 q-23.5 0 -23.5 29 q0 23 31 57 q31 34 53.5 34 q22.5 0 22.5 -26 ZM266 91 q0 -23 -30 -58 q-30 -35 -52 -35 q-22 0 -22 26 q0 26 32 55 q32 29 56 29 q16 0 16 -17 Z" /><glyph glyph-name="" unicode="&#xff1b;" d="M335 322 q20 0 20 -25 q0 -25 -30 -61.5 q-30 -36.5 -54 -36.5 q-24 0 -24 30 q0 23 32.5 58 q32.5 35 55.5 35 ZM168 -5 q-23 8 -23 23 q0 23 30.5 56 q30.5 33 53 33 q22.5 0 22.5 -23 q0 -23 -19.5 -60.5 q-19.5 -37.5 -55 -72 q-35.5 -34.5 -47 -34.5 q-11.5 0 -11.5 7 q0 7 9 16 q29 30 41 55 Z" /><glyph glyph-name="" unicode="&#xff1f;" d="M326 568 q-29 0 -82.5 -12.5 q-53.5 -12.5 -53.5 -23.5 q0 -6 6 -8 q21 -9 27 -14 q6 -5 6 -11.5 q0 -6.5 -4 -6.5 q-4 0 -9 2 q-21 8 -46 8 q-25 0 -31.5 5 q-6.5 5 -6.5 22.5 q0 17.5 19.5 57 q19.5 39.5 82.5 58 q63 18.5 104 18.5 q41 0 66 -26 q25 -26 25 -71 q0 -125 -181 -317 q-9 -9 -14 -23 q-5 -14 -5 -21 l3 -29 q0 -8 -5 -12.5 q-5 -4.5 -10 -4.5 q-13 0 -27 21.5 q-14 21.5 -14 53 q0 31.5 39 81.5 q39 50 101 105 q62 55 71 68 q9 13 9 30 q0 50 -70 50 ZM146 3 q-11 0 -28.5 15.5 q-17.5 15.5 -17.5 40.5 q0 25 19.5 61 q19.5 36 32.5 36 q13 0 27 -19.5 q14 -19.5 14 -42.5 q0 -23 -17 -57 q-17 -34 -30 -34 Z" /><glyph glyph-name="" unicode="&#x767d;" d="M318 301 q22 52 53 82.5 q31 30.5 113 56.5 q82 26 140.5 26 q58.5 0 123.5 -32.5 q65 -32.5 65 -88.5 q0 -24 -21 -128.5 q-21 -104.5 -40.5 -159 q-19.5 -54.5 -53 -88 q-33.5 -33.5 -55.5 -33.5 q-22 0 -32 32 q-10 32 -18.5 44 q-8.5 12 -18.5 13 q-10 1 -50.5 1 q-40.5 0 -86.5 -11 q-46 -11 -68 -30 q-12 -10 -26 -10 q-14 0 -30 22 q-16 22 -34.5 70.5 q-18.5 48.5 -25 74.5 q-6.5 26 -8 69 q-1.5 43 -12.5 79 q-11 36 -11 63.5 q0 27.5 12.5 41 q12.5 13.5 29.5 9.5 q6 -2 9 -2 q21 0 74 87.5 q53 87.5 53 123.5 q0 6 -5 14.5 q-5 8.5 -5 20 q0 11.5 19.5 11.5 q19.5 0 72 -24 q52.5 -24 52.5 -70 q0 -18 -10 -32.5 q-10 -14.5 -26 -19.5 q-26 -8 -125 -121 q-8 -9 -30 -19 q-22 -10 -34 -10 q-12 0 -16.5 1.5 q-4.5 1.5 -9.5 1.5 q-5 0 -5 -4.5 q0 -4.5 6 -8.5 q18 -13 34 -52 ZM350 88 q19 -1 55.5 4 q36.5 5 69.5 13 q33 8 64 8 q68 0 86 -44 q5 -13 8.5 -13 q3.5 0 5.5 5 l18 62 q17 58 28.5 117.5 q11.5 59.5 11.5 109.5 q0 16 -10 26.5 q-10 10.5 -32.5 10.5 q-22.5 0 -77.5 -15 q-55 -15 -72 -26.5 q-17 -11.5 -34 -11.5 q-17 0 -52.5 10.5 q-35.5 10.5 -39.5 10.5 q-25 0 -49 -77 q13 -101 20 -190 ZM415 165 q-66 54 -66 74 q0 13 25 18 q96 19 112 31 q20 13 54.5 13 q34.5 0 55.5 -24 q21 -24 21 -44 q0 -29 -76.5 -53 q-76.5 -24 -113.5 -21 q-23 -13 -27 -13 q-4 0 -4 1 q0 4 19 18 Z" /><glyph glyph-name="" unicode="&#x60b2;" d="M587 286 q36 -2 54 -2 q18 0 32.5 2.5 q14.5 2.5 21.5 2.5 q17 0 39 -22 q22 -22 22 -28.5 q0 -6.5 -9 -13 q-9 -6.5 -22.5 -8.5 q-13.5 -2 -43.5 -2 q-30 0 -51 -10 q1 11 -34 12 q4 -28 4 -50.5 q0 -22.5 -15 -34 q-15 -11.5 -25.5 -11.5 q-10.5 0 -21 22.5 q-10.5 22.5 -10.5 77 q0 54.5 3 163.5 q3 109 8 149 q5 40 4 68 q-61 -158 -66 -201 q-5 -43 -10.5 -57 q-5.5 -14 -5.5 -20.5 q0 -6.5 2 -12.5 q2 -6 2 -13.5 q0 -7.5 -11 -20.5 q0 -61 -5 -100 q-5 -39 -20.5 -39 q-15.5 0 -27 20 q-11.5 20 -17.5 60 q-65 -112 -112 -112 q-22 0 -34.5 28.5 q-12.5 28.5 -12.5 41 q0 12.5 10 13.5 q21 2 50 31 q29 29 50.5 41 q21.5 12 51.5 39 q7 98 7 153 q0 55 -2.5 74.5 q-2.5 19.5 -19.5 54.5 q-17 35 -17 43 q0 8 8.5 8 q8.5 0 35.5 -15 q27 -15 42 -24.5 q15 -9.5 23 -26.5 q8 -17 8 -36 q0 -19 -8 -54 q-8 -35 -8 -75 q22 76 88 239 q-6 29 -14.5 49.5 q-8.5 20.5 -8.5 31 q0 10.5 5 10.5 q4 0 18 -14.5 q14 -14.5 27 -21.5 q51 -24 51 -70 q0 -13 -16 -66 q46 24 69.5 24 q23.5 0 39 -19.5 q15.5 -19.5 15.5 -30.5 q0 -11 -8 -21 q-8 -10 -44 -37.5 q-36 -27.5 -69 -47.5 q50 2 65.5 -3 q15.5 -5 33.5 -22.5 q18 -17.5 18 -27.5 q0 -14 -37.5 -33 q-37.5 -19 -58 -19 q-20.5 0 -20.5 6 q0 10 24 26 q-36 25 -53 42 q-2 -61 6 -110 ZM584 428 q54 58 54 71.5 q0 13.5 -41 13.5 q-13 -48 -13 -85 ZM291 516 q84 0 84 -68 q0 -35 -54 -35 q-23 0 -38 6.5 q-15 6.5 -15 18 q0 11.5 -6.5 18 q-6.5 6.5 -18.5 26 q-12 19.5 -12 22.5 q0 7 24.5 9.5 q24.5 2.5 35.5 2.5 ZM254 243 q8 21 12.5 25.5 q4.5 4.5 4.5 10.5 q0 6 -5 9 q-22 17 -32 41 q-10 24 -10 30.5 q0 6.5 10 4.5 q10 -2 18.5 -2 q8.5 0 17.5 2.5 q9 2.5 16 2.5 q28 0 45 -18.5 q17 -18.5 17 -36.5 q0 -18 -18.5 -32 q-18.5 -14 -31.5 -14 q-17 0 -28 -11 q-11 -11 -16 -12 ZM608 18 q-27 -8 -52 -36 q-8 -9 -26 -9 q-21 0 -35.5 17 q-14.5 17 -26 31 q-11.5 14 -11.5 39 q0 63 42 63 q19 0 41 -18.5 q22 -18.5 34.5 -18.5 q12.5 0 28.5 5 q79 25 116.5 32 q37.5 7 47.5 15 q10 8 19 8 q23 0 64 -28.5 q41 -28.5 41 -53.5 q0 -12 -10.5 -25 q-10.5 -13 -53 -13 q-42.5 0 -64 8 q-21.5 8 -50.5 26 q48 9 62 20.5 q14 11.5 14 16.5 q0 5 -15 5 q-15 0 -65 -17 q-50 -17 -63 -43 q106 -68 146.5 -90 q40.5 -22 40.5 -48 q0 -14 -13 -23 q-13 -9 -76.5 -21.5 q-63.5 -12.5 -123 -12.5 q-59.5 0 -125.5 19 q-66 19 -99 50.5 q-33 31.5 -53 95.5 q-14 46 -36 46 q-13 0 -26 -18 q-12 -70 -21.5 -100.5 q-9.5 -30.5 -11.5 -49.5 q-3 -25 -19 -25 q-8 0 -18 14 q-10 14 -14 36 q-4 22 -4 31 q0 24 28 74.5 q28 50.5 31 63.5 q3 13 7 13 q9 0 9 -40 q27 24 55 24 q56 0 79 -87 q11 -39 60 -61 q49 -22 123 -22 q41 0 81.5 6.5 q40.5 6.5 46 10 q5.5 3.5 5.5 7.5 q0 18 -110 83 Z" /><glyph glyph-name="" unicode="&#x5954;" d="M499 500 q101 -2 147 -8 q46 -6 59 -6 q13 0 17.5 1.5 q4.5 1.5 11.5 1.5 q36 0 85.5 -29 q49.5 -29 49.5 -57 q0 -13 -10 -19.5 q-10 -6.5 -25 -4.5 q-79 13 -115 13 q-36 0 -76 -23 q6 -11 6 -23.5 q0 -12.5 -8.5 -21 q-8.5 -8.5 -28.5 -8.5 q-20 0 -39 -7 q-19 -22 -22 -63 q27 34 45.5 34 q18.5 0 59.5 -45 q16 2 35.5 7.5 q19.5 5.5 26.5 5.5 q28 0 50.5 -21.5 q22.5 -21.5 22.5 -39.5 q0 -18 -18 -18 q-6 0 -12 2 q-22 7 -32.5 5.5 q-10.5 -1.5 -23 -1.5 q-12.5 0 -41.5 3 q-17 -269 -29.5 -317 q-12.5 -48 -22.5 -48 q-15 0 -17.5 113 q-2.5 113 -2.5 243 q-64 -20 -114 -37 q-28 -32 -39.5 -59.5 q-11.5 -27.5 -35.5 -129.5 q-2 -9 -13.5 -9 q-11.5 0 -33.5 23 q-22 23 -22 50.5 q0 27.5 5 74.5 q-51 -24 -85 -24 q-34 0 -54.5 14.5 q-20.5 14.5 -20.5 37 q0 22.5 19 22.5 l21 -3 q25 0 135 35 q9 17 11 37.5 q2 20.5 11.5 20.5 q9.5 0 30.5 -29 q8 -10 23 -12 q26 14 38 23 q7 21 7 33.5 q0 12.5 -2 21.5 q-10 -3 -20 -3 q-39 0 -76 49 q-33 -46 -63.5 -70.5 q-30.5 -24.5 -45 -32 q-14.5 -7.5 -59.5 -7.5 q-45 0 -67.5 17 q-22.5 17 -22.5 39.5 q0 22.5 26.5 71 q26.5 48.5 96 101.5 q69.5 53 146.5 63 q-15 10 -57.5 52 q-42.5 42 -42.5 53 q0 4 5.5 4 q5.5 0 14.5 -4 q9 -4 16 -4 q29 0 141 63 q18 52 18 63.5 q0 11.5 -7 16.5 q-7 5 -27 10.5 q-20 5.5 -20 12.5 q0 7 14.5 15 q14.5 8 53.5 8 q39 0 54 -9.5 q15 -9.5 31 -22.5 q16 -13 16 -25.5 q0 -12.5 -6 -30.5 q39 -2 60.5 -19 q21.5 -17 21.5 -33 q0 -16 -13 -22 q-64 -26 -88.5 -38.5 q-24.5 -12.5 -58.5 -35.5 q-13 -19 -15 -41 ZM366 438 q-99 -23 -160 -66.5 q-61 -43.5 -61 -102.5 q0 -20 7.5 -27 q7.5 -7 28.5 -7 q33 0 84 52.5 q51 52.5 101 150.5 ZM693 419 q-41 15 -125 15 q-33 0 -54 -4 q2 -7 11.5 -8.5 q9.5 -1.5 22 -12 q12.5 -10.5 18.5 -26.5 q15 2 33 2 q18 0 37 -6 q22 9 57 40 ZM474 352 q1 20 -9 27.5 q-10 7.5 -10 18.5 q0 11 7 24 q-21 0 -27 -2 q-15 -36 -48 -97 q40 20 87 29 ZM587 222 q0 7 -3.5 19.5 q-3.5 12.5 -8.5 12.5 q-5 0 -18 -12 q-13 -12 -10 -30 q18 2 40 10 Z" /><glyph glyph-name="" unicode="&#x5fc5;" d="M604 327 q147 -154 202 -186 q22 -13 22 -28 q0 -15 -51.5 -35 q-51.5 -20 -111 -20 q-59.5 0 -117 17.5 q-57.5 17.5 -95.5 50.5 q-83 -101 -145.5 -128.5 q-62.5 -27.5 -92.5 -27.5 q-11 0 -11 7 q0 7 24 27 q95 80 171 192 q-24 41 -29 92 q-52 -72 -107.5 -143.5 q-55.5 -71.5 -63.5 -77 q-8 -5.5 -15 -5.5 q-16 0 -33.5 34 q-17.5 34 -17.5 73 q0 22 7.5 41.5 q7.5 19.5 41 76 q33.5 56.5 61 82 q27.5 25.5 72.5 54.5 q1 13 -14 9 q-5 -1 -11 -1 q-6 0 -6 6.5 q0 6.5 17.5 19 q17.5 12.5 54.5 9.5 q87 75 87 90 q0 5 -7 7 q-45 14 -59.5 23.5 q-14.5 9.5 -14.5 21 q0 11.5 21 11.5 q6 0 13 -1 q27 -5 62.5 -5 q35.5 0 67.5 -25 q32 -25 32 -46 q0 -14 -17 -38.5 q-17 -24.5 -52 -37.5 q18 -31 51 -67 q42 59 62.5 93 q20.5 34 20.5 50 q0 16 -10.5 32 q-10.5 16 -10.5 22.5 q0 6.5 6 6.5 q6 0 21.5 -9.5 q15.5 -9.5 43.5 -11.5 q28 -2 48 -24.5 q20 -22.5 20 -43.5 q0 -21 -37 -56.5 q-37 -35.5 -100 -130.5 ZM530 385 q-33 52 -57 78 q-43 -11 -67 -23 q39 -29 39 -91 q11 -2 11 -6 q0 -4 -11 -8 q-4 -15 -4 -30 q0 -15 6 -41 q52 70 83 121 ZM368 315 q0 56 -6 77 q-6 21 -27 22 q-57 -28 -87.5 -75.5 q-30.5 -47.5 -30.5 -93.5 q0 -13 3 -23 q83 59 148 93 ZM502 190 q40 -23 84 -31 q44 -8 62.5 -8 q18.5 0 18.5 8 q0 4 -19.5 38.5 q-19.5 34.5 -65.5 99.5 q-55 -77 -80 -107 ZM911 323 q0 -18 -11.5 -54.5 q-11.5 -36.5 -34 -36.5 q-22.5 0 -57.5 30 q-54 46 -82.5 50 q-28.5 4 -28.5 8 q0 4 7.5 5.5 q7.5 1.5 43.5 4 q36 2.5 45.5 4 q9.5 1.5 9.5 11.5 q0 10 -5.5 27 q-5.5 17 -21 25.5 q-15.5 8.5 -15.5 14.5 q0 6 12 6 q12 0 53 -13.5 q41 -13.5 63 -35 q22 -21.5 22 -46.5 Z" /><glyph glyph-name="" unicode="&#x4e0d;" d="M490 161 q29 3 68 3 q39 0 110 -5 q71 -5 89.5 -8.5 q18.5 -3.5 32 -13 q13.5 -9.5 36.5 -33 q23 -23.5 31.5 -39 q8.5 -15.5 8.5 -32 q0 -16.5 -9 -27 q-9 -10.5 -18 -10.5 q-9 0 -13 2 q-113 43 -166 57 q-53 14 -85 30.5 q-32 16.5 -46 20.5 q-14 4 -35 2 q-6 -78 -6 -122.5 q0 -44.5 -15.5 -67.5 q-15.5 -23 -32.5 -23 q-17 0 -46 44.5 q-29 44.5 -29 80.5 q0 7 2 14 q22 87 22 135 q0 15 -2 28 q-89 -94 -133 -137 q-44 -43 -63.5 -55 q-19.5 -12 -31.5 -12 q-12 0 -22.5 9.5 q-10.5 9.5 -10.5 16 q0 6.5 1 9.5 q12 32 13 89 q0 8 4.5 8 q4.5 0 13 -16.5 q8.5 -16.5 16 -16.5 q7.5 0 17 9.5 q9.5 9.5 44 54 q34.5 44.5 84.5 113.5 q-15 9 -36.5 9 q-21.5 0 -52.5 -21 q-11 -7 -19 -7 q-8 0 -8 8.5 q0 8.5 31.5 48.5 q31.5 40 88.5 40 q20 0 51 -4 q33 41 76 107 q-42 -34 -59.5 -43 q-17.5 -9 -41 -9 q-23.5 0 -43 17 q-19.5 17 -50.5 64.5 q-31 47.5 -31 53.5 q0 6 6 6 q6 0 19.5 -7.5 q13.5 -7.5 32.5 -7.5 q19 0 63.5 14 q44.5 14 178.5 66 q22 9 42 9 q42 0 72.5 -37.5 q30.5 -37.5 30.5 -62 q0 -24.5 -31 -44.5 q-50 -33 -70 -61 q-44 -64 -106 -131 q21 -57 27 -116 Z" /><glyph glyph-name="" unicode="&#x6750;" d="M756 499 q26 11 47.5 11 q21.5 0 43.5 -22.5 q22 -22.5 22 -37.5 q0 -28 -53 -30 q-30 -1 -67 -13 q20 -17 26 -35.5 q6 -18.5 6 -40.5 q0 -22 -6.5 -29 q-6.5 -7 -22.5 -17 q2 -84 16 -216 q3 -23 3 -47.5 q0 -24.5 -9.5 -66.5 q-9.5 -42 -21.5 -42 q-4 0 -9.5 5.5 q-5.5 5.5 -101.5 68.5 q-36 23 -115 131 q-29 -13 -43 -13 q-14 0 -30 5.5 q-16 5.5 -16 12 q0 6.5 15 9.5 q34 6 110.5 68.5 q76.5 62.5 132.5 142.5 q-2 31 -3 37 q-66 -39 -109 -39 q-11 0 -17.5 5.5 q-6.5 5.5 -17.5 5.5 q-25 0 -52 -31 l-121 -139 q-3 -46 4.5 -69 q7.5 -23 7.5 -80 l-1 -22 q0 -8 4.5 -34.5 q4.5 -26.5 4.5 -33.5 q0 -7 -4 -7 q-12 0 -40 31 q-28 31 -28 111 q0 18 1 40 q-33 -10 -52 -18 q-19 -8 -29 -8 q-10 0 -14.5 4.5 q-4.5 4.5 -9 24 q-4.5 19.5 -4.5 34.5 q0 42 24 50 q17 6 42.5 33.5 q25.5 27.5 48.5 67.5 l-1 42 q-13 -3 -83 -65 q-21 -18 -41 -18 q-32 0 -77 48 q-45 48 -45 62 q0 5 6 5 q6 0 17.5 -6.5 q11.5 -6.5 26.5 -6.5 q29 0 57.5 15 q28.5 15 143.5 92 q5 38 9 53 q4 15 4 26 q0 22 -12.5 36.5 q-12.5 14.5 -12.5 20.5 q0 6 8 6 q14 0 61.5 -21.5 q47.5 -21.5 47.5 -52.5 q0 -14 -8 -32 q57 -13 57 -41 q0 -19 -29.5 -34 q-29.5 -15 -68.5 -41 q32 -44 32 -85 q13 13 56 51 q13 11 15 21 q6 20 24.5 34 q18.5 14 44.5 19 q85 16 130 38 q1 50 1 81 q0 31 -3 47.5 q-3 16.5 -15 32.5 q-12 16 -12 26.5 q0 10.5 13.5 10.5 q13.5 0 46.5 -14.5 q33 -14.5 52 -37 q19 -22.5 19 -38.5 q0 -16 -6 -22 q-6 -6 -13.5 -27 q-7.5 -21 -6.5 -32 ZM521 121 q28 -32 72.5 -53.5 q44.5 -21.5 70.5 -21.5 q26 0 31.5 5 q5.5 5 5.5 23 q0 53 -6 160 q-53 -55 -174 -113 Z" /><glyph glyph-name="" unicode="&#x671d;" d="M416 452 q54 5 98.5 -18 q44.5 -23 44.5 -54 q0 -15 -12 -31 q-12 -16 -24 -48 q-12 -32 -37.5 -75 q-25.5 -43 -45.5 -60 q75 0 75 -28 q0 -15 -5 -19.5 q-5 -4.5 -22 -4.5 q-88 0 -93 -6 q4 -121 -13 -160 q-7 -15 -9 -33 q-2 -18 -9.5 -18 q-7.5 0 -22.5 42.5 q-15 42.5 -15 79.5 q0 37 7 67 q-88 -35 -118.5 -50 q-30.5 -15 -36.5 -25.5 q-6 -10.5 -11.5 -10.5 q-5.5 0 -26.5 4.5 q-21 4.5 -32 16 q-11 11.5 -11 19 q0 7.5 4 9.5 q4 2 14.5 2 q10.5 0 21.5 8 q29 19 99 42 q40 13 96 37 q-84 -25 -93.5 -25 q-9.5 0 -9.5 2 q0 6 65 42 q-8 9 -20 9 q-3 0 -8 -3 q-5 -3 -8 -3 q-10 0 -25.5 35 q-15.5 35 -16.5 55.5 q-1 20.5 -2 28 q-1 7.5 -8 12.5 q-35 30 -35 80 q0 27 16 27 q9 0 20 -15.5 q11 -15.5 29 -24.5 q16 37 29 48.5 q13 11.5 53 21.5 q0 7 2 18 q-27 9 -48.5 32.5 q-21.5 23.5 -24 35 q-2.5 11.5 -11 20 q-8.5 8.5 -8.5 14.5 q0 6 8.5 6 q8.5 0 17.5 -6 q9 -6 25 -6 q16 0 24.5 6 q8.5 6 46.5 17 q9 47 9 71.5 q0 24.5 -14 37 q-14 12.5 -14 18.5 q0 12 17 12 q13 0 26 -7.5 q13 -7.5 38 -13.5 q40 -8 40 -70 q0 -10 -1 -21 q22 2 29 -2.5 q7 -4.5 17 -20.5 q10 -16 10 -27 q0 -32 -42 -37 q-10 -1 -15 -4 q-5 -3 -21 -15 q-11 -13 -13 -34 ZM422 244 q14 33 22 81.5 q8 48.5 8 58.5 q0 10 -8 10 q-15 0 -90 -40 q48 -7 58 -11.5 q10 -4.5 10 -22.5 q0 -18 -9 -31 q-9 -13 -41 -42 q37 0 50 -3 ZM328 343 q3 1 3 3 q0 3 -23 7.5 q-23 4.5 -33 4.5 q-22 0 -22 -12 q0 -6 6 -14 q6 -8 8 -24 q2 -16 4 -78 q28 19 50 45 q-22 8 -35 27 q-13 19 -13 25 q0 6 11 9 q11 3 44 7 ZM425 166 q0 16 -11 16 q-11 0 -14 -4.5 q-3 -4.5 -1 -15.5 l26 4 ZM657 527 q39 34 57 46.5 q18 12.5 31 12.5 q13 0 42.5 -15 q29.5 -15 40.5 -25.5 q11 -10.5 11 -26 q0 -15.5 -7 -64 q-7 -48.5 -15 -84.5 q-8 -36 -8 -104 q0 -118 10.5 -197 q10.5 -79 10.5 -104.5 q0 -25.5 -13 -65 q-13 -39.5 -22 -39.5 q-9 0 -44.5 37 q-35.5 37 -133.5 173 q-3 -2 -5 -2 q-2 0 -4 1 q-7 -35 -28 -81.5 q-21 -46.5 -30 -60 q-9 -13.5 -19 -13.5 q-15 0 -15 32 q0 7 1.5 19 q1.5 12 1.5 19.5 q0 7.5 -2 14 q-2 6.5 -2 12 q0 5.5 3 5.5 q3 0 7 -8.5 q4 -8.5 7 -8.5 q16 0 34 146 q-46 76 -46 101 q0 25 11.5 42 q11.5 17 41.5 43 q0 117 7 150 q3 17 3 28 q0 11 -5.5 17.5 q-5.5 6.5 -5.5 10.5 q0 4 8 7 q8 3 15 3 q17 0 62 -21 ZM654 81 q80 -71 98 -71 q7 0 8.5 8.5 q1.5 8.5 1.5 71 q0 62.5 -6 118.5 q-6 56 -6 118 q0 62 3 102 q3 40 3 66 q0 26 -7 26 q-2 0 -6 -5 q-18 -23 -31.5 -25 q-13.5 -2 -49.5 -1 q-19 -35 -20 -93 q24 21 35.5 21 q11.5 0 36.5 -10.5 q25 -10.5 25 -33.5 q0 -23 -34 -111 q45 -30 45 -67 q0 -54 -96 -114 ZM689 186 q-11 -1 -21.5 -1 q-10.5 0 -15.5 10.5 q-5 10.5 -5 42.5 q0 32 5 41 q19 33 19 42 q0 9 -4 9 q-9 0 -31 -27 q-12 -135 -18 -180 q7 -9 13 -14 q31 21 58 77 ZM571 268 q-26 -7 -26 -31.5 q0 -24.5 22 -48.5 q5 50 4 80 Z" /><glyph glyph-name="" unicode="&#x6210;" d="M644 209 q43 -95 94 -172.5 q51 -77.5 65 -77.5 q19 0 32 93 q3 20 8 20 q5 0 8 -43 q10 -131 13 -148.5 q3 -17.5 3 -31 q0 -13.5 -13.5 -13.5 q-13.5 0 -55 32 q-41.5 32 -93 107.5 q-51.5 75.5 -96.5 180.5 q-17 -27 -45 -38 q-28 -11 -86 -9 q-10 -36 -35.5 -71 q-25.5 -35 -32.5 -35 q-7 0 -15.5 9 q-8.5 9 -29 47.5 q-20.5 38.5 -36.5 75.5 q-16 37 -19.5 53.5 q-3.5 16.5 -5.5 19 q-2 2.5 -7 0.5 q7 -70 7 -97 q0 -27 -12 -63 q-12 -36 -27 -43 q-6 -3 -18 -21 q-4 -6 -11 -6 q-7 0 -16 13 q-9 13 -11.5 32 q-2.5 19 -11.5 42.5 q-9 23.5 -9 47.5 q0 63 30 140 q-16 49 -16 73.5 q0 24.5 5.5 60.5 q5.5 36 14 63 q8.5 27 9 34.5 q0.5 7.5 0.5 14 q0 6.5 5.5 6.5 q5.5 0 19.5 -24 l44 -80 q80 70 164 114 q-21 56 -76 93 q-32 22 -59.5 48.5 q-27.5 26.5 -27.5 33.5 q0 19 14 19 q9 0 23.5 -10.5 q14.5 -10.5 32.5 -13.5 q45 -5 71.5 -19.5 q26.5 -14.5 39 -36.5 q12.5 -22 36.5 -88 q33 27 41.5 27 q8.5 0 18.5 -7 q10 -7 28 -16 q31 -17 31 -38.5 q0 -21.5 -20 -30.5 q-58 -26 -65 -39 q6 -20 54 -150 q29 69 29 78.5 q0 9.5 -3 19 q-3 9.5 -3 18.5 q0 9 17 9 q22 0 33 -7.5 q11 -7.5 24 -29.5 q13 -22 13 -42 q0 -17 -14 -34.5 q-14 -17.5 -58 -89.5 ZM576 226 q-45 101 -77 198 q-33 -25 -51.5 -36 q-18.5 -11 -30 -11 q-11.5 0 -32.5 12 q-21 12 -45 12 q-24 0 -38 -17 q5 -21 5 -36 q0 -15 -19 -37 q-8 -9 -8 -25.5 q0 -16.5 12 -35.5 q13 0 21 4.5 q8 4.5 34.5 25.5 q26.5 21 42.5 36 q16 15 18 19 q6 16 22 16 q16 0 38 -11 q22 -11 26 -18.5 q4 -7.5 15 -30 q11 -22.5 11 -29 q0 -6.5 -3 -11.5 q-7 -11 -33 -119 q30 -3 92 94 ZM227 232 q-15 -26 -15 -82 q0 -18 6.5 -33 q6.5 -15 11.5 -15 q5 0 8.5 16.5 q3.5 16.5 3.5 34.5 q0 42 -15 79 ZM317 203 q15 -31 41.5 -54 q26.5 -23 38.5 -23 q12 0 13 17 q4 37 11.5 57.5 q7.5 20.5 7.5 25 q0 4.5 -3.5 4.5 q-3.5 0 -14.5 -12 q-11 -12 -22 -18 q-11 -6 -26 -6 q-15 0 -46 9 ZM660 640 q29 0 40 -13 q22 -26 32.5 -35.5 q10.5 -9.5 10.5 -23 q0 -13.5 -10.5 -23 q-10.5 -9.5 -28 -9.5 q-17.5 0 -27.5 4 q-10 4 -27.5 20.5 q-17.5 16.5 -70.5 51.5 q-7 4 -7 9 q0 5 5.5 8 q5.5 3 35 7 q29.5 4 47.5 4 Z" /><glyph glyph-name="" unicode="&#x5230;" d="M726 655 q-2 6 -2 13.5 q0 7.5 11.5 12.5 q11.5 5 19.5 5 q18 0 42.5 -39.5 q24.5 -39.5 24.5 -59 q0 -19.5 -4.5 -33.5 q-4.5 -14 -12.5 -99.5 q-8 -85.5 -8 -219.5 q0 -134 8.5 -199.5 q8.5 -65.5 8.5 -92 q0 -26.5 -12.5 -70.5 q-12.5 -44 -23.5 -44 q-4 0 -37 25 q-33 25 -87.5 71 q-54.5 46 -68 61.5 q-13.5 15.5 -13.5 20 q0 4.5 6 4.5 q6 0 21 -8 q57 -31 124 -31 q17 0 20.5 5.5 q3.5 5.5 3.5 17 q0 11.5 -1 30.5 q-6 77 -6 209 q0 132 5.5 211 q5.5 79 5.5 131 q0 52 -17 73 q-54 -164 -80 -272 q1 -126 -3 -178.5 q-4 -52.5 -9 -62.5 q-5 -10 -11 -10 q-14 0 -42.5 58 q-28.5 58 -28.5 76.5 q0 18.5 10 32.5 q21 32 21 58 q0 11 -9 43 q-9 32 -20 45 q-11 13 -18 13 q-20 0 -45 -65 q16 -25 16 -34 q0 -9 -11 -24.5 q-11 -15.5 -39 -43.5 q-28 -28 -53 -47 q42 -50 42 -69 q0 -11 -17.5 -35.5 q-17.5 -24.5 -39.5 -40.5 q-15 -18 -22 -37 q8 -1 20 -1 q12 0 25 3 q13 3 22 3 q9 0 17.5 -3.5 q8.5 -3.5 19 -12 q10.5 -8.5 13.5 -31.5 q3 -23 3 -29 q0 -6 -14 -6 l-31 2 q-39 0 -90 -13 q-51 -13 -91 -31 q-40 -18 -62 -18 q-22 0 -27.5 8.5 q-5.5 8.5 -5.5 49.5 q0 41 7.5 53 q7.5 12 43.5 9 q54 36 66 67 q-63 -18 -81 -18 q-18 0 -23.5 15.5 q-5.5 15.5 -5.5 41 q0 25.5 4 38 q4 12.5 9 15.5 q5 3 17.5 3 q12.5 0 43 16 q30.5 16 60.5 45 q2 8 2 18 q0 10 -5 20 q-54 -35 -95 -56.5 q-41 -21.5 -54 -26.5 q-13 -5 -28 -5 q-15 0 -20.5 5.5 q-5.5 5.5 -11 35 q-5.5 29.5 -5.5 46 q0 16.5 5 23.5 q5 7 21 7 q16 0 73.5 42 q57.5 42 126.5 108 q-28 25 -64.5 63.5 q-36.5 38.5 -39.5 42 q-3 3.5 -3 7.5 q0 4 14 4 l30 -2 q13 0 28.5 3.5 q15.5 3.5 19.5 8 q4 4.5 43.5 9.5 q39.5 5 57.5 5 q18 0 29.5 -6 q11.5 -6 30.5 -31.5 q19 -25.5 19 -37.5 q0 -12 -27 -42 q-70 -77 -80 -96 q39 10 63 10 q24 0 42 -14 q33 77 70 77 q25 0 42 -17 q17 -17 33 -52 q45 75 94 244 ZM380 334 q-16 1 -34 -14 q-1 -14 6 -18 q28 10 28 32 Z" /><glyph glyph-name="" unicode="&#x5f97;" d="M673 263 q26 4 94.5 8.5 q68.5 4.5 89.5 4.5 q21 0 30 -6.5 q9 -6.5 12.5 -20.5 q3.5 -14 3.5 -23 q0 -15 -10 -15 q-10 0 -26 4.5 q-16 4.5 -56.5 4.5 q-40.5 0 -87.5 -4 q-1 -17 -1 -41 q0 -24 5 -98 l10 -136 q0 -22 -9.5 -53 q-9.5 -31 -21 -53.5 q-11.5 -22.5 -16 -26.5 q-4.5 -4 -10 -4 q-5.5 0 -8.5 8.5 q-3 8.5 -32 28.5 q-77 52 -131 113.5 q-54 61.5 -54 108.5 q0 57 74 57 q37 0 64 -19.5 q27 -19.5 27 -44.5 q0 -25 -19 -30 q-19 -5 -37 -20 q-6 -6 -19.5 -6 q-13.5 0 -23.5 -19 q73 -39 112 -39 q11 0 18 3 q7 3 9.5 8 q2.5 5 4.5 37 q2 32 2 67 q0 94 -15 147 q-47 -14 -114.5 -42 q-67.5 -28 -97 -43 q-29.5 -15 -47.5 -15.5 q-18 -0.5 -36 3.5 q-18 4 -25 15.5 q-7 11.5 -7 16.5 q0 5 17.5 5.5 q17.5 0.5 42 17.5 q24.5 17 87.5 37 q13 4 49 27 q36 23 65 48 q2 7 -4.5 7 q-6.5 0 -11.5 -3 q-69 -43 -95 -43 q-7 0 -26.5 14 q-19.5 14 -19.5 28 q0 22 23 26 q10 2 27 10.5 q17 8.5 29 19.5 q-11 33 -32 54 q-8 8 -8 28 q0 7 1 11 q7 24 7 79 q0 55 -15 62 q-3 1 -6 10 q-3 9 -3 15.5 q0 6.5 10 6.5 q10 0 25 -6 q-4 23 30 51.5 q34 28.5 70 38.5 q36 10 43 23.5 q7 13.5 26 13.5 q19 0 57 -23 q38 -23 50 -43 q12 -20 12 -34 q0 -14 -13.5 -27.5 q-13.5 -13.5 -17.5 -37.5 q-4 -24 -17.5 -81.5 q-13.5 -57.5 -20.5 -79.5 q-7 -22 -4 -41 q15 -5 23.5 -16 q8.5 -11 8.5 -21 q0 -10 -8 -10 q-28 -1 -42 -13.5 q-14 -12.5 -11 -29.5 ZM661 630 q-6 2 -15.5 2 q-9.5 0 -42.5 -13 q-33 -13 -66 -13 l-24 3 q-8 0 -14 -5.5 q-6 -5.5 -5 -12.5 q29 -5 49 -45 q71 33 86 33 q15 0 30 -6 q3 28 2 57 ZM654 510 q-27 -33 -75 -36 q-24 -14 -28 -32 q72 22 100 25 q4 22 3 43 ZM562 484 q-6 5 -12 5 q-6 0 -9 -2 q-3 -7 -3 -14 q0 -7 1 -11 q15 5 23 22 ZM657 368 q2 5 2 10.5 q0 5.5 -9 7.5 q-11 -10 -17.5 -13.5 q-6.5 -3.5 -10.5 -3.5 l-8 1 q-7 0 -56 -25 q-49 -25 -78 -44 q101 24 177 67 ZM556 367 q-7 6 -14.5 6 q-7.5 0 -12.5 -2 q-5 -11 -5 -18 q0 -7 1 -12 q19 7 31 26 ZM516 52 q-4 6 -15.5 6 q-11.5 0 -16 -3.5 q-4.5 -3.5 -4.5 -16.5 q0 -13 7 -13 q4 0 15 8.5 q11 8.5 14 18.5 ZM278 458 q-53 -48 -68 -48 q-5 0 -10 10 q-5 10 -12 36 q-7 26 -7 52 q0 26 9 26 q2 0 6 -1.5 q4 -1.5 7 -1.5 q14 0 37.5 24.5 q23.5 24.5 43.5 50 q20 25.5 20 52.5 q0 11 -2.5 18.5 q-2.5 7.5 -2.5 12 q0 4.5 7 4.5 q18 0 75.5 -36.5 q57.5 -36.5 57.5 -63.5 q0 -13 -8.5 -23.5 q-8.5 -10.5 -19.5 -10.5 q-23 0 -74 -51 q49 -51 49 -87 q0 -26 -17 -41 q-34 -26 -71 -92 q15 -25 15 -38.5 q0 -13.5 -3 -19.5 q-14 -34 -14 -141 q0 -24 5.5 -30.5 q5.5 -6.5 5.5 -23.5 q0 -108 -2.5 -120 q-2.5 -12 -8.5 -12 q-13 0 -34 34.5 q-21 34.5 -23 45 q-2 10.5 -2 32.5 q0 58 14 213 q-104 -144 -119 -144 q-7 0 -15 27.5 q-8 27.5 -8 35.5 q0 33 40.5 96 q40.5 63 83.5 87 q20 29 36 65 q16 36 16 46.5 q0 10.5 -7 16.5 ZM210 287 q-3 5 -7 5 q-10 0 -32 -35 q-22 -35 -22 -44.5 q0 -9.5 7 -14.5 q28 41 54 89 Z" /><glyph glyph-name="" unicode="&#x5bf9;" d="M766 509 l83 26 q18 0 45 -25 q27 -25 27 -44 q0 -13 -11 -22.5 q-11 -9.5 -30 -9.5 q-71 -1 -115 -13 q-4 -145 12 -334 q2 -23 2 -43 q0 -61 -18.5 -114.5 q-18.5 -53.5 -35.5 -53.5 q-10 0 -19 19 q-9 19 -70 65 q-22 16 -68.5 79.5 q-46.5 63.5 -46.5 76.5 q0 3 2.5 3 q2.5 0 11.5 -9 q25 -26 77 -48.5 q52 -22.5 78 -22.5 q7 0 9.5 4 q2.5 4 2.5 22 q0 182 -12 330 q-52 -40 -75 -51.5 q-23 -11.5 -53 -11.5 l-30 1 q-55 0 -91 -72 q52 -66 52 -114 q0 -20 -7 -31 q-7 -11 -17.5 -11 q-10.5 0 -25.5 9.5 q-15 9.5 -38 41 q-23 31.5 -48 48.5 q-40 -58 -90 -88 q-50 -30 -88 -30 q-38 0 -59 24 q-21 24 -21 46 q0 7 4.5 7 q4.5 0 14.5 -9 q10 -9 38 -9 q18 0 33 7 q15 7 36.5 29 q21.5 22 53.5 66 q-37 11 -74 14 q-37 3 -57 18 q-3 2 -11 2 q-8 0 -20 -4.5 q-12 -4.5 -17.5 -10 q-5.5 -5.5 -8.5 -5.5 q-3 0 -3 12 q0 12 10 20 q10 8 31.5 15 q21.5 7 54 12.5 q32.5 5.5 67.5 5.5 q35 0 75 -10 q37 67 37 77 q0 4 -6 2 q-16 -4 -37 -4 q-21 0 -51 14 q-30 14 -44.5 38 q-14.5 24 -14.5 31 q0 6 15 8 q15 2 34.5 11.5 q19.5 9.5 90.5 50.5 q14 8 34 8 q40 0 74 -32.5 q34 -32.5 34 -63.5 q0 -9 -2 -15 q-2 -6 -37 -69 q-35 -63 -48 -87 q7 -1 13 -6 q6 14 19.5 34 q13.5 20 22.5 29 q9 9 14 19 q14 24 26 33.5 q12 9.5 71.5 36 q59.5 26.5 119.5 51.5 q5 79 5 124 q0 16 -12.5 34 q-12.5 18 -22 18 q-9.5 0 -12.5 -2.5 q-3 -2.5 -2 -5.5 q15 -33 15 -53 q0 -5 -2 -5 q-6 0 -20 40 q-14 40 -14 50 q0 10 6.5 16 q6.5 6 16.5 6 q10 0 41 -13.5 q31 -13.5 48.5 -30.5 q17.5 -17 24.5 -31 q7 -14 7 -39 q0 -25 -4 -81 ZM556 285 q45 0 68 -29 q23 -29 23 -59 q0 -23 -31 -23 q-53 0 -87.5 37.5 q-34.5 37.5 -34.5 50 q0 12.5 22 18 q22 5.5 40 5.5 Z" /><glyph glyph-name="" unicode="&#x53d1;" d="M615 114 q97 -52 134.5 -76.5 q37.5 -24.5 48.5 -46 q11 -21.5 11 -67 q0 -45.5 -9 -45.5 q-3 0 -13 8 q-127 101 -207 152 q-53 -60 -87.5 -75 q-34.5 -15 -60.5 -15 q-26 0 -50.5 11.5 q-24.5 11.5 -65.5 37.5 q-28 -56 -50.5 -86.5 q-22.5 -30.5 -26.5 -30.5 q-6 0 -9 21 q-3 21 -3 38.5 q0 17.5 14 46.5 q14 29 66 118 q-11 4 -26 4 q27 26 41 33 q44 131 73 207 q-124 -131 -178 -131 q-8 0 -15.5 4.5 q-7.5 4.5 -12.5 27.5 q-5 23 -5 40 q0 17 8 30 q46 78 62 110 q16 32 16 43 q0 11 -5.5 16.5 q-5.5 5.5 -5.5 9.5 q0 4 6 4 q15 0 48.5 -23.5 q33.5 -23.5 45.5 -60.5 q59 43 85 58 q61 159 61 171.5 q0 12.5 -23 15.5 q-13 1 -13 7 q0 6 16.5 17 q16.5 11 34.5 11 q18 0 34.5 -10.5 q16.5 -10.5 16.5 -44.5 q0 -34 -18 -79 q26 4 45 4 q61 0 61 -46 q0 -8 -7.5 -11.5 q-7.5 -3.5 -32.5 -6.5 q-48 -6 -137 -83 q-41 -87 -77 -190 q45 40 82.5 70 q37.5 30 47.5 37.5 q10 7.5 21 10.5 q11 3 27 3 q16 0 30.5 -11 q14.5 -11 28.5 -24 q14 -13 14 -28 q0 -8 -11 -47 q-11 -39 -30 -129 ZM541 147 q14 30 23.5 67.5 q9.5 37.5 9.5 48.5 q0 11 -6 11 q-6 0 -50.5 -38.5 q-44.5 -38.5 -66.5 -65.5 q50 -6 90 -23 ZM508 78 q-46 25 -82.5 25 q-36.5 0 -69.5 -7 q-4 -5 -33 -82 q20 -11 53 -11 q33 0 71 20 q38 20 61 55 ZM789 534 q0 -16 -5.5 -31 q-5.5 -15 -27.5 -20.5 q-22 -5.5 -30 -5.5 q-15 0 -25.5 18 q-10.5 18 -10.5 29.5 q0 11.5 4 15.5 q4 4 4 8 q0 16 -32 42 q-3 2 -3 4 q0 5 21 7.5 q21 2.5 31 2.5 q32 0 53 -19.5 q21 -19.5 21 -50.5 Z" /><glyph glyph-name="" unicode="&#x590d;" d="M644 24 q111 -47 149 -73 q38 -26 51.5 -59 q13.5 -33 13.5 -50 q0 -17 -18 -17 q-31 0 -95.5 51.5 q-64.5 51.5 -147.5 92.5 q-52 -58 -110 -58 q-98 0 -163 60 q-23 -34 -35.5 -45.5 q-12.5 -11.5 -23.5 -11.5 q-11 0 -20.5 15.5 q-9.5 15.5 -9.5 34.5 q0 42 25 56 q29 15 53.5 45 q24.5 30 84 90 q59.5 60 59.5 68 q0 4 -5 8 q-3 -2 -11 -6 q-10 -17 -39 -21 q-18 -15 -71 -46.5 q-53 -31.5 -69 -38 q-16 -6.5 -26 -6.5 q-22 0 -22 31 q0 16 5 40 q5 24 17 26 q23 2 49.5 20.5 q26.5 18.5 69.5 38.5 q5 86 51 162 q46 76 145 160 q-22 -5 -53 -17 q-31 -12 -41 -19.5 q-10 -7.5 -33.5 -20.5 q-23.5 -13 -36 -18.5 q-12.5 -5.5 -46 -25 q-33.5 -19.5 -40.5 -25.5 q-31 -24 -51 -24 q-31 0 -31 52 q0 74 48 68 q64 35 97 78 q33 43 33 55.5 q0 12.5 -5 20.5 q-5 8 -5 14 q0 6 13 6 q13 0 38.5 -20 q25.5 -20 49.5 -82 q114 43 139 43 q25 0 52 -15 q27 -15 27 -27.5 q0 -12.5 -28.5 -28 q-28.5 -15.5 -74.5 -51.5 q27 -29 39.5 -53 q12.5 -24 9.5 -39.5 q-3 -15.5 -16 -131.5 q-5 -50 -30 -83 q-25 -33 -68 -40 q0 -7 -6 -10 q46 12 71 12 q25 0 58.5 -26 q33.5 -26 33.5 -43.5 q0 -17.5 -11 -28.5 q-11 -11 -13 -23.5 q-2 -12.5 -10.5 -32 q-8.5 -19.5 -16.5 -31.5 ZM531 307 q14 -12 24 -12 q10 0 15.5 12.5 q5.5 12.5 12 56.5 q6.5 44 6.5 93.5 q0 49.5 -21 71.5 q-49 -37 -73 -72 q30 -5 49 -27.5 q19 -22.5 19 -47.5 q0 -20 -32 -75 ZM435 321 q22 13 37.5 30.5 q15.5 17.5 15.5 26.5 q0 9 -34 29 q-23 -54 -23 -65.5 q0 -11.5 4 -20.5 ZM573 49 q13 21 27 52 q14 31 14 47 q0 16 -13.5 16 q-13.5 0 -54 -19.5 q-40.5 -19.5 -71.5 -49.5 q39 -26 98 -46 ZM537 -3 q-90 48 -120 48 q-18 0 -35 -13 q-17 -13 -39 -41 q28 -31 88 -31 q69 0 106 37 Z" /><glyph glyph-name="" unicode="&#x9ad8;" d="M506 764 q51 0 78 -29.5 q27 -29.5 27 -39 q0 -9.5 -2 -14 q-2 -4.5 -7 -8.5 q-5 -4 -36 -19.5 q-31 -15.5 -51.5 -24.5 q-20.5 -9 -31 -12 q-10.5 -3 -29 -4 q-18.5 -1 -44 -11.5 q-25.5 -10.5 -28.5 -10.5 q-3 0 -3 2 q0 2 8 8 q89 68 89 75 q0 4 -13 17 q-47 46 -47 54 q0 11 37.5 14 q37.5 3 52.5 3 ZM593 250 q53 8 140 8 q21 0 32 -6.5 q11 -6.5 42 -35.5 q31 -29 42 -43.5 q11 -14.5 11 -24 q0 -9.5 -4.5 -17.5 q-4.5 -8 -10.5 -25.5 q-6 -17.5 -7 -22.5 q-12 -58 -27.5 -99.5 q-15.5 -41.5 -39.5 -81 q-24 -39.5 -38 -51.5 q-14 -12 -41 -22 q-27 -10 -37 -10 q-10 0 -15 4 q-39 30 -70 44 q-54 25 -119.5 81 q-65.5 56 -65.5 84 q0 21 31 41 q31 20 75 20 q44 0 78 -24.5 q34 -24.5 34 -43 q0 -18.5 -22 -24.5 q-10 -3 -32 -16 q-22 -13 -40 -28 q52 -24 123 -24 q22 0 38 3 q16 3 24.5 12 q8.5 9 24 49 q15.5 40 26 88 q10.5 48 10.5 73 q0 25 -9 31 q-9 6 -37 6 q-81 0 -118 -12 q-2 -44 -18 -60 q-16 -16 -26 -16 q-18 0 -50 49 q-12 0 -39 -17 q-13 -8 -50.5 -21 q-37.5 -13 -57.5 -17.5 q-20 -4.5 -39.5 -27.5 q-19.5 -23 -19.5 -90 q0 -21 4 -47.5 q4 -26.5 4 -29.5 q0 -22 -15 -22 q-10 0 -26.5 21.5 q-16.5 21.5 -27.5 34.5 q-11 13 -13.5 59.5 q-2.5 46.5 -8.5 65 q-6 18.5 -6 28.5 q0 10 8 24.5 q8 14.5 14 14.5 q6 0 6 -8 l-1 -10 q0 -18 34 -25 q9 23 36.5 47.5 q27.5 24.5 57.5 36.5 q1 3 2 19 q-10 -6 -50 -28 q-40 -22 -47 -22 q-7 0 -7 3 q0 3 8 8 q75 44 96 72 q0 102 10 158.5 q10 56.5 38 81.5 q11 10 8 18 q-32 -10 -168 -85 q-21 -12 -33 -12 q-22 0 -33 40 q-11 40 -11 52 q0 10 13 14 q20 6 28.5 11 q8.5 5 22.5 17 q14 12 19.5 12 q5.5 0 5.5 -4 q0 -4 -2.5 -9 q-2.5 -5 -2.5 -7.5 q0 -2.5 3.5 -2.5 q3.5 0 12.5 5 q84 42 136.5 61.5 q52.5 19.5 184.5 55.5 q21 6 37 14.5 q16 8.5 36 8.5 q20 0 48 -15.5 q28 -15.5 28 -36 q0 -20.5 -30 -20.5 q-24 0 -69.5 -15.5 q-45.5 -15.5 -75.5 -35.5 q30 -29 35 -40.5 q5 -11.5 5 -49.5 q0 -38 -7 -103.5 q-7 -65.5 -5 -87.5 ZM524 437 q2 15 2 26 q0 32 -16 32 q-8 0 -37.5 -16.5 q-29.5 -16.5 -35.5 -48.5 q45 12 60.5 12 q15.5 0 26.5 -5 ZM426 350 q-4 -15 -4 -51 q33 38 33 45 q0 7 -9 7 q-9 0 -20 -1 ZM517 302 q-22 -30 -65 -55 q34 -17 47.5 -17 q13.5 0 13.5 11 q0 32 4 61 ZM462 218 q-4 11 -17 25 q-9 -4 -22 -13 l0 -27 q30 11 39 15 ZM446 -13 q3 -1 6 -1 q6 0 16 17.5 q10 17.5 10 23 q0 5.5 -8.5 5.5 q-8.5 0 -27.5 -9 q-2 -15 -2 -23 q0 -8 6 -13 Z" /><glyph glyph-name="" unicode="&#x6d77;" d="M763 260 q21 3 35 3 q41 0 64.5 -29.5 q23.5 -29.5 23.5 -39.5 q0 -12 -17.5 -12 q-17.5 0 -48.5 10.5 q-31 10.5 -62 10.5 q-4 -40 -11 -87 q53 -3 76.5 -30.5 q23.5 -27.5 23.5 -35.5 q0 -8 -7.5 -13.5 q-7.5 -5.5 -13 -5.5 q-5.5 0 -7.5 1 q-8 4 -84 21 q-13 -67 -53.5 -132 q-40.5 -65 -64.5 -65 q-6 0 -10.5 3 q-4.5 3 -29 30 q-24.5 27 -39.5 52.5 q-15 25.5 -25 56 q-10 30.5 -19 68.5 q-15 0 -45 -13.5 q-30 -13.5 -42 -24.5 q-12 -11 -24 -11 q-12 0 -20 10.5 q-8 10.5 -8 30 q0 19.5 3.5 34 q3.5 14.5 9 14.5 q5.5 0 11.5 7 q6 7 18 29 q-33 -11 -47 -20 q-14 -9 -31 -6 q-22 -115 -22 -155 l2 -21 q0 -16 -12 -16 q-20 0 -43 13.5 q-23 13.5 -36 37 q-13 23.5 -18 56.5 q-5 33 -5 78 l3 147 q0 58 -3 67 q-9 32 -9 65 q0 33 11 52 q11 19 24 19 q5 0 5 -3.5 q0 -3.5 -3.5 -7 q-3.5 -3.5 -3.5 -10.5 q0 -22 51 -96 q10 -13 10 -47 q0 -34 -12.5 -60 q-12.5 -26 -21 -70.5 q-8.5 -44.5 -8.5 -75.5 q0 -31 2 -45 q20 32 45 102 q-17 18 -17 28 q0 10 34 15 q37 78 99 252 q13 38 44.5 96.5 q31.5 58.5 62 105 q30.5 46.5 42 57 q11.5 10.5 24.5 10.5 q22 0 46.5 -31 q24.5 -31 24.5 -52 q0 -21 -12 -43 q44 20 65.5 20 q21.5 0 33.5 -21 q12 -21 12 -32 q0 -11 -33 -29 q-67 -37 -90 -63 q-23 -26 -35 -88 q41 19 66 41 q6 5 16 5 q26 0 71.5 -30 q45.5 -30 45.5 -62 q0 -5 -5.5 -26 q-5.5 -21 -6.5 -39 ZM555 460 q-32 -9 -59 -26 q-6 -4 -15.5 -4 q-9.5 0 -18.5 16.5 q-9 16.5 -9 47.5 q0 29 19 35 q19 6 46 42.5 q27 36.5 27 48.5 q0 4 -6 4 q-6 0 -20 -6 q-14 -6 -36 -39 q-22 -33 -35.5 -60.5 q-13.5 -27.5 -50.5 -138.5 l-61 -183 q37 8 107 19 q37 70 61 136 q24 66 51 108 ZM684 251 q2 22 2 56 q0 34 -3 42 q-3 8 -12 8 q-9 0 -34 -18 q18 -27 18 -51.5 q0 -24.5 -11 -41.5 q12 1 40 5 ZM569 294 q-12 -5 -24 -15 q-9 -25 -24 -51 q20 4 46 6 q7 24 7 39.5 q0 15.5 -5 20.5 ZM680 200 l-55 -7 q-9 -21 -23 -66 q21 0 67 -3 q7 34 11 76 ZM553 185 q-43 -6 -57 -12 q-15 -29 -25 -51 q70 10 82 63 ZM657 65 q-49 6 -88.5 6 q-39.5 0 -66.5 -4 q22 -55 56.5 -73.5 q34.5 -18.5 52 -18.5 q17.5 0 22.5 11.5 q5 11.5 24 78.5 ZM278 652 q5 0 33 -15.5 q28 -15.5 60.5 -39.5 q32.5 -24 39 -36.5 q6.5 -12.5 6.5 -31 q0 -18.5 -9.5 -34.5 q-9.5 -16 -23.5 -18.5 q-14 -2.5 -61 -29.5 q-7 -4 -20.5 -4 q-13.5 0 -39 6 q-25.5 6 -28 7.5 q-2.5 1.5 -2.5 4.5 q0 3 9 7 q32 16 51 35 q19 19 19 32 q0 3 -2 5 q-15 19 -26 57 q-11 38 -11 46.5 q0 8.5 5 8.5 Z" /><glyph glyph-name="" unicode="&#x6cb3;" d="M221 681 q12 0 60.5 -19.5 q48.5 -19.5 67.5 -50.5 q19 -31 19 -51.5 q0 -20.5 -9 -30.5 q-9 -10 -20 -10 q-11 0 -19 2 q-8 2 -18 2 q-10 0 -20 -5 q-10 -5 -20.5 -5 q-10.5 0 -17.5 9.5 q-7 9.5 -22.5 9.5 q-15.5 0 -42 -21.5 q-26.5 -21.5 -26.5 -39 q0 -17.5 12 -33.5 q61 -80 61 -132 q0 -28 -15 -68.5 q-15 -40.5 -35 -72.5 q-20 -32 -25 -32 q-5 0 -5 7 l24 149 q0 12 -12 22 q-26 20 -36 43.5 q-10 23.5 -10 64.5 q0 41 19.5 65 q19.5 24 96.5 75 q12 8 12 23 q0 7 -7 16 q-7 9 -17 34.5 q-10 25.5 -10 34.5 q0 14 15 14 ZM340 421 q-22 18 -22 35 q0 17 10 27 q10 10 27 13 q57 10 123 28.5 q66 18.5 137 20.5 q144 3 163 6.5 q19 3.5 29 3.5 q29 0 47 -24 q18 -24 18 -40 q0 -23 -25 -23 q-6 0 -13 2 q-52 15 -149 15 q12 -22 12 -46 q0 -7 -1 -13 q-11 -44 -11 -142.5 q0 -98.5 4.5 -181.5 q4.5 -83 4.5 -94 q0 -57 -9.5 -93.5 q-9.5 -36.5 -20.5 -36.5 q-4 0 -14 7 q-10 7 -48 38 q-38 31 -67.5 58.5 q-29.5 27.5 -32.5 32 q-3 4.5 -3 7.5 q0 10 12 10 q3 0 7 -1 q47 -14 90 -14 q15 0 20.5 8 q5.5 8 5.5 31 q0 113 -4 235 q-4 122 -7 142 q-3 20 -15 30.5 q-12 10.5 -33.5 10.5 q-21.5 0 -84.5 -18.5 q-63 -18.5 -82 -32.5 q-19 -14 -32 -14 q-13 0 -23 3 q6 -20 6 -34.5 q0 -14.5 -6 -36.5 q-53 -169 -69.5 -233 q-16.5 -64 -21.5 -111.5 q-5 -47.5 -24 -47.5 q-5 0 -13 6.5 q-8 6.5 -31.5 43 q-23.5 36.5 -36.5 67 q-13 30.5 -13 44 q0 13.5 3.5 13.5 q3.5 0 6.5 -8 q11 -31 26 -31 q15 0 27.5 22.5 q12.5 22.5 64.5 142.5 q52 120 68 173 ZM382 337 q35 36 62 53.5 q27 17.5 72.5 17.5 q45.5 0 64.5 -27.5 q19 -27.5 19 -39 q0 -11.5 -3 -14.5 q-38 -38 -38 -70 q0 -10 4 -21.5 q4 -11.5 4 -20.5 q0 -19 -24 -19.5 q-24 -0.5 -99 -23.5 q-2 -6 -6 -6 q-11 0 -43 37.5 q-32 37.5 -32 110.5 q0 26 6 26 q6 0 13 -3 ZM437 258 q25 8 40.5 28.5 q15.5 20.5 15.5 27.5 q0 7 -4.5 7 q-4.5 0 -7.5 -2 q-34 -16 -65 -13 q15 -21 21 -48 Z" /><glyph glyph-name="" unicode="&#x6b22;" d="M566 158 q67 -4 128.5 -22 q61.5 -18 110.5 -44.5 q49 -26.5 65 -71 q16 -44.5 16 -66.5 q0 -13 -9 -13 q-18 0 -129.5 73 q-111.5 73 -184.5 128 q-11 -73 -66 -119 q-55 -46 -114 -46 q-23 0 -40.5 8 q-17.5 8 -17.5 15 q0 7 19.5 8 q19.5 1 69 41.5 q49.5 40.5 72 94 q22.5 53.5 20.5 102.5 q-26 -25 -34.5 -25 q-8.5 0 -17.5 33 q-9 33 -9 62 q0 19 13 29 q21 16 36.5 52.5 q15.5 36.5 35.5 112 q20 75.5 20 86.5 q0 18 -18.5 18 q-18.5 0 -45.5 -28 q-27 -28 -37 -63 q-3 -10 -6.5 -10 q-3.5 0 -3.5 9 q0 55 30 100.5 q30 45.5 79 45.5 q41 0 70 -29.5 q29 -29.5 29 -64.5 q0 -15 -7 -28 q-42 -77 -74 -148 q102 54 117.5 66 q15.5 12 33 12 q17.5 0 49.5 -19.5 q32 -19.5 38 -40 q6 -20.5 6 -38 q0 -17.5 -12.5 -35 q-12.5 -17.5 -44.5 -41.5 q-32 -24 -70 -40 q-38 -16 -58.5 -16 q-20.5 0 -49.5 27 q3 -63 -9 -115 ZM576 279 q70 9 97 49.5 q27 40.5 27 51 q0 10.5 -5.5 10.5 q-5.5 0 -13.5 -7 q-46 -42 -105 -82 q-2 -14 0 -22 ZM326 410 q-21 -59 -47.5 -75 q-26.5 -16 -46.5 -16 q-20 0 -55 37.5 q-35 37.5 -35 43 q0 5.5 3.5 5.5 q3.5 0 11.5 -3.5 q8 -3.5 19 -3.5 q34 0 105 63 q15 13 38 13 q47 0 81.5 -29.5 q34.5 -29.5 34.5 -61.5 q0 -12 -8.5 -21.5 q-8.5 -9.5 -22 -37.5 q-13.5 -28 -19 -55 q-5.5 -27 -23.5 -58 q19 -29 31 -86 q12 -57 12 -66 q0 -9 -8.5 -9 q-8.5 0 -40.5 20.5 q-32 20.5 -55 56.5 q-49 -58 -89.5 -86.5 q-40.5 -28.5 -68.5 -28.5 q-14 0 -22 6.5 q-8 6.5 -30 46 q-22 39.5 -22 43.5 q0 4 2.5 4 q2.5 0 9.5 -6 q19 -15 39 -15 q52 0 117 92 q-10 16 -39.5 24.5 q-29.5 8.5 -100.5 18.5 q-11 2 -11 6 q0 10 43.5 29 q43.5 19 100.5 19 q33 0 57 -8 q18 25 29.5 60 q11.5 35 11.5 53 q0 18 -2 25 Z" /><glyph glyph-name="" unicode="&#x8fd8;" d="M613 36 q26 -2 53 -2 l137 4 q39 0 83 -1.5 q44 -1.5 54.5 -2.5 q10.5 -1 16 -6 q5.5 -5 5.5 -12 q0 -29 -85 -55 q-85 -26 -134 -26 q-19 0 -124.5 28 q-105.5 28 -145.5 43.5 q-40 15.5 -61 20.5 q-21 5 -48 5 q-27 0 -78 -7 q-51 -7 -69.5 -12 q-18.5 -5 -21.5 -5 q-13 0 -21 41 l-7 38 q0 11 9 11 q9 0 16.5 -5 q7.5 -5 23.5 -5 q16 0 31 2 q19 15 19 25.5 q0 10.5 -10 14.5 q-26 10 -41 33 q-15 23 -15 48.5 q0 25.5 5 39 q5 13.5 5 18.5 q0 5 -13 5 q-28 0 -40.5 25 q-12.5 25 -12.5 57 q0 8 20.5 32.5 q20.5 24.5 39 41.5 q18.5 17 18.5 28 q0 5 -6.5 13.5 q-6.5 8.5 -21 31.5 q-14.5 23 -14.5 28 q0 5 5.5 5 q5.5 0 17.5 -9 q12 -9 17.5 -9 q5.5 0 11.5 3.5 q6 3.5 8 3.5 q9 0 36 -12.5 q27 -12.5 44 -33.5 q17 -21 17 -33 q0 -12 -7 -16 q-7 -4 -26 -4 q-37 0 -82 -26 q-45 -26 -45 -37 q0 -8 28 -8 q32 0 45 -18 q31 -41 40.5 -48.5 q9.5 -7.5 9.5 -14.5 q0 -7 -3 -9 q-17 -8 -32.5 -27.5 q-15.5 -19.5 -15.5 -30.5 q0 -11 31 -36 q19 -15 48 -87 q9 1 24 1 q58 0 99.5 -16.5 q41.5 -16.5 96.5 -25.5 q1 4 1 9 q0 22 -9 33 q-8 10 -8 21 q2 57 3 113 q-32 -43 -68 -66.5 q-36 -23.5 -62 -23.5 q-26 0 -46.5 28.5 q-20.5 28.5 -20.5 49.5 q0 5 2 7 q8 8 8 20 q0 12 -4 23 q-4 11 -4 22 q0 38 33 81.5 q33 43.5 65.5 48 q32.5 4.5 53 13.5 q20.5 9 39 9 q18.5 0 38.5 -11 q25 38 42 69 q-29 -25 -48.5 -37 q-19.5 -12 -44.5 -12 q-25 0 -49.5 13 q-24.5 13 -56 46 q-31.5 33 -31.5 38 q0 3 5.5 3 q5.5 0 18 -6 q12.5 -6 29.5 -6 q17 0 53.5 18.5 q36.5 18.5 107.5 63.5 q32 20 49 20 q17 0 44.5 -16 q27.5 -16 44 -40 q16.5 -24 16.5 -39 q0 -15 -6 -20 q-18 -13 -32 -37 q-43 -73 -83 -128 q-4 -29 -4 -49.5 q0 -20.5 1 -33.5 q123 1 170 -34.5 q47 -35.5 47 -58.5 q0 -4 -1.5 -9.5 q-1.5 -5.5 -22 -7.5 q-20.5 -2 -32 -2 q-11.5 0 -32.5 7.5 q-21 7.5 -33 15.5 q-45 30 -92 38 q4 -23 4 -50 q0 -51 -10.5 -81.5 q-10.5 -30.5 -9.5 -48.5 ZM514 338 q-1 8 -8.5 12.5 q-7.5 4.5 -43.5 9 q-36 4.5 -41 4.5 q-19 0 -41.5 -26 q-22.5 -26 -22.5 -53.5 q0 -27.5 16 -47 q16 -19.5 25 -19.5 q9 0 33 24.5 q24 24.5 83 95.5 Z" /><glyph glyph-name="" unicode="&#x9ec4;" d="M608 429 q146 3 205 14 q16 3 28.5 3 q12.5 0 31 -14.5 q18.5 -14.5 18.5 -38 q0 -23.5 -4.5 -30.5 q-4.5 -7 -18.5 -7 q-14 0 -61.5 4.5 q-47.5 4.5 -117.5 4.5 q-70 0 -131 -6 q-5 -17 -9 -40 q21 6 47 6 q26 0 54 -8 q28 -8 50.5 -22.5 q22.5 -14.5 30 -23 q7.5 -8.5 7.5 -26 q0 -17.5 -11 -63.5 q-11 -46 -29.5 -96 q-18.5 -50 -24.5 -61.5 q-6 -11.5 -17.5 -15 q-11.5 -3.5 -25.5 -3.5 q-14 0 -23.5 8.5 q-9.5 8.5 -27.5 36.5 q-88 -15 -133.5 -33 q-45.5 -18 -42.5 -28 q10 3 13.5 3 q3.5 0 3.5 -1 q0 -2 -12 -9 q-12 -7 -15.5 -12 q-3.5 -5 -6.5 -15 q-11 -36 -29 -46 q-18 -10 -26.5 -20.5 q-8.5 -10.5 -17 -37.5 q-8.5 -27 -17 -27 q-8.5 0 -11.5 8 q-14 33 -21.5 38 q-7.5 5 -12 22.5 q-4.5 17.5 -4.5 40 q0 22.5 6.5 30.5 q6.5 8 11.5 8 q5 0 5 -9 l0 -7 q0 -12 5 -20.5 q5 -8.5 9.5 -8.5 q4.5 0 37.5 15.5 q33 15.5 72 42.5 q-31 16 -39 54 q-23 21 -37 68 q-14 47 -14 86 q0 39 6 58 q6 19 12.5 19 q6.5 0 6.5 -11 l-1 -10 q0 -27 11 -57 q5 61 133 103 q0 25 -15 43 q-17 -3 -23 -6 q-3 -27 -11.5 -27 q-8.5 0 -21.5 19 q-64 -14 -145 -58 q-129 -72 -172 -72 q-22 0 -39.5 14.5 q-17.5 14.5 -17.5 28.5 q0 14 4.5 26 q4.5 12 8 12 q3.5 0 7.5 -4 q4 -4 17.5 -4 q13.5 0 36.5 12 q46 23 268 92 q-15 30 -13 61 q-32 17 -61 44 q-29 27 -29 36.5 q0 9.5 5 9.5 q5 0 10 -6 q5 -6 19.5 -6 q14.5 0 64.5 15 q10 82 10 94.5 q0 12.5 -4 16.5 q-4 4 -4 9.5 q0 5.5 10 5.5 q24 0 65 -47 q29 65 36 65 q2 0 2 -5.5 q0 -5.5 -3.5 -22 q-3.5 -16.5 -9.5 -24.5 q-6 -7 -6 -28 q0 -21 4 -28 q48 14 132 33 q5 62 5 90 q0 28 -6 36.5 q-6 8.5 -22 8.5 q-23 0 -23 6 q0 6 10.5 11.5 q10.5 5.5 26.5 5.5 q32 0 64.5 -18 q32.5 -18 32.5 -44 q0 -7 -2 -12 q-7 -18 -17 -71 q41 -1 57.5 -34 q16.5 -33 16.5 -50 q0 -17 -12 -17 l-14 2 q-19 0 -77 -11 q-8 -30 -29 -68 ZM565 483 q-28 -6 -43 -16 q-49 -31 -80 -43 q-3 -9 -5 -34 q32 10 89 23 q17 23 39 70 ZM635 160 q12 20 19.5 47 q7.5 27 7.5 40 q0 28 -43 28 q-34 0 -79 -23 q-3 -8 -3 -15 q0 -7 1 -13 q33 -1 51.5 -7.5 q18.5 -6.5 23.5 -15 q5 -8.5 5 -25 q0 -16.5 17 -16.5 ZM472 206 q1 15 0 28 q-28 -7 -86 -12 q-18 -2 -25.5 -16.5 q-7.5 -14.5 -9.5 -55.5 q19 -74 31 -91 q18 6 73 21 q8 15 13 44 q-102 5 -102 24 q0 24 106 58 ZM635 153 q-13 2 -23 2 q-23 0 -84 -19 l-5 -41 q24 7 41.5 7 q17.5 0 34.5 -4 q12 2 18.5 13 q6.5 11 17.5 42 ZM797 -82 q0 -27 -12.5 -53 q-12.5 -26 -16.5 -26 q-4 0 -8 6 q-22 34 -49 37 q-22 2 -39 26 q-17 24 -17 29.5 q0 5.5 8.5 5.5 q8.5 0 23 -2 q14.5 -2 26 -2 q11.5 0 15.5 6.5 q4 6.5 4 20.5 q0 27 -32 36 q-12 3 -12 8 q0 5 23 5 q44 0 65 -23 q21 -23 21 -74 Z" /><glyph glyph-name="" unicode="&#x56de;" d="M198 427 q39 89 139 118 q100 29 185 29 q112 0 203.5 -52.5 q91.5 -52.5 91.5 -114.5 q0 -29 -33.5 -154.5 q-33.5 -125.5 -57.5 -161.5 q-24 -36 -57 -64.5 q-33 -28.5 -45.5 -28.5 q-12.5 0 -27.5 25 l-47 73 q-40 9 -64 9 q-24 0 -54.5 -9 q-30.5 -9 -122.5 -48 q-17 -7 -23.5 -7 q-6.5 0 -13 6.5 q-6.5 6.5 -16.5 22.5 q-17 1 -30.5 11.5 q-13.5 10.5 -35 42 q-21.5 31.5 -28 58 q-6.5 26.5 -14.5 104.5 q-8 78 -8 123.5 q0 45.5 2 50 q2 4.5 8 4.5 q6 0 21.5 -7.5 q15.5 -7.5 27.5 -29.5 ZM572 133 q30 -14 42.5 -14 q12.5 0 19 11 q6.5 11 26 75 q19.5 64 30 122.5 q10.5 58.5 10.5 85.5 q0 45 -35.5 75.5 q-35.5 30.5 -110.5 30.5 q-75 0 -120 -21 q-31 -15 -55.5 -19.5 q-24.5 -4.5 -73.5 -4.5 q-27 0 -49.5 -16 q-22.5 -16 -32.5 -44 q8 -52 8 -74 q0 -22 -2.5 -46 q-2.5 -24 -2.5 -29 q0 -27 10 -63 q10 -36 22.5 -48 q12.5 -12 39.5 -24 q22 10 53 31 q31 21 41 31.5 q10 10.5 10 16.5 q0 13 -15 13 q-4 0 -8 -2 q-13 -32 -19 -32 q-6 0 -16.5 14.5 q-10.5 14.5 -18 27 q-7.5 12.5 -11.5 45 q-4 32.5 -8.5 48 q-4.5 15.5 -13 36.5 q-8.5 21 -8.5 30 q0 16 20 16 q20 0 56 -9 q98 75 136 75 q12 0 35.5 -12 q23.5 -12 42 -28 q18.5 -16 22 -23 q3.5 -7 3.5 -19 q0 -28 -15 -40 q-57 -45 -57 -73 q0 -8 7.5 -20.5 q7.5 -12.5 7.5 -18.5 q0 -6 -6.5 -11.5 q-6.5 -5.5 -32 -18.5 q-25.5 -13 -59.5 -26 q-11 -5 -24 -18 q8 -1 18 -1 q10 0 30.5 4.5 q20.5 4.5 34.5 4.5 q51 0 69 -38 ZM388 302 q42 0 56.5 16 q14.5 16 14.5 24 q0 8 -8.5 8 q-8.5 0 -30.5 -4 q-22 -4 -35 -10 q1 -26 3 -34 Z" /><glyph glyph-name="" unicode="&#x89c1;" d="M533 200 q-14 -27 -36.5 -90.5 q-22.5 -63.5 -22.5 -75.5 q0 -24 30 -34 q30 -10 79 -10 q49 0 102.5 4.5 q53.5 4.5 73 11 q19.5 6.5 32.5 20.5 q13 14 19.5 38.5 q6.5 24.5 8 60 q1.5 35.5 8.5 35.5 q2 0 4 -3.5 q2 -3.5 15 -46.5 l28 -96 q16 -53 16 -57 q0 -12 -13.5 -23 q-13.5 -11 -59 -19.5 q-45.5 -8.5 -118.5 -8.5 q-73 0 -145 7 q-72 7 -89 14.5 q-17 7.5 -31.5 40.5 q-14.5 33 -14.5 86.5 q0 53.5 34 134.5 q4 10 4 18 q0 21 -24 21 q-20 -54 -67.5 -115.5 q-47.5 -61.5 -96 -103 q-48.5 -41.5 -84 -55 q-35.5 -13.5 -46 -13.5 q-10.5 0 -15.5 9.5 q-5 9.5 -5 13.5 q0 10 31.5 31 q31.5 21 94 96 q62.5 75 89.5 126 q-34 42 -46 62.5 q-12 20.5 -12 29.5 q0 9 1 14 q4 25 11 95 q7 70 7 90.5 q0 20.5 -5.5 50 q-5.5 29.5 -10 38 q-4.5 8.5 -4.5 13 q0 4.5 10.5 4.5 q10.5 0 44.5 -16 q46 64 76 82 q30 18 60.5 31.5 q30.5 13.5 53 13.5 q22.5 0 57.5 -23.5 q35 -23.5 49 -40.5 q14 -17 14 -40 q0 -23 -4 -71.5 q-4 -48.5 -4 -99.5 l3 -98 q0 -66 -12.5 -115 q-12.5 -49 -30 -63 q-17.5 -14 -30.5 -14 q-13 0 -29 40 ZM472 345 q49 -61 55 -61 q6 0 7 8 q1 8 2 70.5 q1 62.5 1 165 q0 102.5 -2 115.5 q-2 13 -10 13 q-8 0 -23.5 -11.5 q-15.5 -11.5 -53 -33 q-37.5 -21.5 -49.5 -24.5 q-26 -6 -28 -20 q6 -10 6 -49 q0 -39 -7 -63 q-11 -37 -11 -124 q0 -40 4 -63 q53 112 53 189 q0 9 -3 32.5 q-3 23.5 -3 41 q0 17.5 10 22 q10 4.5 25 4.5 q25 0 41 -24 q16 -24 16 -57 q0 -23 -30 -131 ZM503 264 q-16 36 -35 67 q-7 -26 -17 -57 q22 2 52 -10 Z" /><glyph glyph-name="" unicode="&#x91d1;" d="M489 619 q61 -29 142 -99 q81 -70 110 -89 q29 -19 81.5 -39 q52.5 -20 88.5 -39 q36 -19 57 -36 q21 -17 24.5 -24 q3.5 -7 3.5 -25 q0 -18 -23 -18 q-46 0 -111 12.5 q-65 12.5 -96.5 26.5 q-31.5 14 -72.5 54 q-41 40 -93 101.5 q-52 61.5 -82 80 q-30 18.5 -72 18.5 q-11 0 -25 -1 q-30 -33 -88 -136 q2 -7 8 -7 q6 0 13 4 q55 31 81.5 41 q26.5 10 58.5 10 q32 0 56.5 -17.5 q24.5 -17.5 24.5 -36.5 q0 -19 -12.5 -28 q-12.5 -9 -56.5 -21 q11 -28 14 -41 q8 1 15 1 q34 0 52.5 -19 q18.5 -19 18.5 -31 q0 -22 -60 -34 q-27 -5 -36 -9 q-2 -18 -6 -141 q51 59 46 71 q-5 12 -5 20 q0 23 31 23 q31 0 51 -18.5 q20 -18.5 20 -36.5 q0 -18 -17 -27.5 q-17 -9.5 -58.5 -47.5 q-41.5 -38 -60.5 -60 q38 1 53 3 q15 2 26 6.5 q11 4.5 24 4.5 q35 0 70 -20 q35 -20 35 -49 q0 -18 -10.5 -27 q-10.5 -9 -26.5 -6 q-54 11 -85.5 11 q-31.5 0 -85.5 -2 q-54 -2 -103 -17 q-49 -15 -86 -32 q-10 -5 -18.5 -5 q-8.5 0 -32.5 20.5 q-24 20.5 -24 32 q0 11.5 9 23.5 q9 12 21 12 l11 -1 q16 0 61 17 q45 17 76 41 q10 47 10 90 q-58 -65 -75 -102 q-3 -8 -15.5 -8 q-12.5 0 -30 21.5 q-17.5 21.5 -17.5 64.5 q0 58 15 58 q10 0 19 -12 q9 -12 25 -12 q37 0 80 40 q1 13 0 31 q-58 -41 -77 -41 q-19 0 -45 15.5 q-26 15.5 -26 42.5 q0 11 6.5 24 q6.5 13 15.5 17.5 q9 4.5 20 19.5 q11 15 43 45 q5 4 5 10 q0 6 -22.5 13.5 q-22.5 7.5 -46.5 38.5 q-48 -73 -80 -118.5 q-32 -45.5 -52.5 -69.5 q-20.5 -24 -33.5 -33.5 q-13 -9.5 -40 -17 q-27 -7.5 -36 -7.5 q-9 0 -9 6 q0 17 38 54 q79 73 230 376 q40 78 68 110 q7 7 7 16 q0 9 -4.5 18 q-4.5 9 -4.5 14.5 q0 5.5 5 8 q5 2.5 25 2.5 q42 0 67 -14.5 q25 -14.5 25 -33 q0 -18.5 -25 -61.5 ZM437 278 q1 21 -12 21 q-8 0 -22.5 -11.5 q-14.5 -11.5 -34 -24.5 q-19.5 -13 -19.5 -16.5 q0 -3.5 3.5 -3.5 q3.5 0 30.5 11 q27 11 54 24 Z" /><glyph glyph-name="" unicode="&#x5c3d;" d="M493 401 q79 -49 144 -129.5 q65 -80.5 174 -120.5 q44 -16 61 -24 q17 -8 38.5 -25 q21.5 -17 26.5 -25.5 q5 -8.5 5 -21.5 q0 -13 -16.5 -23 q-16.5 -10 -52.5 -10 q-36 0 -77.5 2 q-41.5 2 -67.5 26 q-26 24 -68 75.5 q-42 51.5 -65 87.5 q-57 90 -94 115.5 q-37 25.5 -85 25.5 q-30 0 -56 -10 q-7 -25 -17 -50 q-10 -25 -21 -66 q-21 -84 -81 -155.5 q-60 -71.5 -113 -71.5 q-20 0 -35 10.5 q-15 10.5 -14.5 16.5 q0.5 6 12.5 8 q63 8 115.5 94.5 q52.5 86.5 93.5 244.5 q41 158 41 192 q0 15 -6.5 25 q-6.5 10 -19 19.5 q-12.5 9.5 -12.5 19.5 q0 18 26.5 22 q26.5 4 35.5 4 q25 0 40 -13 q17 -4 68 11 q51 15 66.5 28.5 q15.5 13.5 24.5 17.5 q9 4 25 4 q49 0 74.5 -33.5 q25.5 -33.5 25.5 -60 q0 -26.5 -16.5 -48 q-16.5 -21.5 -52.5 -56.5 q-7 -7 -7 -17 q0 -10 10 -12 q28 -5 28 -23 q0 -10 -9 -22 q-9 -12 -14.5 -14.5 q-5.5 -2.5 -25.5 -2.5 q-20 0 -109 -15 ZM379 448 q54 16 90 32.5 q36 16.5 55 36 q19 19.5 37 51 q18 31.5 18 38.5 q0 7 -4 7 q-15 0 -122 -80 q-7 -5 -15.5 -5 q-8.5 0 -19 6.5 q-10.5 6.5 -16 6.5 q-5.5 0 -8.5 -4.5 q-3 -4.5 -8 -34 q-5 -29.5 -7 -54.5 ZM422 67 q0 -14 18.5 -20.5 q18.5 -6.5 32.5 -7.5 q60 -5 99 -37 q39 -32 39 -74 q0 -18 -8.5 -29.5 q-8.5 -11.5 -21.5 -11.5 q-33 0 -88.5 32.5 q-55.5 32.5 -78 69.5 q-22.5 37 -22.5 68.5 q0 31.5 21.5 59 q21.5 27.5 21.5 40.5 q0 7 -10 11.5 q-10 4.5 -19 12.5 q-9 8 -10 14.5 q-1 6.5 -16.5 22 q-15.5 15.5 -15.5 18.5 q0 3 10 0.5 q10 -2.5 24 -2.5 q14 0 24.5 2.5 q10.5 2.5 16.5 2.5 q24 0 65 -17.5 q41 -17.5 41 -53.5 q0 -14 -5.5 -23.5 q-5.5 -9.5 -15.5 -10.5 q-22 -2 -41.5 -21 q-19.5 -19 -40 -25 q-20.5 -6 -20.5 -21 Z" /><glyph glyph-name="" unicode="&#x955c;" d="M696 160 q15 -22 15 -37 q0 -15 -9 -22 q-19 -14 -33.5 -45.5 q-14.5 -31.5 -14.5 -46.5 q0 -36 81.5 -36 q81.5 0 119.5 27.5 q38 27.5 38 93.5 l-3 47 q0 12 5 12 q10 0 35.5 -79 q25.5 -79 25.5 -107 q0 -16 -20.5 -27 q-20.5 -11 -73 -18.5 q-52.5 -7.5 -121 -7.5 q-68.5 0 -92 7.5 q-23.5 7.5 -39 28 q-15.5 20.5 -15.5 54.5 q0 34 29 79 q3 4 3 9 q0 5 -7 5 q-28 0 -172 -162 q-7 -8 -14 -8 q-16 0 -16 36 q0 15 2.5 23 q2.5 8 12.5 16 q59 49 103 101 q-20 -7 -50 -25 q-12 -7 -21 -7 q-21 0 -21 30.5 q0 30.5 12.5 42 q12.5 11.5 40.5 20.5 q-28 40 -28 101 q0 61 18 61 q13 0 19 -27 q28 29 52.5 46 q24.5 17 63.5 30 q12 4 12 9 q0 5 -13 3 q-31 -7 -31 -3 q0 2 22 9.5 q22 7.5 51 20 q29 12.5 32 16 q3 3.5 3 7 q0 3.5 -8 3.5 q-20 0 -105 -44 q-85 -44 -133 -81 q-15 -11 -29 -11 q-14 0 -33 13 q-22 -22 -28 -48 q51 -6 51 -43 q0 -16 -14 -19 q-30 -5 -72 -38 q-8 -68 -5 -122 q23 46 40 76 q17 30 22 35.5 q5 5.5 10 5.5 q5 0 5 -7 q0 -7 -2 -14 q-37 -112 -46 -146.5 q-9 -34.5 -11 -61.5 q-1 -11 -9.5 -11 q-8.5 0 -29.5 20 q-21 20 -29 40 q-8 20 -8 57 q0 37 2 82 q-17 -20 -37 -33 q-20 -13 -26 -13 q-11 0 -22.5 18 q-11.5 18 -11.5 32 q0 29 24 41 q41 20 67 73 q-31 -15 -43.5 -15 q-12.5 0 -20.5 14 q-8 14 -19 46 q-43 -58 -62 -74 q-19 -16 -42.5 -16 q-23.5 0 -23.5 15 q0 8 8 14 q30 25 65 70.5 q35 45.5 87 135.5 q52 90 68 124.5 q16 34.5 16 46 q0 11.5 -3.5 25 q-3.5 13.5 -3.5 14.5 q0 14 32 14 q32 0 49 -27 q17 -27 17 -39 q0 -21 -19 -25 q-10 -2 -18 -12 q-8 -10 -25 -41 q26 11 39 23 q13 12 33 12 q20 0 35.5 -17.5 q15.5 -17.5 15.5 -29 q0 -11.5 -7 -17.5 q-30 -22 -43.5 -41.5 q-13.5 -19.5 -42.5 -38.5 q30 -2 43.5 -9 q13.5 -7 26.5 -26 q35 12 69 33 q-5 18 -5 33 q0 34 22.5 41 q22.5 7 32.5 24 q-32 8 -54 27 q-22 19 -22 29 q0 10 10 10 l10 -1 q16 0 57.5 11 q41.5 11 59.5 23 q-49 13 -49 20 q0 7 20 22 q-3 18 -30 38 q-7 5 -7 11 q0 12 19 9 q18 -2 27 -2 l34 2 q29 0 44.5 -13.5 q15.5 -13.5 24.5 -42.5 q30 0 41 -14 q11 -14 11 -26 q0 -12 -14 -17 q-65 -27 -71 -52 q16 3 33.5 3 q17.5 0 27 -12.5 q9.5 -12.5 9.5 -45.5 q31 5 48.5 5 q17.5 0 28.5 -17 q11 -17 11 -21.5 q0 -4.5 -7 -6.5 q-61 -19 -88 -44 q29 1 49 -22.5 q20 -23.5 20 -48.5 q0 -10 -8 -18.5 q-8 -8.5 -16 -26 q-8 -17.5 -20 -55.5 q-12 -38 -20.5 -45.5 q-8.5 -7.5 -23.5 -16.5 ZM630 476 q-32 -8 -47 -35 q54 14 47 35 ZM198 318 q18 -2 37 20 l46 54 q28 34 28 43 q0 9 -29 9 q-42 -69 -82 -126 ZM691 242 q16 50 16 79 q0 9 -4.5 13 q-4.5 4 -16.5 4 q-32 0 -71 -21 q25 -3 41.5 -22 q16.5 -19 16.5 -30 q0 -11 -15 -21 q11 -4 33 -2 ZM530 190 q25 19 38.5 31 q13.5 12 13.5 21.5 q0 9.5 -13.5 27.5 q-13.5 18 -26.5 18 q-13 0 -20 -23 q6 -29 8 -75 Z" /><glyph glyph-name="" unicode="&#x541b;" d="M704 514 q28 3 41 3 q28 0 54.5 -24.5 q26.5 -24.5 26.5 -38.5 q0 -18 -23 -16 q-16 1 -30.5 1 q-14.5 0 -38 -7 q-23.5 -7 -87.5 -31 q-17 -28 -48 -65 q42 1 56.5 -4.5 q14.5 -5.5 31.5 -22.5 q17 -17 17 -27 q0 -12 -11 -12 q-3 0 -6 1 q-43 15 -98.5 15 q-55.5 0 -146.5 -17 q-19 -53 -35 -81 l20 -33 q148 28 177.5 35.5 q29.5 7.5 37.5 17.5 q8 10 23 10 q31 0 71.5 -34.5 q40.5 -34.5 40.5 -47 q0 -12.5 -20.5 -64 q-20.5 -51.5 -41.5 -78.5 q16 -19 16 -34.5 q0 -15.5 -18 -15.5 q-6 0 -13 3 q-22 9 -59 9 q-89 0 -162 -37 q-5 -24 -23.5 -24 q-18.5 0 -38 47.5 q-19.5 47.5 -27.5 109 q-8 61.5 -18 69.5 q-56 -117 -150 -194 q-94 -77 -153 -77 q-16 0 -16 3.5 q0 3.5 13 9.5 q55 24 135.5 126.5 q80.5 102.5 144.5 251.5 q-84 -24 -132 -47 q-14 -7 -29 -7 q-15 0 -26 8.5 q-11 8.5 -11 18 q0 9.5 12 27 q12 17.5 21 22.5 q9 5 29 5 q53 0 168 51 q21 55 36 106 q-76 -18 -207 -72 q-12 -5 -17 -5 q-13 0 -27.5 37 q-14.5 37 -14.5 42 q0 5 3 5 q3 0 8 -2.5 q5 -2.5 12.5 -2.5 q7.5 0 26.5 7 q19 7 89.5 22.5 q70.5 15.5 140.5 27.5 q3 8 3 17 q0 9 -4.5 16 q-4.5 7 -9 7 q-4.5 0 -6.5 -2.5 q-2 -2.5 -7 -2.5 q-13 0 -13 11 q0 23 25 23 q25 0 47 -17 q22 -17 30 -41 q54 10 99 15 q13 42 13 56 q0 14 -11.5 14 q-11.5 0 -48.5 -18 q-13 -6 -26 -6 q-31 0 -72.5 41 q-41.5 41 -41.5 46.5 q0 5.5 10.5 4.5 q10.5 -1 41 -1 q30.5 0 84 5 q53.5 5 60 9 q6.5 4 12.5 4 q12 0 45.5 -23 q33.5 -23 48.5 -39 q15 -16 15 -34 q0 -18 -18 -55 ZM574 452 q-35 -3 -87 -13 q-5 -27 -20 -85 l79 34 q16 29 28 64 ZM529 358 l-66 -22 q-1 -4 -4 -10 q19 5 53 8 q9 10 17 24 ZM471 4 q38 2 68 8 q30 6 49 13.5 q19 7.5 29.5 20.5 q10.5 13 24 36.5 q13.5 23.5 13.5 32 q0 8.5 -8.5 8.5 q-8.5 0 -51.5 -6.5 q-43 -6.5 -72.5 -9.5 q-29.5 -3 -75.5 -2 q14 -51 24 -101 Z" /><glyph glyph-name="" unicode="&#x7a7a;" d="M544 599 q73 10 137 14 q64 4 83 4 q19 0 35 -18 l41 -44 q24 -27 24 -41.5 q0 -14.5 -5.5 -26 q-5.5 -11.5 -20.5 -17.5 q-15 -6 -57.5 -13 q-42.5 -7 -86 -7 q-43.5 0 -74.5 18 q9 -11 9 -17.5 q0 -6.5 -10.5 -24 q-10.5 -17.5 -10.5 -27.5 q0 -10 16 -12 q36 -5 54 -28 q18 -23 18 -34 q0 -18 -36 -33 l-268 -120 q10 -2 22 -2 q64 0 117 41 q16 12 32.5 12 q16.5 0 48 -24 q31.5 -24 31.5 -36.5 q0 -12.5 -14 -27.5 q-58 -62 -96 -108 q93 13 163 13 q37 0 71.5 -30.5 q34.5 -30.5 34.5 -61.5 q0 -23 -27.5 -23 q-27.5 0 -81 19 q-53.5 19 -121.5 19 q-110 0 -274 -61 q-16 -6 -28 -6 q-27 0 -42.5 26.5 q-15.5 26.5 -15.5 38.5 q0 12 4.5 16 q4.5 4 11.5 4 l15 0 q13 0 30 5 q47 14 129 24 q58 45 82 100 q-27 -7 -50 -20 q-8 -5 -25 -5 q-17 0 -41.5 11 q-24.5 11 -24.5 31.5 q0 20.5 10.5 35.5 q10.5 15 34.5 25.5 q24 10.5 79 46 q55 35.5 100 72.5 q-43 19 -43 86 l2 45 q0 26 -19 43 q-6 5 -6 14 q0 9 10 17 q10 8 28.5 8 q18.5 0 40.5 -12.5 q22 -12.5 31 -31.5 q3 12 18 15 q36 7 70.5 32 q34.5 25 34.5 36.5 q0 11.5 -27 11.5 q-60 0 -158.5 -20.5 q-98.5 -20.5 -132 -37 q-33.5 -16.5 -47.5 -16.5 q-8 0 -29.5 7.5 q-21.5 7.5 -35.5 7.5 q-14 0 -27 -14 q-6 -32 -35.5 -101.5 q-29.5 -69.5 -40 -84.5 q-10.5 -15 -17.5 -15 q-7 0 -20 10 q-13 10 -17.5 17.5 q-4.5 7.5 -4.5 40.5 q0 33 5 57.5 q5 24.5 19 36 q14 11.5 31.5 47 q17.5 35.5 17.5 47 q0 11.5 -5 24.5 q-5 13 -5 20.5 q0 7.5 11 7.5 q11 0 26 -12 q15 -12 26 -48 q78 24 178 40 q3 13 3 25.5 q0 12.5 -17 28.5 q-28 26 -42 59 q-14 33 -14 39.5 q0 6.5 4 6.5 q4 0 11 -4 q26 -14 83 -31 q28 -8 50.5 -44.5 q22.5 -36.5 19.5 -65.5 ZM364 486 q12 0 40.5 -18 q28.5 -18 30 -31 q1.5 -13 13.5 -27.5 q12 -14.5 12 -22.5 q0 -21 -46 -69.5 q-46 -48.5 -75.5 -66.5 q-29.5 -18 -48 -18 q-18.5 0 -18.5 35 q0 15 3 30.5 q3 15.5 7.5 24.5 q4.5 9 8.5 11.5 q4 2.5 18 2.5 q14 0 34 30.5 q20 30.5 20 39 q0 8.5 -2 12.5 q-11 21 -11 49 q0 18 14 18 Z" /><glyph glyph-name="" unicode="&#x6765;" d="M543 231 q81 -49 180.5 -93.5 q99.5 -44.5 133 -51.5 q33.5 -7 47.5 -12.5 q14 -5.5 25 -18.5 q11 -13 11 -22 q0 -9 -32 -17 q-32 -8 -103 -8 q-41 0 -60.5 5.5 q-19.5 5.5 -46 22.5 q-26.5 17 -52.5 42 q-66 65 -103 83 q9 -143 9 -196.5 q0 -53.5 -11 -88 q-11 -34.5 -20 -34.5 q-9 0 -63.5 64.5 q-54.5 64.5 -87.5 140.5 q23 -27 53 -49 q30 -22 47 -22 q17 0 19 10.5 q2 10.5 2 80.5 q0 70 -2 109 q-17 6 -40 18 q-59 -93 -103.5 -140.5 q-44.5 -47.5 -93 -47.5 q-48.5 0 -48.5 14 q0 9 12 12 q40 9 89 57 q49 48 68 113 q-44 -25 -67 -34.5 q-23 -9.5 -40.5 -9.5 q-17.5 0 -46 15 q-28.5 15 -28.5 23 q0 8 17 8 q54 0 122.5 41.5 q68.5 41.5 159.5 121.5 q-1 19 1 64 q-34 -29 -79 -98 q-10 -15 -23.5 -25.5 q-13.5 -10.5 -22.5 -10.5 q-26 0 -54.5 18 q-28.5 18 -28.5 58 q0 40 30.5 68.5 q30.5 28.5 90.5 60.5 q-28 37 -48.5 51 q-20.5 14 -20.5 27 q0 7 6.5 7 q6.5 0 23 -8.5 q16.5 -8.5 37.5 -8.5 q39 0 100 46 q3 48 6 62.5 q3 14.5 3 19.5 q0 22 -15 22 q-11 0 -16 -15 q-5 -15 -7 -52 q-12 18 -12 45.5 q0 27.5 12.5 46.5 q12.5 19 34 19 q21.5 0 32 -5 q10.5 -5 28 -25.5 q17.5 -20.5 23 -29.5 q5.5 -9 5.5 -21.5 q0 -12.5 -9 -45.5 q36 -7 56.5 -20.5 q20.5 -13.5 20.5 -27.5 q0 -7 -6 -17.5 q-6 -10.5 -28 -10.5 q-31 0 -62 -35 q-8 -39 -13 -99 q24 8 39.5 27.5 q15.5 19.5 16.5 37.5 q1 10 8 10 q14 0 37.5 -25 q23.5 -25 23.5 -53 q0 -21 -19 -26 q-12 -3 -40 -26 q46 -9 79 -23 q33 -14 33 -23.5 q0 -9.5 -49 -9.5 q-84 0 -139 -27 q-3 -32 -2 -58 ZM494 488 q-32 -11 -73 -8 q-71 -21 -89 -42.5 q-18 -21.5 -18 -31 q0 -9.5 11.5 -15 q11.5 -5.5 23 -5.5 q11.5 0 16.5 3 q57 32 127 59 q1 32 2 40 ZM617 351 q-3 5 -9 10 q-18 -3 -34 -22 q26 1 43 12 Z" /><glyph glyph-name="" unicode="&#x6d41;" d="M575 170 q47 55 91 55 q19 0 38 -26 q19 -26 19 -36 q0 -10 -6 -18.5 q-6 -8.5 -24 -69.5 q-18 -61 -18 -71.5 q0 -10.5 14 -13 q14 -2.5 47 -2.5 q117 0 117 81 q0 11 -1 21 l-3 18 q0 5 3.5 5 q3.5 0 12 -16.5 q8.5 -16.5 27 -67.5 q18.5 -51 18.5 -63 q0 -23 -48 -36 q-48 -13 -120 -13 q-72 0 -96 28 q-24 28 -24 77 q0 35 26 116 q7 22 7 34.5 q0 12.5 -16.5 16.5 q-16.5 4 -22.5 4 q-21 0 -33 -29 q30 -24 30 -37 q0 -13 -8 -26.5 q-8 -13.5 -23.5 -54 q-15.5 -40.5 -22.5 -60.5 q-8 -27 -26 -27 q-14 0 -24.5 25 q-10.5 25 -10.5 45 q0 20 15.5 48 q15.5 28 15.5 41 q0 13 -8 16 q-128 -157 -143 -178.5 q-15 -21.5 -27.5 -21.5 q-12.5 0 -21 24 q-8.5 24 -8.5 44 q0 20 26.5 42 q26.5 22 41.5 46.5 q15 24.5 73 89.5 q7 8 7 11 q0 3 -4 3 q-7 0 -28 -13.5 q-21 -13.5 -35 -13.5 q-22 0 -32 28.5 q-10 28.5 -10 56.5 q0 28 11.5 28.5 q11.5 0.5 24.5 8 q13 7.5 24 19.5 q34 39 55.5 54.5 q21.5 15.5 21.5 22 q0 6.5 -11.5 2.5 q-11.5 -4 -26.5 -4 q-35 0 -55 27 q-20 27 -20 61 q0 14 9.5 25.5 q9.5 11.5 37.5 31.5 q98 71 98 85 q0 5 -9.5 13 q-9.5 8 -44.5 29 q-4 2 -4 5.5 q0 3.5 10.5 4.5 q10.5 1 38.5 1 q71 0 100 -28.5 q29 -28.5 29 -50.5 q0 -9 -11 -15 q-11 -6 -22 -2 q-11 4 -22 4 q-11 0 -30 -15 q-19 -15 -36 -15 l-14 3 q-8 0 -46 -17 q-38 -17 -50 -25.5 q-12 -8.5 -12 -20.5 q0 -16 30.5 -16 q30.5 0 85.5 18.5 q55 18.5 71.5 25.5 q16.5 7 19.5 17.5 q3 10.5 13 10.5 q5 0 14 -5.5 q9 -5.5 38 -17.5 q18 -8 18 -26.5 q0 -18.5 -13 -35.5 q-13 -17 -53 -53 q-60 -56 -60 -66 q0 -4 8.5 -4 q8.5 0 30.5 13 q22 13 27 38 q2 9 18 9 q16 0 42.5 -19.5 q26.5 -19.5 26.5 -44.5 q0 -19 -15 -28 q-47 -28 -147 -121 q8 -6 14 -9 ZM214 614 q29 -26 112 -58 q17 -6 24.5 -27.5 q7.5 -21.5 7.5 -38.5 q0 -17 -8 -27.5 q-8 -10.5 -20 -11.5 q-37 -3 -59 -20 q-12 -9 -31 -15.5 q-19 -6.5 -32 -6.5 q-32 0 -32 -16 q0 -18 12.5 -38.5 q12.5 -20.5 28.5 -32.5 q16 -12 23 -31 q7 -19 7 -43.5 q0 -24.5 -11 -40.5 q-11 -16 -20 -53.5 q-9 -37.5 -9 -76.5 q0 -10 8 -10 q4 0 8 6 l23 40 q20 35 28 57 q8 22 18 39 q-1 -15 -1 -27 q0 -12 1 -22 q1 -10 1 -18 q0 -29 -17 -68 q-27 -64 -27 -119 l1 -20 q0 -18 -17 -18 q-25 0 -49.5 49 q-24.5 49 -25.5 165 q-1 116 -14 160 q-13 44 -13 67 q0 17 12 36.5 q12 19.5 24.5 33 q12.5 13.5 32.5 26.5 q55 36 55 54 q0 18 -24 56 q-17 27 -17 50 Z" /><glyph glyph-name="" unicode="&#x660e;" d="M592 591 q36 29 64 40 q59 23 68.5 35 q9.5 12 23.5 12 q29 0 64.5 -31 q35.5 -31 35.5 -63 q0 -12 -5 -22 q-19 -37 -29.5 -119.5 q-10.5 -82.5 -10.5 -171 q0 -88.5 7 -166.5 q7 -78 7 -108.5 q0 -30.5 -11 -81.5 q-11 -51 -30 -51 q-9 0 -20.5 13.5 q-11.5 13.5 -68.5 67.5 q-73 70 -118 155 q-37 -83 -69.5 -137.5 q-32.5 -54.5 -55 -54.5 q-22.5 0 -22.5 16 q0 10 10 12 q16 4 43 78 q27 74 48 184 q-9 29 -9 38.5 q0 9.5 2 9.5 q4 0 12 -19 q7 16 10 58.5 q3 42.5 1 61.5 q-17 -9 -23 -46 q-2 -10 -6.5 -10 q-4.5 0 -4.5 23.5 q0 23.5 8.5 43.5 q8.5 20 27.5 47 q5 37 23 121 q2 9 2 21 q0 12 -12.5 28 q-12.5 16 -18.5 16 q-3 0 -4 -1 q-3 -2 -18 -29 q-29 -56 -35 -80 q-10 -38 -17 -81 q-7 -43 -11 -82 q-7 -85 -22.5 -123.5 q-15.5 -38.5 -23.5 -66.5 q-8 -28 -21 -28 q-13 0 -31 19 q-18 19 -29 43 q-14 -26 -22 -35 q-8 -9 -17.5 -11 q-9.5 -2 -21 -10.5 q-11.5 -8.5 -16.5 -8.5 q-5 0 -15 16.5 q-10 16.5 -31 39 q-21 22.5 -24.5 42 q-3.5 19.5 -3.5 57.5 q0 102 6 166 q1 11 1 23.5 q0 12.5 -3 16.5 q-13 15 -13 36 q0 8 11 8 q39 0 65 -25.5 q26 -25.5 33 -67.5 q18 9 40 9 q22 0 39 -14 q17 -14 17 -37 q0 -23 -18 -59 q-18 -36 -45.5 -62.5 q-27.5 -26.5 -44.5 -54.5 q11 -3 50 30 q39 33 45 43.5 q6 10.5 16 92 q10 81.5 10 113.5 q0 32 -5 46.5 q-5 14.5 -11.5 14.5 q-6.5 0 -19.5 -10 q-6 -4 -19 -4 l-35 4 q-23 0 -49 -17 q-6 -4 -9.5 -4 q-3.5 0 -3.5 7 q0 7 6 24 q6 17 13.5 27 q7.5 10 28 23.5 q20.5 13.5 31 17 q10.5 3.5 24.5 3.5 q37 0 77.5 -23.5 q40.5 -23.5 65.5 -66.5 q17 23 37 78 q8 24 27 24 q5 0 8 -2 q27 -17 45 -21 ZM741 -9 q7 89 7 178 l0 77 q0 158 6.5 244 q6.5 86 6.5 91 q0 22 -12 22 q-4 0 -9 -3 q-50 -30 -78 -30 q-18 0 -52 7 q24 -23 24 -33 q0 -10 -6 -19.5 q-6 -9.5 -12 -47.5 q21 17 49 17 q28 0 49.5 -19 q21.5 -19 21.5 -43.5 q0 -24.5 -12 -43.5 q-41 -62 -41 -74 q0 -7 8 -11 q21 -11 36 -36.5 q15 -25.5 15 -47 q0 -21.5 -7.5 -32.5 q-7.5 -11 -48.5 -36.5 q-41 -25.5 -88 -45.5 q86 -111 143 -114 ZM579 132 q30 16 51.5 55 q21.5 39 21.5 47.5 q0 8.5 -3 9.5 q-17 9 -28 32.5 q-11 23.5 -11 42 q0 18.5 17 35.5 q5 5 17 34 q12 29 12 36.5 q0 7.5 -4 7.5 q-9 0 -45 -28 q-8 -43 -9.5 -70 q-1.5 -27 -1.5 -83 q0 -56 -17 -119 ZM249 206 q15 44 52 109 q3 6 3 10 q0 4 -16 4 q-16 0 -32 2 q-14 -46 -14 -78.5 q0 -32.5 7 -46.5 Z" /><glyph glyph-name="" unicode="&#x83ab;" d="M620 592 q55 -28 73 -45 q18 -17 18 -25.5 q0 -8.5 -34 -15.5 q-71 -16 -150 -40.5 q-79 -24.5 -119 -44.5 q-16 -8 -43 -8 q-27 0 -56.5 20 q-29.5 20 -29.5 35 q0 15 24 21 q57 13 100 37 q-19 25 -28 42 q-9 17 -11.5 28 q-2.5 11 -3.5 30 l-3 41 q0 9 3 9 q3 0 9 -4 q17 -11 43 -11 q31 0 80 58 q37 44 70 44 q33 0 73 -22 q40 -22 40 -67 q0 -28 -12 -36 q-23 -14 -43 -46 ZM512 570 q73 81 73 117 q0 27 -7 44.5 q-7 17.5 -18.5 17.5 q-11.5 0 -28.5 -10 q-17 -10 -28 -32 q-8 -41 -18 -67 q-26 -66 -26 -95 q31 11 53 25 ZM520 92 q262 43 283 43 q21 0 42 -15 q21 -15 38.5 -28.5 q17.5 -13.5 17.5 -24.5 q0 -17 -42 -17 q-42 0 -178 22 q-15 2 -36 2 q-64 0 -138 -17 q-39 -107 -92 -148.5 q-53 -41.5 -106 -41.5 q-17 0 -29.5 4.5 q-12.5 4.5 -12.5 10 q0 5.5 7 9.5 q94 43 140 135 q-160 -48 -218 -73 q-9 -4 -19 -4 q-10 0 -20 9 q-10 9 -10 24 q0 15 5 25.5 q5 10.5 12 11.5 q102 12 265 56 q2 7 2 14 q0 7 -4 10 q-94 -47 -115 -47 q-5 0 -5 3.5 q0 3.5 6 5.5 q54 18 80 36 q-33 18 -48.5 39 q-15.5 21 -25.5 82 q-10 61 -10 87 q0 45 27 68.5 q27 23.5 35 23.5 q2 0 2 -1 q0 -6 -28 -28 q-3 -2 -3 -9 q0 -17 12 -30 q32 36 70 60 q38 24 96.5 41.5 q58.5 17.5 77.5 17.5 q39 0 79.5 -31 q40.5 -31 40.5 -62 q0 -16 -10 -31.5 q-10 -15.5 -23 -42 q-13 -26.5 -21.5 -51 q-8.5 -24.5 -30 -53.5 q-21.5 -29 -36.5 -30 q-36 -3 -57 -14 q0 -9 -6.5 -15.5 q-6.5 -6.5 -13.5 -25.5 ZM476 199 q41 15 68 15 l23 -2 q14 0 28.5 49.5 q14.5 49.5 14.5 94.5 q0 19 -15.5 19 q-15.5 0 -41 -4.5 q-25.5 -4.5 -48 -16 q-22.5 -11.5 -42 -17.5 q-19.5 -6 -44 -6 q-24.5 0 -35.5 -4 q-11 -4 -13 -17 q9 -41 9 -71 l-2 -33 q0 -15 3 -24 q17 2 40 22.5 q23 20.5 23 25 q0 4.5 -3 7.5 q-50 36 -50 47.5 q0 11.5 14 15.5 q33 11 60 23 q15 6 38 6 q23 0 50.5 -19.5 q27.5 -19.5 27.5 -34.5 q0 -9 -14 -12.5 q-14 -3.5 -45 -24.5 q-31 -21 -46 -39 ZM592 16 q32 0 65 -12 q33 -12 56.5 -30 q23.5 -18 31 -34 q7.5 -16 7.5 -49 q0 -33 -21 -33 q-21 0 -63 28.5 q-42 28.5 -66.5 69.5 q-24.5 41 -24.5 50.5 q0 9.5 15 9.5 Z" /><glyph glyph-name="" unicode="&#x66ae;" d="M588 243 q74 -73 120 -105.5 q46 -32.5 139 -69.5 q31 -12 62 -42.5 q31 -30.5 31 -35 q0 -4.5 -21 -4.5 q-92 0 -166.5 42 q-74.5 42 -116.5 103 q-5 -31 -5 -51 l4 -91 q0 -35 -6.5 -62.5 q-6.5 -27.5 -19 -51 q-12.5 -23.5 -17 -28 q-4.5 -4.5 -12.5 -4.5 q-8 0 -17 7.5 q-9 7.5 -14 17.5 q-28 60 -53 60 q-36 0 -61 -22 q-3 -2 -7 -2 q-17 0 -37.5 22 q-20.5 22 -21.5 52 q-2 126 -11 131 q-31 -80 -106 -128.5 q-75 -48.5 -109 -48.5 q-8 0 -8 4 q0 4 13 13 q88 59 123.5 103.5 q35.5 44.5 73.5 120.5 q-66 -35 -85 -35 q-19 0 -32.5 11 q-13.5 11 -13.5 28 q0 17 38 26 q74 16 126 35 q2 3 2 7 q0 4 -10 10 q-22 -20 -38 -27.5 q-16 -7.5 -21 -7.5 q-5 0 -5 2.5 q0 2.5 17 12 q17 9.5 42 25.5 q-17 16 -23 30.5 q-6 14.5 -6 45 q0 30.5 -4.5 42 q-4.5 11.5 -20.5 16.5 q-26 8 -26 22 q0 7 5 9.5 q5 2.5 26.5 2.5 q21.5 0 33 -5.5 q11.5 -5.5 26.5 -25.5 q52 3 115 29 q18 8 35 8 q38 0 38 -23 q0 -7 -4.5 -13 q-4.5 -6 -26 -14.5 q-21.5 -8.5 -42.5 -16 q-21 -7.5 -37.5 -11 q-16.5 -3.5 -31.5 -2.5 q-13 -17 -16 -27 q10 -2 36.5 4.5 q26.5 6.5 45 16.5 q18.5 10 29.5 10 q11 0 17.5 -2.5 q6.5 -2.5 9.5 -2.5 q14 0 28 41 q14 41 14 53.5 q0 12.5 -7 12.5 q-40 0 -114 -23 q-26 -7 -55 -7 q-49 0 -49 10 q0 8 48 28 q-8 16 -17 31 q-18 -18 -47 -34 q-29 -16 -41 -16 q-12 0 -28.5 21.5 q-16.5 21.5 -16.5 37.5 q0 16 2.5 31.5 q2.5 15.5 7.5 15.5 q5 0 13 -9.5 q8 -9.5 16 -9.5 q8 0 18 4 q46 21 70 28 q6 28 6 39 q0 11 -4.5 18.5 q-4.5 7.5 -20.5 18.5 q-17 12 -17 33 q0 21 24 21 q30 0 62 -25 q32 -25 32 -63 q0 -9 -2 -18 q34 2 87 21 q3 14 12.5 45 q9.5 31 9.5 36.5 q0 5.5 -6.5 9 q-6.5 3.5 -25.5 7.5 q-11 2 -11 10 q0 8 17 14 q17 6 40 6 q23 0 46 -17 q23 -17 23 -33 q0 -6 -7 -13.5 q-7 -7.5 -19 -40.5 q7 2 16 2 q24 0 47 -15.5 q23 -15.5 23 -27 q0 -11.5 -14 -13.5 q-33 -6 -106 -27 l-15 -33 q46 2 72.5 -22 q26.5 -24 26.5 -52 q0 -18 -12.5 -24.5 q-12.5 -6.5 -27.5 -44.5 q-15 -38 -35.5 -61.5 q-20.5 -23.5 -39 -23.5 q-18.5 0 -40.5 16 q-12 3 -44.5 -13.5 q-32.5 -16.5 -72.5 -23.5 q2 -10 4 -27 l31 9 q-1 2 -1 5 q0 15 43 15 q16 0 35 -2 q53 7 82 21 q5 2 17 2 q12 0 33 -11.5 q21 -11.5 21 -21.5 q0 -17 -49 -17 q-23 0 -38 -4 ZM536 553 q-9 0 -30 9.5 q-21 9.5 -25.5 9.5 q-4.5 0 -9 -7 q-4.5 -7 -13.5 -26 q-4 -28 -3 -51 l26 9 q11 4 21 12 q10 8 17 17 q7 9 17 27 ZM411 356 q-7 1 -25 7 q1 -16 1 -32 q26 11 24 25 ZM569 205 q-25 19 -69 25 q-60 -16 -100 -33 l-26 -53 q8 -8 18 -20 q94 82 162 82 q7 0 15 -1 ZM426 16 q2 -26 4.5 -34.5 q2.5 -8.5 7.5 -8.5 q5 0 22.5 4.5 q17.5 4.5 30.5 4.5 q13 0 21 -6 q22 -17 27.5 -17 q5.5 0 7 1.5 q1.5 1.5 1.5 18.5 l4 121 q0 39 -20 39 q-5 0 -11 -3 q-47 -21 -96 -21 q-12 0 -20 -10 q7 -16 12 -33 l74 18 q15 3 28.5 -10.5 q13.5 -13.5 13.5 -22.5 q0 -9 -10 -15.5 q-10 -6.5 -37 -14.5 q-27 -8 -60 -11 Z" /><glyph glyph-name="" unicode="&#x5343;" d="M549 568 q3 -17 3 -82 q0 -14 15 -23.5 q15 -9.5 28.5 -9.5 q13.5 0 20.5 1 q79 16 117 16 q38 0 63.5 -36.5 q25.5 -36.5 25.5 -52 q0 -15.5 -40 -15.5 q-40 0 -87.5 6.5 q-47.5 6.5 -63.5 13.5 q-8 4 -28 4 q-20 0 -54 -13 q1 -60 1 -113 q0 -203 -14 -302 q-14 -99 -23 -99 q-9 0 -28.5 97 q-19.5 97 -19.5 386 q-45 -17 -102.5 -54.5 q-57.5 -37.5 -86 -65 q-28.5 -27.5 -48 -27.5 q-19.5 0 -47 12 q-27.5 12 -43 31 q-15.5 19 -15.5 29 q0 10 19 10 q19 0 66 24 q104 53 258 114 q2 28 0 56 q-17 22 -24.5 33 q-7.5 11 -7.5 15 q4 0 31 -24 q-2 38 -4 54 q-109 -28 -150.5 -41 q-41.5 -13 -52.5 -21 q-11 -8 -15 -8 q-4 0 -4 3 q0 23 68.5 73.5 q68.5 50.5 176.5 106.5 q14 8 14 19.5 q0 11.5 -5.5 19 q-5.5 7.5 -5.5 11 q0 3.5 6 3.5 q18 0 56 -12.5 q38 -12.5 68 -43.5 q30 -31 30 -52 q0 -40 -98 -43 Z" /><glyph glyph-name="" unicode="&#x9752;" d="M555 421 q83 16 112 18.5 q29 2.5 44.5 7 q15.5 4.5 25.5 4.5 q29 0 61 -13.5 q32 -13.5 32 -32.5 q0 -10 -7.5 -16.5 q-7.5 -6.5 -21.5 -6.5 q-75 -1 -148.5 -12.5 q-73.5 -11.5 -126.5 -35.5 q-53 -24 -71 -41.5 q-18 -17.5 -25 -60.5 q29 31 54.5 55 q25.5 24 35.5 30.5 q10 6.5 34.5 6.5 q24.5 0 52.5 -11.5 q28 -11.5 36 -22 q8 -10.5 6.5 -28 q-1.5 -17.5 -1.5 -31.5 q0 -53 20 -174 q6 -38 6 -105.5 q0 -67.5 -15 -102.5 q-15 -35 -39 -35 q-8 0 -13 5 q-44 42 -88.5 77 q-44.5 35 -48.5 68 q-28 26 -39.5 50 q-11.5 24 -11.5 60.5 q0 36.5 11.5 60 q11.5 23.5 40.5 43 q29 19.5 42 19.5 q13 0 25.5 -9 q12.5 -9 15.5 -18.5 q3 -9.5 3 -37.5 q0 -28 -8 -45 q26 -17 37 -38 q11 -21 11 -35.5 q0 -14.5 -23 -20.5 q-77 -17 -78 -27 q23 -17 52 -26 q29 -9 42.5 -9 q13.5 0 13.5 19 q0 81 -10.5 183.5 q-10.5 102.5 -16.5 123.5 q-6 21 -14 21 q-8 0 -13 -9 q-21 -35 -50.5 -52.5 q-29.5 -17.5 -79.5 -30.5 q-12 -67 -12 -122 q0 -55 7.5 -80.5 q7.5 -25.5 7.5 -60 q0 -34.5 -2 -42 q-2 -7.5 -7 -7.5 q-10 0 -28 37.5 q-18 37.5 -18 95.5 q0 58 8.5 135.5 q8.5 77.5 17 108 q8.5 30.5 27 48 q18.5 17.5 42.5 31 q24 13.5 28.5 16.5 q4.5 3 5.5 5 q1 2 -1 2 q-2 0 -116 -48 q-114 -48 -216 -96 q-20 -9 -43.5 -9 q-23.5 0 -44 11 q-20.5 11 -20.5 26.5 q0 15.5 3.5 15.5 q3.5 0 7.5 -3 q4 -3 10 -3 q6 0 20 10 q4 3 10 6 l17 9 l155 62 q47 18 63 27 q28 17 50 28 q-24 7 -45.5 15.5 q-21.5 8.5 -27.5 12.5 q-6 4 -6 8 q0 10 33 34.5 q33 24.5 83 40.5 q1 5 -1 12 q-54 8 -87.5 42.5 q-33.5 34.5 -33.5 43.5 q0 4 12 4 q36 1 57 5.5 q21 4.5 50 21 q29 16.5 66 28.5 q1 22 1 38.5 q0 16.5 -3 26.5 q-3 10 -16.5 27.5 q-13.5 17.5 -23 23.5 q-9.5 6 -9.5 11 q0 7 27 7 q27 0 49 -6.5 q22 -6.5 41 -20 q19 -13.5 23.5 -23.5 q4.5 -10 4.5 -25.5 q0 -15.5 -6 -37.5 q46 0 60 -17 q14 -17 14 -33 q0 -21 -23 -24 q-37 -4 -48.5 -25.5 q-11.5 -21.5 -9.5 -48.5 q41 -10 41 -34 q0 -15 -12 -23 q-29 -19 -46 -36 l-1 -16 ZM465 -9 q24 19 34 24.5 q10 5.5 10 10.5 q0 5 -5 10 q-19 16 -21 52 q-1 10 -8 10 q-7 0 -20.5 -11 q-13.5 -11 -13.5 -40 q0 -29 24 -56 Z" /><glyph glyph-name="" unicode="&#x4eba;" d="M403 395 q63 -13 109 -31.5 q46 -18.5 106 -57.5 q60 -39 103.5 -61.5 q43.5 -22.5 63.5 -28.5 q62 -18 125 -43.5 q63 -25.5 63 -46 q0 -20.5 -75.5 -32.5 q-75.5 -12 -122.5 -12 q-30 0 -56 18 q-26 18 -96.5 85 q-70.5 67 -109 94 q-38.5 27 -73.5 35 q-35 8 -106 6 q-21 -27 -53.5 -86.5 q-32.5 -59.5 -56.5 -111.5 q-8 -17 -24.5 -21 q-16.5 -4 -52.5 -4 q-36 0 -36 42 q0 12 3.5 20 q3.5 8 7 8 q3.5 0 6 -2 q2.5 -2 9.5 -2 q7 0 22.5 11 q15.5 11 21.5 23 q56 109 94.5 173.5 q38.5 64.5 87 124 q48.5 59.5 48.5 72.5 q0 13 -13 16.5 q-13 3.5 -13 7.5 q0 4 22 8 q22 4 37 4 q37 0 63.5 -23 q26.5 -23 26.5 -45 q0 -22 -17 -33 q-61 -38 -114 -107 Z" /><glyph glyph-name="" unicode="&#x5982;" d="M655 285 q82 9 104.5 9 q22.5 0 31 -3 q8.5 -3 28 -16.5 q19.5 -13.5 34 -32.5 q14.5 -19 24 -43.5 q9.5 -24.5 9.5 -46.5 q0 -71 -106.5 -109.5 q-106.5 -38.5 -302.5 -63.5 q140 54 209.5 89 q69.5 35 101 77 q31.5 42 31.5 62.5 q0 20.5 -22 20.5 q-22 0 -68 -20 q-46 -20 -65 -38 q-19 -18 -46 -18 q-14 0 -23.5 6 q-9.5 6 -17 27 q-7.5 21 -7.5 47 q0 26 11 49 q3 23 3 38 q0 43 -28 43 q-13 0 -36 -7 q-17 -69 -55 -142 q6 -65 15 -100 q9 -35 9 -45 q0 -29 -25 -29 q-25 0 -44.5 8 q-19.5 8 -43.5 33 q-31 -41 -51.5 -60.5 q-20.5 -19.5 -40 -19.5 q-19.5 0 -85 10.5 q-65.5 10.5 -77 25.5 q-11.5 15 -11.5 55 q0 40 33.5 102 q33.5 62 87.5 117 q-1 21 -1 58 q0 37 3 96 q3 59 5.5 68 q2.5 9 7.5 9 q11 0 31 -51 q20 -51 33 -109 q34 24 79 44 q-29 115 -29 177 q0 62 45 63 q8 8 21 8 q38 0 73 -60.5 q35 -60.5 33 -164.5 q55 -12 89 -58.5 q34 -46.5 33 -104.5 ZM444 443 q11 40 11 76 q0 82 -53 123 q-28 6 -28 -41.5 q0 -47.5 31 -168.5 q21 7 39 11 ZM409 307 q-39 -21 -67 -41 q10 -25 26 -41 q23 36 41 82 ZM313 141 q-32 36 -50 66 q-19 -18 -39 -42.5 q-20 -24.5 -29 -42 q-9 -17.5 -9 -34 q0 -16.5 14 -16.5 q56 0 113 69 Z" /><glyph glyph-name="" unicode="&#x6563;" d="M714 129 q54 -34 111.5 -65 q57.5 -31 82.5 -40 q25 -9 43.5 -25 q18.5 -16 18.5 -29.5 q0 -13.5 -45 -18.5 q-45 -5 -69.5 -5 q-24.5 0 -38.5 5.5 q-14 5.5 -56 38 q-42 32.5 -83 81.5 q-58 -60 -161 -53 q-2 -37 -27 -93 q-25 -56 -35 -56 q-5 0 -9 11 q-31 78 -70 154 q-12 -8 -19 -8 q-7 0 -7 15 q0 15 -4.5 26.5 q-4.5 11.5 -4.5 22 q0 10.5 3 21.5 q-8 28 -7 59 q-7 3 -11 3 q-4 0 -7 -1 q-6 -53 -9 -124.5 q-3 -71.5 -9.5 -104 q-6.5 -32.5 -15 -32.5 q-8.5 0 -19 36.5 q-10.5 36.5 -10.5 57 q0 20.5 14 118.5 q14 98 28 132 q14 34 54 75 q6 6 6 11.5 q0 5.5 -12 5.5 q-12 0 -39 -9.5 q-27 -9.5 -70.5 -38.5 q-43.5 -29 -98.5 -59 q-55 -30 -70 -30 q-8 0 -10.5 16.5 q-2.5 16.5 -8.5 25 q-6 8.5 -6 24 q0 15.5 9.5 25 q9.5 9.5 14.5 9.5 q5 0 7 -2.5 q2 -2.5 7 -2.5 q13 0 41 13 q120 57 191 80 q-6 27 -18 27 q-7 0 -17.5 -10.5 q-10.5 -10.5 -19.5 -10.5 q-9 0 -15 6 q-6 6 -11 23 l-12 38 q-6 22 -6 28 q0 10 5 10 q5 0 11 -3 q6 -3 12 -3 q13 0 63 17 q-4 40 -25 67 q-11 16 -18.5 31 q-7.5 15 -7.5 19 q0 4 6 -1 q6 -5 19 -5 q34 -1 66 -22.5 q32 -21.5 44 -49.5 q14 9 66 23 q16 41 16 59 q0 18 -12 22 q-26 9 -26 19.5 q0 10.5 22 10.5 q34 0 64 -18.5 q30 -18.5 30 -60.5 q0 -13 -3 -27 q27 -22 27 -38 q0 -20 -26 -20 q-15 0 -32 -14 q-2 -7 -26 -53 q47 4 68 -11 q21 -15 21 -30.5 q0 -15.5 -20 -20.5 q-13 -4 -54.5 -24 q-41.5 -20 -44.5 -22 q-3 -2 -3 -4.5 q0 -2.5 2 -4.5 q26 -17 48 -64 q91 154 111 221 q4 13 7.5 13 q3.5 0 3.5 -7 q0 -23 -45 -113.5 q-45 -90.5 -75 -131.5 q-6 -11 -6 -33 q17 2 40.5 2 q23.5 0 50 -15 q26.5 -15 64.5 -49 q25 65 25 83 q0 18 -10 33 q-2 -1 -36 -23 q-9 -6 -24 -6 q-15 0 -24 11.5 q-9 11.5 -9 56.5 q0 13 4 18.5 q4 5.5 18 5.5 q31 63 52 112.5 q21 49.5 24.5 63 q3.5 13.5 3.5 24.5 q0 24 -12 30 q-12 6 -19 6 q-7 0 -9 -17 q-2 -23 -7.5 -23 q-5.5 0 -5.5 25.5 q0 25.5 13.5 27 q13.5 1.5 19 4 q5.5 2.5 9.5 2.5 q18 0 38 -23.5 q20 -23.5 20 -45.5 q0 -22 -17 -66 l-31 -78 q0 -3 3 -6 q3 -3 5.5 -3 q2.5 0 3.5 1 q63 55 102 55 q23 0 41 -18.5 q18 -18.5 18 -35.5 q0 -17 -18 -20 q-60 -9 -116 -44 q25 -33 25 -63 q0 -52 -30 -126 ZM426 494 q-31 0 -39 -3 q-15 -40 -22 -78 q14 7 29 13 q23 33 32 68 ZM361 293 q0 -8 3 -8 q3 0 5 2 q9 16 16.5 22.5 q7.5 6.5 7.5 8.5 q0 2 -3.5 2 q-3.5 0 -8.5 -1 l-20 -26 ZM452 222 q2 71 -12 71 q-3 0 -9 -5 q-6 -5 -18.5 -10.5 q-12.5 -5.5 -41 -29.5 q-28.5 -24 -28.5 -31 q0 -7 8 -5 q20 6 33.5 6 q13.5 0 28.5 -24 q8 13 39 28 ZM631 122 q-23 33 -45 44 q-22 11 -83 14 q8 -82 15 -126 q29 4 62.5 24 q33.5 20 50.5 44 ZM356 122 q6 0 10 15.5 q4 15.5 4 18.5 q0 12 -14 11 q-3 -15 -3 -25 q0 -10 3 -20 ZM390 46 q32 -39 44 -39 q4 0 6.5 5 q2.5 5 7 44.5 q4.5 39.5 4.5 67.5 q0 28 -4.5 28 q-4.5 0 -9.5 -10 l-12 -26 q-26 -53 -36 -70 Z" /><glyph glyph-name="" unicode="&#x4e0a;" d="M542 153 q173 18 208 18 q45 0 96 -32.5 q51 -32.5 51 -60.5 q0 -56 -55 -56 q-29 0 -60 12 q-31 12 -83.5 18.5 q-52.5 6.5 -95.5 6.5 q-43 0 -70 -2 q-15 -26 -54 -26 q-29 0 -47 14 q-36 -4 -89.5 -22 q-53.5 -18 -81 -33 q-27.5 -15 -41.5 -15 q-27 0 -46 43 q-19 43 -19 65.5 q0 22.5 25.5 28.5 q25.5 6 43 16.5 q17.5 10.5 91.5 67 q74 56.5 118 90.5 q5 217 -30 282 q-10 19 -10 35 q0 33 34 33 q42 0 96 -30 q54 -30 59 -97 q35 6 51 12.5 q16 6.5 29 6.5 q37 0 71.5 -25 q34.5 -25 34.5 -61 q0 -17 -9.5 -27.5 q-9.5 -10.5 -30.5 -12 q-21 -1.5 -80.5 -22.5 q-59.5 -21 -93.5 -46 q-13 -65 -13 -143 q0 -20 1 -38 ZM432 257 q-162 -113 -230 -150 q-6 -3 -6 -7 q0 -4 6 -4 q6 0 10 1 q86 27 210 43 q6 48 10 117 Z" /><glyph glyph-name="" unicode="&#x751f;" d="M602 15 q54 12 74 12 q20 0 51 -7 q31 -7 47.5 -37.5 q16.5 -30.5 16.5 -40 q0 -9.5 -14 -18 q-14 -8.5 -30.5 -8.5 q-16.5 0 -28.5 3 q-57 12 -113 12 q-95 0 -163 -34 q-22 -11 -43.5 -11 q-21.5 0 -35 18 q-13.5 18 -13.5 49 q0 24 23.5 44 q23.5 20 98.5 56 q-43 31 -72 45 q-29 14 -29 38 q0 19 33.5 52.5 q33.5 33.5 132.5 85.5 l2 60 q-58 -34 -145 -101 q-7 -5 -12.5 -5 q-5.5 0 -16.5 3.5 q-11 3.5 -54 7.5 q-17 2 -32.5 35 q-15.5 33 -15.5 61 q0 7 2 12 q39 111 39 124 q0 13 -3 23.5 q-3 10.5 -3 16 q0 5.5 3 5.5 q6 0 45 -47 q39 -47 39 -82 q0 -13 -4 -33 q23 2 167 85 q19 155 19 181 q0 26 -8.5 38.5 q-8.5 12.5 -8.5 24 q0 11.5 6.5 19 q6.5 7.5 17.5 7.5 q26 0 59 -50.5 q33 -50.5 33 -72.5 q0 -10 -8 -30 q-2 -6 -2 -15.5 q0 -9.5 9 -24 q9 -14.5 29.5 -14.5 q20.5 0 39 -17.5 q18.5 -17.5 18.5 -34 q0 -16.5 -33.5 -29 q-33.5 -12.5 -103.5 -45.5 q-5 -28 -13 -101 q46 -13 72 -37 q26 -24 26 -50 q0 -10 -3.5 -19 q-3.5 -9 -33 -42.5 q-29.5 -33.5 -61.5 -66.5 l0 -45 ZM503 79 q34 30 34 51 q0 11 -10 11 q-3 0 -18 -5 q-15 -5 -22.5 -6.5 q-7.5 -1.5 -27.5 -1.5 q-20 0 -29 -4 q-9 -4 -9 -9 q0 -11 25.5 -24 q25.5 -13 56.5 -12 Z" /><glyph glyph-name="" unicode="&#x4f7f;" d="M601 61 q61 -37 122.5 -57 q61.5 -20 119 -41.5 q57.5 -21.5 72.5 -27.5 q15 -6 19.5 -13 q4.5 -7 4.5 -18.5 q0 -11.5 -17 -23.5 q-17 -12 -45 -13 q-28 -1 -76 -1 q-66 0 -79.5 5 q-13.5 5 -61.5 42 q-48 37 -99 80 q-62 -52 -100.5 -52 q-38.5 0 -75.5 22 q-37 22 -88 70 q-7 -52 -10 -89.5 q-3 -37.5 -21.5 -37.5 q-18.5 0 -34 33.5 q-15.5 33.5 -15.5 49 q0 15.5 2 27.5 q31 172 31 203.5 q0 31.5 -4 38.5 q-43 -41 -55.5 -41 q-12.5 0 -21.5 32.5 q-9 32.5 -9 52 q0 19.5 13.5 29 q13.5 9.5 29 27 q15.5 17.5 56 75 q40.5 57.5 52 75.5 q11.5 18 13.5 27 q2 9 2 35 q0 26 9.5 26 q9.5 0 54.5 -34.5 q45 -34.5 49 -67.5 q119 37 159 57 q3 25 3 41 q0 31 -9.5 31 q-9.5 0 -16.5 -34 q-2 -9 -6.5 -9 q-4.5 0 -6.5 25 q-2 25 -2 39 q0 36 14.5 44.5 q14.5 8.5 27.5 8.5 q13 0 34.5 -22 q21.5 -22 28 -39 q6.5 -17 4.5 -58 q6 3 16 3 q25 0 51.5 -14.5 q26.5 -14.5 26.5 -34 q0 -19.5 -30.5 -30 q-30.5 -10.5 -74.5 -41.5 q-1 -12 -5 -38 q35 14 64.5 14 q29.5 0 55.5 -30 q26 -30 26 -48.5 q0 -18.5 -18 -37.5 q-18 -19 -56 -46 q1 -7 1 -19.5 q0 -12.5 -11 -23.5 q-11 -11 -26.5 -11 q-15.5 0 -57.5 -17 q-6 -81 -29 -143 ZM550 168 q-39 -16 -73.5 -16 q-34.5 0 -55.5 31 q-21 31 -21 81 q0 25 7 49 q7 24 45 61 q38 37 68 57 q-30 31 -84 51 q0 -30 -32 -51 q-16 -10 -34.5 -31.5 q-18.5 -21.5 -72.5 -90.5 q29 -47 29 -99 q0 -18 -3 -36 q25 3 49.5 3 q24.5 0 59 -15.5 q34.5 -15.5 99.5 -59.5 q9 20 19 66 ZM582 420 q-41 -20 -73 -31.5 q-32 -11.5 -49 -31.5 q-17 -20 -17 -35.5 q0 -15.5 11 -23.5 q52 41 123 85 q2 11 5 37 ZM665 323 q25 36 25 41 q0 5 -2 5 q-7 0 -39 -23 q5 -11 16 -23 ZM635 331 q-4 -23 -4 -44 q14 5 14 18.5 q0 13.5 -10 25.5 ZM568 298 q-72 -35 -89 -58 q3 -11 3 -25 q64 37 82 46 q4 19 4 37 ZM502 48 q-48 47 -98.5 69.5 q-50.5 22.5 -87.5 19.5 q-5 -19 -11.5 -56 q-6.5 -37 -6.5 -42 q62 -38 108.5 -38 q46.5 0 95.5 47 Z" /><glyph glyph-name="" unicode="&#x6c34;" d="M599 357 q58 -32 117 -47 q59 -15 156 -53 q97 -38 103.5 -44 q6.5 -6 6.5 -12 q0 -14 -25 -27.5 q-25 -13.5 -79 -24.5 q-54 -11 -64.5 -11 q-10.5 0 -27.5 8 q-17 8 -72.5 42.5 q-55.5 34.5 -120.5 81.5 q-15 11 -32 16.5 q-17 5.5 -25.5 4 q-8.5 -1.5 -22.5 -1.5 q1 -103 4.5 -141 q3.5 -38 3.5 -67 q0 -29 -6.5 -88.5 q-6.5 -59.5 -10 -66 q-3.5 -6.5 -12 -6.5 q-8.5 0 -24.5 24 q-47 70 -98 121 q-27 27 -27 36 q0 9 7 9 q7 0 15.5 -7.5 q8.5 -7.5 27.5 -12.5 l48 -11 q5 0 5 18 l-1 67 q-2 75 -1 131 q-48 13 -48 23 q0 17 48 41 q-2 25 0 46 q-74 -79 -95 -119 q-21 -40 -57.5 -91.5 q-36.5 -51.5 -66.5 -102.5 q-11 -19 -30 -19 q-27 0 -34 45 q-7 45 -7 59.5 q0 14.5 2.5 18.5 q2.5 4 14.5 9 q20 7 49 53 q29 46 29 59 q0 4 -5.5 4 q-5.5 0 -15.5 -6.5 q-10 -6.5 -36 -6.5 q-41 0 -64 19 q-23 19 -23 35 q0 10 14 14 q77 19 114.5 33.5 q37.5 14.5 43.5 30 q6 15.5 24.5 15.5 q18.5 0 36.5 -6.5 q18 -6.5 22.5 -11 q4.5 -4.5 12.5 -19.5 q8 -15 15 -32 q12 13 57 52 q4 84 8.5 123.5 q4.5 39.5 4.5 50 q0 10.5 -2.5 16.5 q-2.5 6 -17.5 31.5 q-15 25.5 -22 36 q-7 10.5 -7 14.5 q0 11 11 11 q6 0 20 -10.5 q14 -10.5 23.5 -14.5 q9.5 -4 23.5 -5 q33 -2 51.5 -21 q18.5 -19 18.5 -48 q0 -19 -13.5 -48 q-13.5 -29 -18 -63 q-4.5 -34 -10.5 -137 l12 0 q56 39 113 103.5 q57 64.5 57 99.5 q0 9 -3.5 12 q-3.5 3 -12.5 3 q-5 0 -5 5.5 q0 5.5 11 18 q11 12.5 34 12.5 q23 0 32.5 -37 q9.5 -37 9.5 -60.5 q0 -23.5 -16 -38 q-16 -14.5 -31 -31.5 q-47 -50 -117 -104 Z" /><glyph glyph-name="" unicode="&#x4e1d;" d="M367 74 q42 13 169 31.5 q127 18.5 159.5 18.5 q32.5 0 67.5 6 q35 6 61 6 q56 0 76 -30 q20 -30 20 -48 q0 -24 -33 -24 q-24 0 -58.5 15 q-34.5 15 -62.5 19.5 q-28 4.5 -102 4.5 q-74 0 -189.5 -23.5 q-115.5 -23.5 -180 -59.5 q-64.5 -36 -100.5 -36 q-22 0 -51.5 23 q-29.5 23 -29.5 39 q0 6 5.5 15.5 q5.5 9.5 11 9.5 q5.5 0 7.5 -1 q38 -19 50 -19 q12 0 24 6 q47 22 131 41 q-21 14 -27.5 22.5 q-6.5 8.5 -10.5 36.5 q-4 28 -4 44.5 q0 16.5 4.5 23.5 q4.5 7 17.5 13.5 q13 6.5 28.5 47.5 q15.5 41 15.5 64 q0 12 -13 12 q-18 0 -43.5 -17 q-25.5 -17 -39.5 -17 q-22 0 -33 28.5 q-11 28.5 -11 73.5 q0 17 7 23.5 q7 6.5 28.5 11.5 q21.5 5 37.5 22 q16 17 38.5 56.5 q22.5 39.5 22.5 62.5 q0 23 -9.5 36.5 q-9.5 13.5 -9.5 16 q0 2.5 2 2.5 q2 0 10 -6 q32 -25 76 -36 q23 -6 37.5 -25 q14.5 -19 14.5 -45.5 q0 -26.5 -24 -45.5 q-55 -43 -55 -57 q0 -6 9.5 -12.5 q9.5 -6.5 24 -27 q14.5 -20.5 18.5 -31 q4 -10.5 6.5 -10.5 q2.5 0 6 3 q3.5 3 33.5 45 q30 42 43 70 q13 28 24 80 q11 52 11 77.5 q0 25.5 -3.5 34.5 q-3.5 9 -3.5 20 q0 11 7.5 20 q7.5 9 18.5 9 q7 0 34 -14.5 q27 -14.5 47 -26.5 q20 -12 32 -29.5 q12 -17.5 12 -32.5 q0 -27 -28 -71.5 q-28 -44.5 -28 -50.5 q0 -6 12 -10 q28 -8 43.5 -29 q15.5 -21 15.5 -51 q0 -30 -22.5 -50.5 q-22.5 -20.5 -22.5 -28.5 q0 -8 8 -9 q32 -4 41.5 -30 q9.5 -26 9.5 -34.5 q0 -8.5 -5.5 -12 q-5.5 -3.5 -26.5 -6 q-21 -2.5 -33 -6 q-12 -3.5 -47 -20 q-35 -16.5 -71 -28.5 q-36 -12 -158 -47 q-29 -8 -35.5 -13.5 q-6.5 -5.5 -7.5 -19.5 ZM580 489 q18 0 32.5 45.5 q14.5 45.5 14.5 59.5 q0 14 -14 28 q-14 14 -16.5 14 q-2.5 0 -2.5 -6 l0 -20 q0 -34 -14 -121 ZM376 106 q11 -2 83 29 q72 31 70 35 q-8 18 -8 42 q0 24 9.5 43 q9.5 19 27 21 q17.5 2 33 17 q15.5 15 38.5 52.5 q23 37.5 23 51.5 q0 5 -4 5 q-4 0 -11 -8.5 q-7 -8.5 -34.5 -35 q-27.5 -26.5 -37 -30 q-9.5 -3.5 -17.5 -3.5 q-24 0 -27 26 q-19 -27 -54 -88 q-35 -61 -60 -94.5 q-25 -33.5 -31 -62.5 Z" /><glyph glyph-name="" unicode="&#x5802;" d="M523 499 q93 22 138 22 q45 0 61.5 -5.5 q16.5 -5.5 22.5 -6.5 q6 -1 24 -1 q32 0 59.5 -27 q27.5 -27 39.5 -41 q12 -14 12 -27.5 q0 -13.5 -5.5 -25.5 q-5.5 -12 -14 -15.5 q-8.5 -3.5 -26.5 -3.5 l-37 1 q-14 0 -23 -4 q-34 -16 -97 -23 q3 -24 -11.5 -43.5 q-14.5 -19.5 -31.5 -22 q-17 -2.5 -23 -9 q-6 -6.5 -14 -26.5 q26 -18 26 -31 q0 -23 -58 -31 q-7 -16 -14 -50 q18 5 29 5 q24 0 47.5 -21.5 q23.5 -21.5 23.5 -36.5 q0 -15 -9 -17 q-82 -14 -80 -35 q31 -38 75 -38 q44 0 73 -28 q29 -28 29 -47 q0 -19 -27 -19 q-4 0 -30.5 2.5 q-26.5 2.5 -46.5 11.5 q-20 9 -50 9 q-71 0 -188 -49 q-36 -15 -62 -15 q-54 0 -54 54 q0 21 28 21 l19 -2 q15 0 37.5 10 q22.5 10 90.5 26 q-6 26 -8 41 q-21 -5 -44 -5 q-23 0 -49.5 19.5 q-26.5 19.5 -26.5 37 q0 17.5 13 17.5 l13 -3 q14 0 84 25 q-1 33 -1 54 q-16 -5 -25 -5 q-20 0 -40 28.5 q-20 28.5 -24.5 67 q-4.5 38.5 -14.5 84.5 q-1 5 -1 12 q0 7 9.5 7 q9.5 0 29.5 -14 l118 44 q-42 29 -46 58 q-8 2 -21 -4 q-13 -6 -23 -16 q-22 -22 -48 -22 l-22 1 q-36 0 -58 -16 q-22 -16 -26 -46 q-1 -12 -11 -51.5 q-10 -39.5 -16 -59 q-6 -19.5 -6 -28.5 q0 -9 -4.5 -14 q-4.5 -5 -10.5 -5 q-14 0 -30.5 33.5 q-16.5 33.5 -16.5 56 q0 22.5 8 31 q8 8.5 14 29.5 q6 21 6 43.5 q0 22.5 -4 34.5 q-4 12 -4 18 q0 6 5.5 6 q5.5 0 15.5 -19.5 q10 -19.5 12 -27 q2 -7.5 7 -7.5 q5 0 10.5 10.5 q5.5 10.5 26 29.5 q20.5 19 37 27.5 q16.5 8.5 16.5 22.5 q0 4 -2 9 q-14 35 -14 70 q0 17 6.5 25.5 q6.5 8.5 6 18 q-0.5 9.5 -0.5 13.5 q0 12 13.5 12 q13.5 0 20.5 -21 q4 -11 12.5 -11 q8.5 0 47.5 23 q39 23 66 44 q-17 31 -48 79 q-5 7 -5 11 q0 4 9.5 5.5 q9.5 1.5 42 1.5 q32.5 0 53 -14 q20.5 -14 38 -32.5 q17.5 -18.5 17.5 -41 q0 -22.5 -12 -41.5 q-12 -19 -17.5 -32 q-5.5 -13 -9.5 -40 q31 14 66.5 50 q35.5 36 35.5 67 q0 31 -20.5 38.5 q-20.5 7.5 -20.5 10 q0 2.5 9.5 4.5 q9.5 2 18.5 2 q37 0 63 -37 q26 -37 26 -58 q0 -9 -4 -14 q-4 -5 -40.5 -31 q-36.5 -26 -62 -35.5 q-25.5 -9.5 -43 -9.5 q-17.5 0 -29.5 2 q0 -4 0.5 -12 q0.5 -8 -0.5 -12 ZM456 630 q-66 -88 -66 -103 q3 -1 39 -19 q2 -1 5.5 -1 q3.5 0 9 7 q5.5 7 9.5 58 q4 51 3 58 ZM426 472 q-3 14 -42 47 q-6 -19 -16 -29 q-10 -10 -10 -29 q47 8 68 11 ZM640 389 q50 24 80.5 45 q30.5 21 33.5 25 q3 4 3 8 q0 25 -67 25 q-84 0 -168 -39 q-1 -23 -13 -78 q63 26 83 26 q20 0 48 -12 ZM513 242 q57 55 57 88 q0 6 -3.5 6 q-3.5 0 -9.5 -5 q-74 -62 -134 -61 q4 -14 9 -42 q37 10 81 14 ZM577 -28 q3 7 3 11 q0 4 -1 5 q-22 20 -25 23 q-3 3 -10.5 3 q-7.5 0 -13 -19 q-5.5 -19 -8.5 -27 l55 4 Z" /><glyph glyph-name="" unicode="&#x5929;" d="M506 284 q39 -19 87 -56 q48 -37 66.5 -58 q18.5 -21 57.5 -48.5 q39 -27.5 64 -36.5 q149 -52 177 -82.5 q28 -30.5 28 -41.5 q0 -11 -28 -18 q-28 -7 -79 -7 q-51 0 -87.5 14.5 q-36.5 14.5 -79 53.5 q-42.5 39 -88.5 102 q-46 63 -78 82 q-32 19 -85 31 q-12 -55 -14 -116 q-2 -61 -66.5 -96.5 q-64.5 -35.5 -122.5 -35.5 q-26 0 -47.5 7.5 q-21.5 7.5 -21.5 12.5 q0 5 22.5 6 q22.5 1 55 17.5 q32.5 16.5 60.5 44.5 q28 28 40.5 55.5 q12.5 27.5 25.5 96.5 q-29 -12 -58.5 -12 q-29.5 0 -56.5 9.5 q-27 9.5 -27 50.5 q0 16 7 27.5 q7 11.5 11.5 11.5 q4.5 0 4.5 -6 l-1 -7 q0 -3 5 -3 q23 0 141 63 q9 32 9 60 q-21 -17 -32.5 -17 q-11.5 0 -11.5 7 q0 7 11.5 23 q11.5 16 38.5 47 q-3 11 -3 17.5 q0 6.5 5 6.5 q5 0 16 -5 q10 12 15 17 q-29 5 -64 40 q-35 35 -35 55 q0 8 5 10 q5 2 22 2 q38 0 92 26 q54 26 56 40 q1 9 23 9 q37 0 74.5 -21 q37.5 -21 37.5 -49 q0 -24 -26 -31 q-9 -3 -69 -47.5 q-60 -44.5 -103 -82.5 q24 -31 29 -61 q58 24 98 47 q9 5 27.5 5 q18.5 0 49 -19.5 q30.5 -19.5 30.5 -33.5 q0 -14 -31 -24 q-98 -30 -177 -82 Z" /><glyph glyph-name="" unicode="&#x6211;" d="M718 174 q29 -70 68.5 -132 q39.5 -62 46.5 -62 q10 0 28 119 q1 12 6 12 q5 0 7 -13 q14 -116 19.5 -151 q5.5 -35 19.5 -81 q3 -11 3 -20.5 q0 -9.5 -12.5 -9.5 q-12.5 0 -53 33.5 q-40.5 33.5 -83.5 96 q-43 62.5 -87 163.5 q-44 -45 -116 -45 q-26 0 -52 7 q-26 7 -26 14.5 q0 7.5 14 9.5 q81 15 143 102 q-12 26 -23 63 q-87 -92 -200 -156 q1 -75 5 -119 l9 -81 q0 -15 -9 -15 q-15 0 -124 105 q-15 15 -36 25 q-25 -2 -42 16 q-17 18 -17 37 q0 19 14 19 q14 0 27 5 q13 5 108 56 q-2 40 -1 56 q-46 -55 -87 -55 q-41 0 -83 29.5 q-42 29.5 -52 41.5 q-10 12 -10 36 q0 24 16 59 q16 35 62 75 l188 157 q36 30 36 39 q0 9 -2.5 15 q-2.5 6 -2.5 10 q0 12 19 12 q19 0 76 -28 q-12 29 -22.5 50 q-10.5 21 -14.5 23 q-16 11 -23 36.5 q-7 25.5 -7 37.5 q0 12 5.5 12 q5.5 0 14 -16 q8.5 -16 19.5 -22 q11 -6 34 -10 q53 -8 63.5 -73.5 q10.5 -65.5 32.5 -166.5 q40 -5 61 -18 q21 -13 21 -29 q0 -30 -58 -44 q22 -87 40 -134 q12 13 12 23.5 q0 10.5 -6 32 q-6 21.5 -6 26 q0 4.5 5 4.5 q7 0 41 -21 q34 -21 37.5 -30 q3.5 -9 6.5 -26.5 q3 -17.5 3 -22.5 q0 -10 -8 -18 q-24 -24 -47 -59 ZM560 477 q-10 39 -16 56 q-19 0 -43 -5.5 q-24 -5.5 -33 -12.5 q-24 -19 -72.5 -43 q-48.5 -24 -99.5 -39 q-51 -15 -103.5 -52.5 q-52.5 -37.5 -52.5 -73.5 q0 -17 10.5 -29 q10.5 -12 22.5 -12 q12 0 20 5 q88 55 178 104 q3 13 3 21 q0 8 -11 14 q-23 11 -23 22 q0 5 7.5 7 q7.5 2 44.5 2 q37 0 57 -23 q23 5 32.5 8.5 q9.5 3.5 11 6 q1.5 2.5 1.5 13 q0 10.5 11.5 16 q11.5 5.5 54.5 15.5 ZM608 315 q-13 38 -24 77 q-37 -13 -64 -32.5 q-27 -19.5 -76 -63.5 q-19 -36 -19 -88 q154 80 183 107 ZM359 89 q-36 -24 -49 -32 q11 -9 26 -13 q15 -4 20.5 -4 q5.5 0 5.5 13 q0 13 -3 36 ZM762 625 q30 0 47.5 -25 q17.5 -25 17.5 -43 q0 -18 -10 -27.5 q-10 -9.5 -29 -9.5 q-19 0 -45 19 q-53 39 -74 47 q-8 3 -8 7.5 q0 4.5 7.5 8 q7.5 3.5 45 13.5 q37.5 10 48.5 10 Z" /><glyph glyph-name="" unicode="&#x987b;" d="M749 38 q51 -20 77.5 -46.5 q26.5 -26.5 26.5 -56.5 q0 -15 -6.5 -28 q-6.5 -13 -16 -13 q-9.5 0 -21.5 6.5 q-12 6.5 -65.5 48 q-53.5 41.5 -81.5 71 q-28 29.5 -53 34.5 q-24 -42 -71 -75.5 q-47 -33.5 -86 -33.5 q-21 0 -21 16.5 q0 16.5 26 31.5 q52 29 82 78 q30 49 51 132 q21 83 21 99 q0 9 -4.5 9 q-4.5 0 -8.5 -7 q-4 -7 -6.5 -7 q-2.5 0 -6 15.5 q-3.5 15.5 -3.5 32.5 q0 17 14.5 25.5 q14.5 8.5 30 8.5 q15.5 0 30.5 -13.5 q15 -13.5 15 -28.5 q0 -15 -16 -120.5 q-16 -105.5 -43 -154.5 q53 -4 78 -9 q-12 43 -30 67 q-5 7 -5 12 q0 9 10 5 q29 -12 37.5 -12 q8.5 0 9.5 6 q1 6 1 81 q0 75 -5 133 q-5 58 -9.5 71.5 q-4.5 13.5 -12.5 13.5 q-8 0 -36.5 -14.5 q-28.5 -14.5 -49 -32 q-20.5 -17.5 -29.5 -32.5 q-9 -15 -16.5 -57.5 q-7.5 -42.5 -15 -118 q-7.5 -75.5 -26.5 -75.5 q-12 0 -22.5 34 q-10.5 34 -10.5 90.5 q0 56.5 26 137 q26 80.5 99 198.5 q-67 -22 -101.5 -22 q-34.5 0 -60.5 -22 q-7 -20 -26 -22 q-54 -6 -105 -35 q54 -23 66.5 -41 q12.5 -18 12.5 -38.5 q0 -20.5 -42 -69.5 q59 -28 59 -75 q0 -24 -17 -48 q-40 -58 -99 -166 q-20 -35 -42.5 -58.5 q-22.5 -23.5 -37.5 -23.5 q-10 0 -10 26 q0 65 18 108 q37 91 55 152 q-84 -59 -96 -59 q-13 0 -13 50 q0 50 18 55 q37 9 77 67 q40 58 40 69.5 q0 11.5 -9 11.5 q-18 0 -62 -18.5 q-44 -18.5 -54.5 -30 q-10.5 -11.5 -17.5 -11.5 q-14 0 -14 36 q0 36 2.5 50.5 q2.5 14.5 10.5 16.5 q30 9 89.5 60.5 q59.5 51.5 59.5 74.5 q0 14 -14.5 24.5 q-14.5 10.5 -14.5 14.5 q0 4 11 4 q47 0 97 -30 q50 -30 58 -74 q13 30 46 55 q33 25 55 29.5 q22 4.5 86.5 31.5 q64.5 27 75.5 39 q4 4 14 4 q23 0 47 -17.5 q24 -17.5 24 -38 q0 -20.5 -27 -27.5 q-124 -29 -174 -160 q33 17 57 49 q9 12 33 12 q36 0 67.5 -31 q31.5 -31 31.5 -61 q0 -54 5 -99.5 q5 -45.5 5 -105.5 q0 -60 -12 -112 q-12 -52 -29 -66 ZM287 233 q-46 -161 -46 -171 q0 -6 4 -6 q11 0 54.5 89.5 q43.5 89.5 43.5 102 q0 12.5 -12.5 12.5 q-12.5 0 -43.5 -27 Z" /><glyph glyph-name="" unicode="&#x96ea;" d="M652 547 q97 1 161.5 -35 q64.5 -36 64.5 -93 q0 -32 -36 -32 q-13 0 -26.5 3 q-13.5 3 -28.5 3 q-55 0 -110 -18 q10 -19 10 -30.5 q0 -11.5 -25.5 -43 q-25.5 -31.5 -80.5 -59.5 q110 -10 136 -52.5 q26 -42.5 26 -72.5 q0 -17 -11 -26 q-11 -9 -22 -31 q-11 -22 -34 -50 q-6 -8 -6 -18 q0 -17 11 -33.5 q11 -16.5 11 -25.5 q0 -24 -34 -24 q-16 0 -42 8 q-26 8 -62 8 q-87 0 -122 -27 q-17 -13 -40.5 -13 q-23.5 0 -45 15 q-21.5 15 -21.5 31.5 q0 16.5 24 24.5 q24 8 52 24 q28 16 37 22.5 q9 6.5 9 11.5 q0 5 -9 2 q-9 -3 -23.5 -3 q-14.5 0 -42 17 q-27.5 17 -27.5 31 q0 6 5.5 11 q5.5 5 39.5 15 l87 25 q54 16 66 16 q26 0 42.5 -16 q16.5 -16 16.5 -36 q0 -20 -20.5 -22.5 q-20.5 -2.5 -44.5 -20.5 q-24 -18 -43 -47 q64 1 111 30 q15 72 36 138 q2 6 2 13 q0 21 -17 21 q-31 0 -139 -42 q-53 -20 -76 -20.5 q-23 -0.5 -40.5 14 q-17.5 14.5 -17.5 26.5 q0 12 26 27 q26 15 78 34 q6 11 7.5 16 q1.5 5 1.5 23 q0 18 14 24 l-3 50 q-39 -39 -87 -107 q-15 -22 -29.5 -22 q-14.5 0 -24 18 q-9.5 18 -9.5 44 q0 26 4.5 34.5 q4.5 8.5 23.5 23 q19 14.5 19 35.5 q0 12 -7 21 q-23 28 -23 39.5 q0 11.5 10 11.5 q10 0 36 -10 q26 -10 43 -57 l45 20 q2 21 2 42 q0 21 -7 40 q-56 -32 -95 -32 q-13 0 -23 2 q-10 2 -15 2 q-9 0 -45 -10 q-40 -73 -48 -146 q-4 -36 -16 -59 q-12 -23 -26.5 -23 q-14.5 0 -27 29.5 q-12.5 29.5 -12.5 49 q0 19.5 9 29.5 q20 20 34 59 q14 39 14 56 q0 17 -10.5 34.5 q-10.5 17.5 -10.5 24 q0 6.5 5 6.5 q14 0 55 -42 q40 28 86 38.5 q46 10.5 110 29.5 q-4 15 -4 29 q0 14 2 28 q-39 17 -66 51 q-27 34 -27 41 q0 7 10 7 l32 -4 q22 0 63 11.5 q41 11.5 56 19.5 q15 8 37.5 8 q22.5 0 49.5 -26 q27 -26 27 -44 q0 -18 -24 -21 q-13 -2 -32.5 -17.5 q-19.5 -15.5 -71.5 -30.5 q27 -22 33 -37 q23 4 51 6 q8 22 24 22 q16 0 35 -17 ZM666 414 q21 4 63.5 26.5 q42.5 22.5 42.5 35 q0 12.5 -22.5 24 q-22.5 11.5 -68.5 7.5 q2 -32 -7.5 -47 q-9.5 -15 -17.5 -39 q8 -4 10 -7 ZM605 475 q-17 18 -38 18 q-6 0 -12 -1 q-8 -55 -13.5 -94 q-5.5 -39 -5.5 -72 q0 -33 3 -52 q38 28 52 37.5 q14 9.5 14 13 q0 3.5 -2 4.5 q-31 22 -31 55 q0 23 16.5 40 q16.5 17 16.5 51 Z" /><glyph glyph-name="" unicode="&#x610f;" d="M504 112 q40 -15 46.5 -26 q6.5 -11 12.5 -11 q9 0 70 22 q61 22 89 36 q10 5 24 5 q31 0 72 -23.5 q41 -23.5 41 -62.5 q0 -12 -5.5 -34.5 q-5.5 -22.5 -21 -22.5 q-15.5 0 -45.5 13 q-30 13 -83 27 q-8 2 -8 11 q0 13 16 15 q47 6 47 18.5 q0 12.5 -25 30.5 q-48 -40 -109 -75 q44 -41 64 -56 q20 -15 46.5 -25 q26.5 -10 34 -19 q7.5 -9 7.5 -24 q0 -15 -6.5 -20 q-6.5 -5 -44 -16.5 q-37.5 -11.5 -89 -11.5 q-51.5 0 -130.5 25.5 q-79 25.5 -104 59.5 q-25 34 -40 87 q-5 16 -9 16 q-4 0 -11 -13.5 q-7 -13.5 -22.5 -59 q-15.5 -45.5 -21 -75.5 q-5.5 -30 -25.5 -30 q-14 0 -25 19.5 q-11 19.5 -11 49 q0 29.5 14 51 q14 21.5 15 42.5 q1 21 6.5 32.5 q5.5 11.5 12 11.5 q6.5 0 10 -12.5 q3.5 -12.5 10.5 -12.5 q7 0 20 21.5 q13 21.5 31 21.5 q18 0 41.5 -21.5 q23.5 -21.5 37.5 -70.5 q6 -20 20 -30.5 q14 -10.5 59 -23 q45 -12.5 81 -12.5 q36 0 42.5 1.5 q6.5 1.5 6.5 6.5 q0 11 -51 71 q-17 -12 -22 -24 q-5 -12 -20 -12 q-9 0 -14 5 l-21 18 q-14 13 -20 21.5 q-6 8.5 -6 20.5 l1 20 q0 20 -19 40 q-63 -8 -82 -8 q-19 0 -26.5 5 q-7.5 5 -22 32.5 q-14.5 27.5 -24 66 q-9.5 38.5 -9.5 64 q0 25.5 18 55.5 q-96 -36 -127 -45 q-31 -9 -50.5 -9 q-19.5 0 -45.5 17.5 q-26 17.5 -26 28 q0 10.5 14 12.5 q40 5 324 77 q83 41 105.5 63.5 q22.5 22.5 22.5 27.5 q0 5 -4 5 q-10 0 -62 -29.5 q-52 -29.5 -95 -57.5 q-12 -8 -23 -8 q-25 0 -25 34 q0 10 4 30.5 q4 20.5 7.5 30 q3.5 9.5 9 13.5 q5.5 4 14.5 4 l17 0 q9 0 9 6.5 q0 6.5 -12.5 12.5 q-12.5 6 -36 31 q-23.5 25 -23.5 37 q0 12 18 12 l20 -1 q59 0 143 28 q-44 6 -44 13 q0 3 9.5 12.5 q9.5 9.5 9.5 17.5 q0 8 -17 30.5 q-17 22.5 -17 31 q0 8.5 5.5 8.5 q5.5 0 16.5 -4 q11 -4 19 -5 q8 -1 38 -1 q30 0 45.5 -18.5 q15.5 -18.5 30.5 -56.5 q31 -2 51 -15.5 q20 -13.5 20 -24.5 q0 -11 -12 -23 q-12 -12 -33.5 -20.5 q-21.5 -8.5 -27 -13 q-5.5 -4.5 -5.5 -14.5 q53 -23 53 -58.5 q0 -35.5 -50 -62.5 q97 21 131 21 q34 0 55.5 -18 q21.5 -18 21.5 -26 q0 -16 -71 -21 q-187 -13 -252.5 -25 q-65.5 -12 -118.5 -34 q-2 -8 -2 -19 q0 -28 10 -52 q27 41 80.5 74 q53.5 33 124.5 33 q24 0 40.5 -3.5 q16.5 -3.5 30.5 -17.5 q14 -14 21.5 -29.5 q7.5 -15.5 7.5 -26.5 q0 -11 -3 -17 q-12 -21 -25 -63 q-29 -92 -83 -92 q-10 0 -15 3.5 q-5 3.5 -11 3.5 q-16 0 -35 -17 ZM555 189 q11 5 18.5 20 q7.5 15 17.5 58 q10 43 10 54 q0 11 -7.5 11 q-7.5 0 -26.5 -10 q-53 -29 -112 -35 q-33 -3 -49 -20 q-16 -17 -25 -51 q2 -33 9 -33 q7 0 21.5 8.5 q14.5 8.5 14.5 14 q0 5.5 -11.5 16.5 q-11.5 11 -11.5 21 q0 10 20 14 q30 5 79 29 q5 3 12 3 q19 0 36.5 -16 q17.5 -16 17.5 -28.5 q0 -12.5 -29.5 -20 q-29.5 -7.5 -56 -23.5 q-26.5 -16 -39.5 -33 q51 25 88 25 q14 0 24 -4 Z" /><glyph glyph-name="" unicode="&#x7528;" d="M291 599 q19 14 77.5 40 q58.5 26 130 42.5 q71.5 16.5 96.5 16.5 q52 0 101.5 -34.5 q49.5 -34.5 49.5 -69.5 q0 -12 -6 -28 q-20 -56 -20 -208 q0 -152 12 -236 q12 -84 12 -117.5 q0 -33.5 -8 -70 q-8 -36.5 -22 -36.5 q-5 0 -14 5.5 q-9 5.5 -66.5 53 q-57.5 47.5 -122.5 108.5 q-3 -46 -15.5 -88 q-12.5 -42 -19.5 -42 q-7 0 -24.5 63 q-17.5 63 -19.5 195 q-21 -12 -43 -12 q-22 0 -46.5 22.5 q-24.5 22.5 -24.5 34.5 q0 12 10 17 q43 22 93 103 q-94 28 -94 76 q0 15 14 16 q28 2 96 35 q2 32 2 58.5 q0 26.5 -9 37.5 q-39 -13 -66 -13 q-27 0 -58 15 q32 -38 32 -51 q0 -7 -10.5 -24.5 q-10.5 -17.5 -15.5 -49.5 q-5 -32 -11 -171 q-6 -139 -20 -187 q-14 -48 -34 -75 q-20 -27 -55 -27 q-8 0 -8 5 q0 5 6 14 q47 81 47 260.5 q0 179.5 4 214 q4 34.5 4 54.5 q0 20 -12 34 q-12 14 -12 23.5 q0 9.5 17.5 9.5 q17.5 0 52.5 -14 ZM515 97 q106 -46 123.5 -46 q17.5 0 22.5 5.5 q5 5.5 5 20.5 q0 15 -5.5 97.5 q-5.5 82.5 -13 159 q-7.5 76.5 -7.5 141 q0 64.5 3 93.5 q3 29 3 42.5 q0 13.5 -9 18.5 q-9 5 -35 5 q-26 0 -63 -9 q-37 -9 -55 -20 q29 -20 41 -40.5 q12 -20.5 10 -55.5 q41 4 58.5 -23.5 q17.5 -27.5 17.5 -42 q0 -14.5 -13 -17.5 q-33 -7 -45.5 -12.5 q-12.5 -5.5 -23.5 -18.5 q-2 -29 -2 -56 q38 2 53 -4.5 q15 -6.5 32 -30 q17 -23.5 17 -39 q0 -15.5 -14 -16.5 q-48 -3 -90 -16 q-3 -57 -10 -136 Z" /><glyph glyph-name="" unicode="&#x6709;" d="M652 646 q82 16 103 26 q2 1 6 1 q11 0 43.5 -15 q32.5 -15 32.5 -35 q0 -11 -7.5 -19 q-7.5 -8 -23 -10 q-15.5 -2 -79 -30.5 q-63.5 -28.5 -110.5 -60.5 l-19 -30 q17 17 36 17 q19 0 35 -7.5 q16 -7.5 34 -24.5 q18 -17 27.5 -35.5 q9.5 -18.5 8.5 -43 q-1 -24.5 -1 -91.5 q0 -67 3 -107 q3 -40 8.5 -89.5 q5.5 -49.5 5.5 -63.5 q0 -51 -26.5 -107 q-26.5 -56 -41.5 -56 q-5 0 -11.5 5.5 q-6.5 5.5 -48.5 59 q-42 53.5 -69 98.5 q-27 45 -42 88 q0 -60 3.5 -113 q3.5 -53 3.5 -58 q0 -24 -16 -24 q-16 0 -37.5 56.5 q-21.5 56.5 -21.5 79 q0 22.5 4 38.5 q10 34 25 225 q-104 -113 -191 -113 q-39 0 -71.5 25.5 q-32.5 25.5 -55.5 78.5 q-23 53 -23 76.5 q0 23.5 13.5 42.5 q13.5 19 24 39.5 q10.5 20.5 13.5 31.5 q7 21 37 29 l129 38 q100 29 180 50 q-4 16 -16 33 q-12 17 -27 51.5 q-15 34.5 -15 42 q0 7.5 10.5 7.5 q10.5 0 54.5 -12.5 q44 -12.5 68 -32.5 q24 -20 44 -61 ZM658 597 l-7 -22 q30 21 30 24 q0 3 -4 3 q-4 0 -19 -5 ZM520 549 q-149 -63 -196 -93 q-16 -11 -36 -11 q-20 0 -37.5 6.5 q-17.5 6.5 -29.5 6.5 q-12 0 -19.5 -9 q-7.5 -9 -23 -41 q-15.5 -32 -15.5 -58.5 q0 -26.5 27 -51.5 q27 -25 57 -25 q68 0 139.5 77.5 q71.5 77.5 133.5 198.5 ZM579 50 q20 -31 47.5 -46.5 q27.5 -15.5 37 -15.5 q9.5 0 13 17.5 q3.5 17.5 3.5 103.5 q0 86 -7.5 184 q-7.5 98 -12 107 q-4.5 9 -13.5 9 q-9 0 -37 -17.5 q-28 -17.5 -42 -39.5 q14 2 25 2 q66 0 66 -54 q0 -30 -21 -70 q-7 -12 -7 -19 q0 -7 13 -14.5 q13 -7.5 22.5 -25 q9.5 -17.5 9.5 -35 q0 -17.5 -8 -30.5 q-8 -13 -32 -29 q-24 -16 -57 -27 ZM561 75 q40 44 40 54 q0 2 -2.5 2 q-2.5 0 -8.5 -4 q-6 -4 -11 -4 q-10 0 -17.5 25 q-7.5 25 -7.5 43 q0 18 15 43.5 q15 25.5 15 29.5 q0 4 -2 4 q-5 0 -30 -35 q-25 -35 -25 -72 q0 -37 34 -86 Z" /><glyph glyph-name="" unicode="&#x6708;" d="M488 107 q25 -37 69.5 -65 q44.5 -28 55 -28 q10.5 0 10.5 10 q0 10 -6.5 130.5 q-6.5 120.5 -6.5 251.5 q0 131 2 178.5 q2 47.5 2 51.5 q0 16 -4.5 16 q-4.5 0 -10.5 -5 q-39 -28 -58 -36 q-19 -8 -43.5 -4.5 q-24.5 3.5 -39 3.5 q-14.5 0 -19.5 -2 q-5 -2 -7.5 -2 q-2.5 0 -2.5 5 q0 5 14.5 27.5 q14.5 22.5 71.5 59 q57 36.5 83 36.5 q26 0 61.5 -24.5 q35.5 -24.5 48.5 -36 q13 -11.5 13 -23 q0 -11.5 -8 -40.5 q-29 -108 -29 -293 q0 -128 10 -208 q10 -80 10 -127.5 q0 -47.5 -10.5 -86 q-10.5 -38.5 -21.5 -38.5 q-6 0 -18.5 14.5 q-12.5 14.5 -40.5 36.5 q-28 22 -76 78.5 q-48 56.5 -85 116.5 q-27 0 -27 16 q0 8 10 14 q34 21 60.5 59.5 q26.5 38.5 26.5 44.5 q0 6 -3 6 q-3 0 -12 -5 q-9 -5 -17.5 -5 q-8.5 0 -21 27 q-12.5 27 -12.5 45 q0 37 32 99 q4 8 4 11.5 q0 3.5 -6 3.5 q-12 0 -65 -20 q2 -189 -21.5 -277.5 q-23.5 -88.5 -66.5 -153 q-43 -64.5 -72 -64.5 q-20 0 -20 26 q0 15 10 24 q32 28 62 140.5 q30 112.5 30 226.5 l-3 110 q0 52 7.5 83.5 q7.5 31.5 7.5 54 q0 22.5 -22 55.5 q-6 9 -6 18 q0 9 8.5 9 q8.5 0 30.5 -9.5 q22 -9.5 47 -30 q25 -20.5 30.5 -31 q5.5 -10.5 5.5 -27 q0 -16.5 -14 -65.5 q30 13 58 37 q18 15 29 15 q11 0 32 -14 q21 -14 27.5 -23.5 q6.5 -9.5 6.5 -26.5 q0 -39 -41 -147 q28 -13 43.5 -36 q15.5 -23 15.5 -44.5 q0 -21.5 -7 -36 q-7 -14.5 -35 -48.5 q-28 -34 -40.5 -42.5 q-12.5 -8.5 -35.5 -14.5 Z" /><glyph glyph-name="" unicode="&#x4e4b;" d="M290 138 q0 -3 14 -5 q88 -7 135.5 -15 q47.5 -8 106.5 -23 q19 -5 102 -9 q83 -4 160 -4 q101 0 133 -18.5 q32 -18.5 32 -31.5 q0 -5 -6.5 -10.5 q-6.5 -5.5 -41 -21 q-34.5 -15.5 -117.5 -34.5 q-83 -19 -113.5 -19 q-30.5 0 -70.5 18 q-68 31 -187.5 68 q-119.5 37 -210.5 37 q-47 0 -78.5 -12 q-31.5 -12 -47.5 -12 q-16 0 -16 19 q0 4 6 39.5 q6 35.5 10.5 40 q4.5 4.5 22.5 4.5 q18 0 68.5 15.5 q50.5 15.5 100.5 50.5 l174 122 q123 87 126 90 q3 3 3 4.5 q0 1.5 -2 1.5 q-22 0 -121.5 -57 q-99.5 -57 -169.5 -93 l-92 -47 q-22 -11 -28.5 -12.5 q-6.5 -1.5 -10.5 -1.5 q-22 0 -32.5 38.5 q-10.5 38.5 -10.5 52 q0 13.5 19 49.5 q19 36 35 57.5 q16 21.5 39 31.5 q32 13 94 52 q62 39 108 59 q10 4 10 10 q0 6 -15 25 l-50 62 q-3 4 -3 7.5 q0 3.5 5.5 3.5 q5.5 0 26 -5.5 q20.5 -5.5 36 -5.5 q15.5 0 27.5 1.5 q12 1.5 24 1.5 q56 0 95.5 -30 q39.5 -30 39.5 -76 q0 -21 -16 -33 q-16 -12 -33.5 -12 q-17.5 0 -34 3 q-16.5 3 -27.5 3 q-11 0 -28.5 -8.5 q-17.5 -8.5 -125.5 -22.5 q-38 -5 -80 -22.5 q-42 -17.5 -70.5 -41 q-28.5 -23.5 -35.5 -47 q-7 -23.5 -7 -31.5 q0 -8 15 -8 q17 0 32 11 q43 31 241.5 98 q198.5 67 244.5 67 q30 0 51 -26.5 q21 -26.5 21 -45.5 q0 -19 -8.5 -29.5 q-8.5 -10.5 -25.5 -11.5 q-17 -1 -68 -35 q-120 -79 -194.5 -123.5 q-74.5 -44.5 -167.5 -92.5 q-12 -6 -12 -10 Z" /><glyph glyph-name="" unicode="&#x6a3d;" d="M783 260 q80 1 103.5 -2 q23.5 -3 37 -17.5 q13.5 -14.5 13.5 -21.5 q0 -7 -6 -14 q-6 -7 -9.5 -8.5 q-3.5 -1.5 -14.5 -1.5 q-26 0 -147 15 q9 -43 9 -135 q0 -92 -15.5 -142.5 q-15.5 -50.5 -29.5 -50.5 q-6 0 -17 8 q-43 32 -74.5 51 q-31.5 19 -57.5 57.5 q-26 38.5 -26 44.5 q0 1 1 1 q4 0 20.5 -15 q16.5 -15 48.5 -26.5 q32 -11.5 51.5 -11.5 q19.5 0 27 6 q7.5 6 10.5 25 q3 19 3 65.5 q0 46.5 -4.5 70.5 q-4.5 24 -15 32 q-10.5 8 -32.5 8 q-47 -15 -121.5 -44.5 q-74.5 -29.5 -97 -40.5 q-22.5 -11 -34 -11 q-11.5 0 -25 5.5 q-13.5 5.5 -13.5 12.5 q0 7 6 13.5 q6 6.5 16 8.5 q33 8 92.5 36.5 q59.5 28.5 112.5 63.5 q-3 2 -16 2 q-13 0 -22.5 -4.5 q-9.5 -4.5 -13.5 -4.5 q-16 0 -16 25 q0 17 8 23.5 q8 6.5 50 23.5 q-19 0 -26 6.5 q-7 6.5 -7 27 q0 20.5 37 30.5 q-18 11 -36.5 19 q-18.5 8 -18.5 14 q0 6 35 17 q0 7 -9 11 q-9 -4 -15.5 -4 q-6.5 0 -8.5 16 q-17 -2 -25 -11 q4 -14 5 -26 l-5 -40 q0 -13 2.5 -39 q2.5 -26 5 -37 q2.5 -11 2.5 -16.5 q0 -5.5 -2 -5.5 q-6 0 -23.5 30 q-17.5 30 -17.5 70 q0 27 11 67.5 q11 40.5 23 40.5 q5 0 5 -7.5 q0 -7.5 -2 -16.5 q23 16 53 33 q4 9 4 17.5 q0 8.5 -5 13.5 q-47 -29 -71.5 -41.5 q-24.5 -12.5 -37.5 -12.5 q-13 0 -28 18 q-22 -3 -44 -39 q-8 -26 -8 -48 q7 -17 4 -45 q34 33 42 33 q8 0 8 -18 q0 -18 -69 -94 q-4 -53 -4 -87 q0 -34 1 -43 q12 -71 12 -109 q0 -74 -7.5 -74 q-7.5 0 -33.5 48 q-26 48 -26 84 q0 11 3.5 30 q3.5 19 3.5 44.5 q0 25.5 -3 50.5 q-45 -49 -66.5 -69 q-21.5 -20 -34 -20 q-12.5 0 -19.5 33.5 q-7 33.5 -7 46 q0 12.5 7.5 26 q7.5 13.5 17.5 13.5 q22 0 63 55 q41 55 38 86 q-44 -32 -65.5 -45 q-21.5 -13 -32.5 -13 q-11 0 -20 7 q-9 7 -32.5 30 q-23.5 23 -35 38 q-11.5 15 -11.5 22.5 q0 7.5 7 7.5 q7 0 13.5 -2.5 q6.5 -2.5 14 -2.5 q7.5 0 16.5 5.5 q9 5.5 69 50 q60 44.5 82 58.5 q6 48 6 75 q0 46 -17.5 55 q-17.5 9 -17.5 19.5 q0 10.5 13 14.5 q13 4 21 4 q21 0 54.5 -24.5 q33.5 -24.5 33.5 -78.5 q0 -14 -2 -31 q21 -6 30.5 -20.5 q9.5 -14.5 9.5 -48.5 q25 15 105 56 q-5 24 21 24 q10 0 24 -4 q26 24 49 43 q-4 9 -4 15 q0 6 28 7 q56 61 56 72 q0 5 -10 5 q-10 0 -27.5 -10.5 q-17.5 -10.5 -49 -34 q-31.5 -23.5 -57.5 -48 q-26 -24.5 -35.5 -35.5 q-9.5 -11 -14.5 -22.5 q-5 -11.5 -13.5 -11.5 q-8.5 0 -10.5 8 q-7 25 -14.5 33 q-7.5 8 -7.5 18 q0 16 11 21 q4 2 7 7 q3 5 3 17.5 q0 12.5 4 12.5 q7 0 32 -26 q126 97 184 97 q25 0 43 -17.5 q18 -17.5 18 -30.5 q0 -13 -14 -21 q-28 -16 -73 -59 q4 -6 4 -9 q52 19 79 19 q27 0 27 -22 q0 -10 -7 -16.5 q-7 -6.5 -35.5 -18.5 q-28.5 -12 -70.5 -22 q-3 -8 -4 -15 q113 3 113 -107 q0 -32 -6.5 -85 q-6.5 -53 -14.5 -86 ZM653 528 q-2 10 -5 17 q-34 -6 -39 -8 q0 -14 4 -26 q26 16 40 17 ZM736 258 q-4 17 -4 24.5 q0 7.5 10 14.5 q14 9 14 116 q0 50 -18.5 73 q-18.5 23 -41 23 q-22.5 0 -22.5 -35 q25 -23 25 -34.5 q0 -11.5 -26 -38.5 q16 -22 16 -32.5 q0 -10.5 -15 -25.5 q18 -1 30.5 -12.5 q12.5 -11.5 12.5 -25 q0 -13.5 -7 -21 q-7 -7.5 -31 -14.5 q-23 -14 -35 -36 q43 25 61 25 q18 0 31 -1 ZM642 464 q-2 7 -8 7 q-18 -6 -26 -11 q-2 -4 -2 -7 q0 -3 3 -7 q17 12 33 18 ZM563 138 q34 0 58.5 -17 q24.5 -17 24.5 -53 q0 -20 -26 -20 q-14 0 -23.5 5.5 q-9.5 5.5 -31.5 12.5 q-22 7 -37.5 17.5 q-15.5 10.5 -15.5 21.5 q0 11 14 22 q14 11 37 11 Z" /></font>
</defs>
</svg>
